<svg id="Layer_1" data-name="Layer 1" xmlns="http://www.w3.org/2000/svg" viewBox="0 0 647.96 306.23"><path d="M671.08,130.62h300.8V436.7H671.08Zm30.73,30.87V405.82h40.31V161.49ZM941.15,405.91V161.56H900.78V405.91Z" transform="translate(-323.92 -130.62)"/><path d="M323.94,130.62H625.06v2.76c0,53.33.25,106.66-.09,160-.22,33.72-11.79,63.59-33.43,89.36-24.21,28.83-55.21,46.41-92.33,52.07-47.42,7.24-89.94-4.59-126.28-36.21-25.14-21.89-40.79-49.58-46.73-82.46A139,139,0,0,1,324,292c-.19-52.74-.1-105.48-.1-158.22ZM367.3,344.15c.49,1,.8,1.66,1.16,2.31a102.11,102.11,0,0,0,22,27.57c19.47,17.14,42.47,26.17,68,28.84a128,128,0,0,0,58.25-7c29-10.66,51-29.31,64.9-57.1,9.21-18.47,12.7-38.26,12.7-58.75q0-57.87,0-115.72v-2.66H553.6v3.46c0,38.91.1,77.82-.09,116.72a103.39,103.39,0,0,1-2.07,20.32c-4.38,21.29-15.67,38.05-34.64,49-21,12.13-43.56,14.8-67,9.06-15.27-3.73-28.43-11.24-38.68-23.34-2.94-3.47-5.37-7.38-8.15-11.25Z" transform="translate(-323.92 -130.62)"/></svg>