<svg xmlns="http://www.w3.org/2000/svg" width="46" height="46" fill="none" xmlns:v="https://vecta.io/nano"><path d="M45.737 8.479c-.234-.234-.625-.312-.937-.234l-1.562.547a10.7 10.7 0 0 0 1.952-3.357c.156-.39.078-.703-.156-.937a.83.83 0 0 0-.937-.156l-5.621 2.186c0 .078-.078 0-.156 0-1.249-.703-4.294-2.264-6.48-2.264-5.543.078-9.994 4.763-9.994 10.462v.312c-8.12-1.562-12.57-3.904-17.411-8.979l-.781-.781-.468.937C.53 11.29 2.404 15.897 5.449 19.02c-1.405-.234-2.342-.703-3.201-1.405-.312-.234-.703-.312-1.093-.078-.312.156-.468.625-.39 1.015 1.093 3.669 3.826 6.637 6.793 8.432-1.405 0-2.577-.156-3.748-.937-.312-.156-.781-.156-1.093.078s-.468.625-.312 1.015c1.405 3.982 4.138 6.09 8.51 6.637-2.264 1.327-5.231 2.42-9.838 2.499-.468 0-.859.312-1.015.703-.156.468 0 .859.312 1.171 2.811 2.264 9.057 3.591 16.787 3.591 13.742 0 24.985-12.258 24.985-27.327v-.234c1.718-.859 3.123-2.498 3.826-4.763.078-.312 0-.703-.234-.937zm-4.685 4.45l-.468.156v1.327c0 14.21-10.54 25.766-23.423 25.766-7.105 0-11.868-1.171-14.444-2.42 5.387-.39 8.51-2.108 10.931-3.982l1.952-1.405h-2.342c-4.45 0-7.183-1.249-8.745-4.216 1.405.468 2.889.468 4.528.39.625-.078 1.249-.078 1.874-.078l.234-1.562c-2.967-.859-6.48-3.514-8.198-7.105 1.562.703 3.279.859 4.841.859h2.42l-1.952-1.406c-1.64-1.171-6.48-5.309-4.138-11.243 4.997 4.919 9.76 7.183 18.348 8.745l.937.156v-2.186c0-4.841 3.748-8.823 8.432-8.901 1.796-.078 4.763 1.562 5.621 2.03.469.234.937.312 1.405.156 1.171-.39 2.577-.937 4.138-1.562-.703 1.171-1.64 2.264-2.889 3.279-.312.234-.39.703-.234 1.093s.625.547 1.015.39l3.045-1.015c-.547 1.015-1.405 2.186-2.889 2.733z" fill="#000"/></svg>