<svg xmlns="http://www.w3.org/2000/svg" width="43" height="43" fill="none" xmlns:v="https://vecta.io/nano"><g clip-path="url(#A)" fill="#000"><path d="M36.4.067H6.533C2.931.067 0 2.998 0 6.6v29.867C0 40.07 2.932 43 6.533 43v-.085C7.296 43 8.682 43 11.2 43h25.2c3.603 0 6.533-2.932 6.533-6.533V6.6c0-3.603-2.932-6.533-6.533-6.533zm4.667 36.4c0 2.573-2.093 4.667-4.667 4.667H6.533c-2.573 0-4.667-2.093-4.667-4.667V6.6c0-2.573 2.093-4.667 4.667-4.667H36.4c2.573 0 4.667 2.093 4.667 4.667v29.867zM21.466 7.534a14.02 14.02 0 0 0-14 14 14.02 14.02 0 0 0 14 14 14.02 14.02 0 0 0 14-14 14.02 14.02 0 0 0-14-14zm0 26.133A12.15 12.15 0 0 1 9.333 21.534 12.15 12.15 0 0 1 21.466 9.4 12.15 12.15 0 0 1 33.6 21.534a12.15 12.15 0 0 1-12.133 12.133zm-.043-20.577c-4.655 0-8.444 3.788-8.444 8.444s3.788 8.444 8.444 8.444 8.444-3.788 8.444-8.444-3.788-8.444-8.444-8.444zm0 15.021c-3.627 0-6.577-2.95-6.577-6.577s2.95-6.577 6.577-6.577S28 17.907 28 21.534s-2.95 6.577-6.577 6.577zM35.467 9.4a1.87 1.87 0 0 0 1.867-1.867 1.87 1.87 0 0 0-1.867-1.867A1.87 1.87 0 0 0 33.6 7.533 1.87 1.87 0 0 0 35.467 9.4z"/></g><defs><clipPath id="A"><path fill="#fff" transform="translate(0 .067)" d="M0 0h42.933v42.933H0z"/></clipPath></defs></svg>