<svg width="79" height="66" viewBox="0 0 79 66" fill="none" xmlns="http://www.w3.org/2000/svg">
<path d="M38.1947 25C41.7876 32.5259 40.515 50.1446 6.68158 60.4115" stroke="#898989" stroke-opacity="0.5" stroke-width="3"/>
<path d="M22.04 2.04L18.14 16H14.84L12.22 6.06L9.48 16L6.2 16.02L2.44 2.04H5.44L7.9 12.88L10.74 2.04H13.86L16.54 12.82L19.02 2.04H22.04ZM26.6683 4.3V7.8H31.3683V10.02H26.6683V13.72H31.9683V16H23.8683V2.02H31.9683V4.3H26.6683ZM37.3128 4.3V7.8H42.0128V10.02H37.3128V13.72H42.6128V16H34.5128V2.02H42.6128V4.3H37.3128ZM47.9573 4.3V7.8H52.6573V10.02H47.9573V13.72H53.2573V16H45.1573V2.02H53.2573V4.3H47.9573ZM58.6019 4.3V7.8H63.3019V10.02H58.6019V13.72H63.9019V16H55.8019V2.02H63.9019V4.3H58.6019ZM70.0664 1.8L69.7464 11.46H67.3864L67.0464 1.8H70.0664ZM68.6264 16.14C68.1197 16.14 67.6997 15.9867 67.3664 15.68C67.0464 15.36 66.8864 14.9667 66.8864 14.5C66.8864 14.0333 67.0464 13.6467 67.3664 13.34C67.6997 13.02 68.1197 12.86 68.6264 12.86C69.1197 12.86 69.5264 13.02 69.8464 13.34C70.1664 13.6467 70.3264 14.0333 70.3264 14.5C70.3264 14.9667 70.1664 15.36 69.8464 15.68C69.5264 15.9867 69.1197 16.14 68.6264 16.14Z" fill="#898989" fill-opacity="0.5"/>
</svg>
