<svg width="134" height="127" viewBox="0 0 134 127" fill="none" xmlns="http://www.w3.org/2000/svg">
<circle cx="63.5" cy="63.5" r="63.5" fill="#CA6100"/>
<path d="M48.925 58.781L47.3804 54.3213C44.7547 55.3911 42.305 56.3435 39.894 57.3747C36.9825 58.622 34.536 58.1681 32.3489 55.7724C31.6585 55.0191 30.4769 54.4757 29.4467 54.3152C26.634 53.8752 25.4571 51.9611 24.6431 49.5962C23.8199 47.2035 24.3033 44.9282 26.2139 43.4463C30.083 40.4454 33.9676 37.3488 38.2367 35.004C43.6581 32.0279 50.0618 33.7984 54.2104 39.0268C58.0641 43.8816 62.7611 47.3394 68.791 48.7997C71.2399 49.3999 73.7385 49.775 76.2558 49.9204C81.5665 50.1952 86.7729 51.5013 91.5839 53.7656C96.9435 56.271 102.138 55.9823 106.796 51.9318C107.192 51.5891 107.675 51.3452 108.132 51.0781C108.23 51.0226 108.389 51.0781 109.087 51.0781C109.271 51.85 109.745 52.7854 109.654 53.6607C109.322 56.8452 107.601 59.3629 105.346 61.5194C101.043 65.6333 95.9241 68.3825 90.2772 70.1207C88.2152 70.7551 87.0491 71.7817 86.1425 73.8177C84.9748 76.442 83.2356 78.8501 81.4918 81.164C80.4987 82.4838 79.833 83.6616 79.7635 85.3936C79.6245 88.7897 78.2096 90.179 74.8024 90.3163C71.0955 90.4707 67.3546 90.5417 63.6523 90.2886C61.6212 90.1512 59.6009 89.3778 57.6656 88.6507C57.1729 88.4655 56.7698 87.3618 56.7698 86.6779C56.7698 84.8256 57.5884 83.3514 59.4125 82.6274C60.5137 82.1905 61.6335 81.8031 62.4815 81.4897L59.7307 72.2278C59.6936 72.1012 59.7059 71.9098 59.6225 71.8527C56.7497 69.8629 54.0112 67.603 50.9221 66.0362C49.5166 65.323 47.3187 65.4094 46.6375 68.1093C46.2715 69.5603 44.6296 70.2256 43.0125 69.7749C41.4525 69.3427 40.6956 68.2158 40.4902 66.5733C39.9017 61.9686 41.7784 59.4864 46.3749 58.977C47.0221 58.9014 47.6693 58.8736 48.925 58.781ZM66.2533 79.591C65.8908 79.3986 65.5304 79.2051 65.1721 79.0106C65.4625 76.5222 64.8184 74.3626 62.7626 71.8604C62.4614 75.1962 63.5349 77.1736 65.2756 78.9056L66.383 79.4691L65.0702 84.1896L69.0041 82.9747L66.2533 79.591ZM48.7674 50.7076C50.3383 54.2735 51.7731 57.5322 53.3146 61.0347C51.5986 62.5552 49.2586 61.6383 47.1364 61.7865C43.3523 62.052 42.7669 62.7945 43.6504 66.2631C45.0404 65.2597 46.4074 63.6203 48.0492 63.2576C50.4541 62.7266 53.0644 63.0476 55.5835 63.1279C56.9412 63.1727 57.8787 63.662 57.2949 65.4125C57.1296 65.9096 57.5482 66.9871 58.0085 67.2418C59.7724 68.2204 61.6613 68.9722 63.7032 69.8999C64.0971 68.2745 64.2546 67.2217 64.6083 66.2399C65.3698 64.1328 66.1683 62.0335 67.1012 59.9989C67.3036 59.559 68.1361 59.4092 68.6798 59.1252C68.9115 59.789 69.3795 60.4775 69.3177 61.1134C69.2451 61.859 68.6489 62.5398 68.3909 63.2884C67.8828 64.7873 67.2773 66.2831 67.0225 67.8314C66.2502 72.5272 67.3932 76.6858 70.4684 80.4385C72.674 83.1291 71.9666 84.9305 68.6798 86.0497C67.6187 86.4109 66.5359 86.7104 65.4625 87.0361C68.4574 87.5655 71.3657 87.5161 74.2664 87.5825C76.2867 87.6288 77.3447 86.6841 77.164 84.7407C76.9447 82.3742 78.0907 80.8445 79.5766 79.1835C83.4179 74.8859 85.6003 69.8783 85.2682 63.9599C85.2188 63.0801 85.4227 62.1863 85.5401 60.8726C89.4154 62.1662 86.8004 65.7506 88.7435 67.8361C95.0483 65.6086 101.115 62.8501 105.27 56.8684C100.338 58.5386 95.5194 58.6575 90.9167 56.4053C85.4289 53.7178 79.6167 52.7669 73.6177 52.3594C67.9399 51.9719 62.6514 50.2245 58.1506 46.6972C55.8801 44.9158 53.9309 42.6837 52.0095 40.5103C49.0069 37.1049 45.059 35.1075 41.0431 36.9429C36.3122 39.1132 32.1187 42.5448 27.9145 45.7201C26.319 46.9241 27.0264 48.8954 28.0473 50.4267C29.0945 51.9935 30.4275 51.7218 31.8809 50.9747C35.0627 49.3369 38.2722 47.7531 41.4849 46.1786C42.3112 45.7726 43.1731 45.382 44.0627 45.1922C44.4566 45.1073 45.1872 45.4299 45.354 45.7695C45.5208 46.1091 45.3787 46.9612 45.0791 47.1727C44.0056 47.9306 42.8225 48.5373 41.6548 49.1547C39.1557 50.4761 36.6427 51.7697 34.1143 53.0833C35.5507 55.7323 37.2559 55.5532 39.1449 54.7536C42.2726 53.4276 45.4235 52.1139 48.7674 50.7076ZM62.8228 85.1312C62.7286 84.9043 62.636 84.6774 62.5417 84.4489L60.0705 85.4708C60.1709 85.7132 60.2728 85.954 60.3794 86.1963L62.8228 85.1312Z" fill="#EFD0B9"/>
<path d="M37.7684 46.0089C37.6016 45.5087 37.234 44.97 37.322 44.5208C37.424 44.0021 37.9259 43.5607 38.2487 43.0852C38.6318 43.377 39.316 43.6564 39.3299 43.9635C39.3515 44.456 38.9268 44.9669 38.6905 45.4702L37.7684 46.0089Z" fill="#EFD0B9"/>
</svg>
