<svg width="1306" height="1119" viewBox="0 0 1306 1119" fill="none" xmlns="http://www.w3.org/2000/svg">
<path d="M685.713 584.251C685.254 582.974 684.72 581.726 684.113 580.517C683.219 578.853 682.042 577.349 681.132 575.69C676.799 567.876 678.304 564.741 687.562 565.235C686.315 566.571 685.216 567.953 683.943 569.205C682.894 570.001 682.051 571.07 681.488 572.323C690.547 569.859 695.85 576.568 702.077 581.218C708.065 585.454 714.247 589.34 720.594 592.856C724.654 595.264 729.076 597.286 733.316 599.474L732.724 601.157L727.738 600.48L727.519 601.006C734.01 605.921 740.386 610.946 746.978 615.702C748.918 617.099 751.269 617.783 753.418 619.536C747.019 620.301 741.703 627.375 734.184 621.385L733.902 622.57C735.225 623.846 736.562 625.117 737.477 625.988C734.953 627.699 732.441 629.664 729.667 631.159C728.528 631.767 726.877 631.361 724.18 630.362L727.967 626.505L715.532 620.658C717.362 624.065 718.972 627.082 720.644 630.19C714.346 637.222 706.33 642.189 697.43 644.576C700.943 635.313 711.789 638.428 715.106 629.445L705.977 629.424L705.906 631.129L709.35 632.94L685.948 646.341L689.782 646.239L690.047 647.584L670.523 651.774L669.994 649.577L678.659 647.875L678.581 646.709C659.907 649.137 641.242 649.713 622.597 643.147L622.386 645.042C626.028 646.096 629.606 647.317 633.293 648.139C636.979 648.96 640.806 649.482 644.623 650.135C648.44 650.788 652.245 650.969 656.066 651.364L656.049 652.87C651.192 652.666 646.357 652.638 641.514 652.21C631.207 651.325 620.911 649.943 610.615 649.312C605.121 648.974 599.623 649.919 594.116 649.971C593.337 649.954 592.561 649.765 591.835 649.417C591.109 649.068 590.447 648.567 589.891 647.943C585.87 642.485 582.246 636.703 575.297 635.095C574.158 634.842 573.316 632.704 571.992 630.99L576.203 629.692C577.686 623.744 567.827 625.284 569.931 618.926L523.243 601.078L522.904 601.969L526.918 605.197C525.548 605.68 524.123 605.985 522.669 606.104C521.393 605.8 520.143 605.351 518.939 604.765L518.192 606.698L522.511 607.69L440.658 668.539C439.038 667.318 438.06 666.082 437.515 666.251C429.126 668.717 421.444 673.191 415.016 679.354L415.668 680.984C417.268 680.503 418.81 679.844 420.269 679.016C423.584 676.694 426.603 673.897 429.984 671.683C431.37 670.799 433.232 671.029 435.976 670.568C430.157 678.053 419.755 679.229 418.499 689.626L419.786 690.95C420.943 689.779 421.967 688.462 422.839 687.026C425.837 680.611 431.077 677.165 437.264 674.636C432.93 680.108 426.418 684.055 426.933 692.936C427.434 692.947 427.87 693.068 427.945 692.935C437.951 675.412 453.117 665.264 471.05 659.515C489.315 653.609 507.631 647.76 526.232 643.05C533.772 641.146 542.112 641.996 550.11 642.165C559.073 642.348 561.609 646.269 559.225 656.666C562.077 655.64 564.496 655.041 566.675 653.93C578.109 648.355 591.854 656.945 592.443 670.744C592.677 676.344 591.94 682.83 589.401 687.346C581.966 700.618 573.383 713.128 565.308 725.993C561.885 731.459 558.838 737.285 555.185 742.546C553.061 745.114 550.636 747.368 547.966 749.256C546.316 750.31 544.87 751.685 543.695 753.318L550.322 751.896L548.021 756.266L548.871 757.358L560.28 749.118L561.131 750.101L551.735 760.189L552.323 761.289C553.946 760.821 555.471 760.06 556.837 759.037C559.871 756.037 562.561 752.654 564.857 748.952C565.798 747.271 565.032 744.14 564.462 741.754C564.209 740.935 562.194 740.532 560.531 739.764C562.998 735.983 564.487 731.077 570.367 730.674C572.53 730.302 574.511 729.246 576.065 727.636C594.794 710.198 613.439 692.683 631.999 675.09C633.061 673.96 634.067 672.771 635.013 671.525C625.41 672.656 624.589 662.516 618.201 658.099C623.884 655.011 628.31 656.025 632.474 658.986C636.638 661.948 639.763 666.218 640.074 671.96C640.118 672.641 639.637 673.394 639.286 674.032C638.936 674.671 638.431 674.863 638.146 675.39C627.506 694.409 609.086 704.279 594.408 718.539C587.588 725.144 579.672 730.403 572.648 736.833C570.206 739.113 568.457 742.141 567.609 745.56C566.527 751.246 563.665 756.254 559.496 759.754C558.275 760.907 557.416 762.445 557.028 764.175C564.379 761.122 568.474 755.303 570.202 747.029C570.741 744.4 571.957 742.028 573.714 740.182C583.734 730.505 595.782 724.393 608.528 719.95C629.279 712.692 650.107 705.63 671.146 699.252C702.576 689.726 735.173 686.08 768.039 684.492C813.9 682.282 859.756 680.002 905.96 682.993C981.216 687.897 1055.89 698.982 1128.88 723.816C1173.35 738.91 1217.03 757.354 1261.02 774.368C1273.59 779.241 1286.09 784.389 1298.6 789.462C1300.22 790.118 1301.74 791.076 1303.32 791.888C1306.91 791.713 1305.17 789.341 1304.67 787.463C1296.39 776.201 1288.13 764.896 1279.76 753.678C1278.52 752.069 1277.07 750.664 1275.46 749.515C1264.53 741.574 1253.65 733.51 1242.53 725.887C1235.36 720.924 1227.98 716.359 1220.41 712.21C1199.76 700.965 1179.84 688.068 1160.83 673.634C1158.34 671.87 1155.7 670.397 1152.94 669.241C1132.25 659.847 1111.52 650.556 1090.83 641.163C1083.84 637.991 1076.87 634.78 1070 631.242C1065.27 628.804 1060.78 625.797 1056.16 623.047L1056.65 621.835L1069.51 625.189L1073.38 626.979C1073.81 625.019 1075.16 622.625 1074.49 621.149C1073.26 618.127 1071.26 615.512 1068.73 613.626C1060.61 608.81 1052.31 604.362 1042.84 604.958C1041.1 604.932 1039.37 605.138 1037.7 605.572C1020.94 611.328 1003.85 610.832 986.502 605.896C974.359 602.449 962.25 598.734 950.059 595.723C944.332 594.336 938.529 593.521 932.723 593.291C901.129 591.797 870.102 586.01 839.894 573.895C835.075 571.786 830.421 569.209 825.992 566.196C823.756 564.466 821.669 562.51 819.764 560.357L820.16 558.845C826.135 558.32 832.131 557.862 838.106 557.282C849.065 556.191 860.416 556.479 870.869 553.585C884.13 549.899 896.657 543.62 909.51 538.45C910.328 538.198 910.997 537.516 911.82 537.28L981.236 516.627C987.855 514.586 994.629 512.937 1001.09 510.504C1004.41 509.224 1007.2 506.463 1010.22 504.378L1009.7 502.707C1007.8 502.241 1005.89 501.898 1003.96 501.678C965.907 499.724 927.876 497.689 889.817 495.992C876.358 495.665 862.966 492.114 850.601 485.593C838.07 478.789 825.719 471.544 813.377 464.333C798.068 455.021 780.867 450.492 763.788 451.278C753.979 451.74 743.766 449.711 733.755 448.497C722.515 447.09 711.248 447.928 700.514 450.969C696.788 452.118 695.324 455.168 695.614 459.177C695.905 463.187 698.876 464.375 702.006 464.252C723.481 463.376 743.795 472.613 764.642 476.963C778.486 479.849 790.002 490.517 801.02 499.783C799.573 503.212 798.756 506.319 797.141 508.72C795.315 511.406 796.134 513.148 798.292 514.55C800.588 516.01 803.106 516.97 805.697 517.372C805.143 516.989 804.633 516.531 804.182 516.01C803.039 514.185 802.006 512.289 800.934 510.423C803.099 509.591 805.305 507.923 807.43 508.146C810.563 508.461 813.627 510.169 816.743 511.185C817.706 511.403 818.681 511.519 819.654 511.532L820.036 510.243L803.975 504.417L804.383 502.351L815.973 504.707C802.98 494.842 790.592 485.596 778.294 476.267C774.784 473.598 771.676 470.567 766.858 470.808C761.698 471.079 756.494 470.713 751.345 469.717C747.188 468.931 743.165 466.859 739.085 465.354C739.188 464.773 739.291 464.193 739.409 463.607L761.985 466.894L762.105 465.668L722.158 457.581L724.87 460.405C724.46 460.577 724.034 460.709 723.598 460.797C719.108 460.974 714.613 461.298 710.117 461.294C707.214 461.216 704.31 460.812 701.451 460.086C698.179 459.265 698.287 456.816 700.081 454.836C701.449 453.525 703.105 452.606 704.911 452.157C713.772 449.425 722.919 449.935 732.16 450.801C745.544 452.035 758.943 453.156 772.319 453.716C781.968 453.818 791.596 456.215 800.526 460.738C808.932 465.247 817.323 469.869 825.415 475.023C841.531 485.279 858.38 493.607 876.407 497.418C886.099 499.48 896.179 498.44 906.08 498.974C932.607 500.408 959.133 501.891 985.658 503.424C987.396 503.469 989.107 504.107 990.549 505.246C985.875 505.955 981.237 506.837 976.531 507.336C944.421 510.811 912.604 516.174 881.218 523.402C874.499 525.273 867.302 524.864 860.571 522.229C856.439 520.502 852.089 519.629 847.223 523.911C857.77 525.088 866.948 529.303 876.538 527.535C902.154 522.821 927.749 517.985 953.425 513.307C959.109 512.268 964.861 511.611 970.634 511.021C972.334 510.884 974.056 511.442 975.463 512.588C973.52 513.333 971.618 514.212 969.639 514.841C951.14 520.636 932.672 526.477 914.112 532.072C911.446 532.894 908.363 532.417 905.475 532.411C896.933 532.41 888.385 532.392 879.822 532.269C874.425 532.194 869.022 531.939 863.072 531.742C863.322 532.123 863.838 533.903 864.674 534.14C867.072 534.762 869.512 535.096 871.948 535.136C878.58 535.397 885.216 535.51 891.882 536.309C889.476 541.095 885.612 536.522 882.627 539.163L891.968 540.784C888.984 543.534 886.563 545.58 882.213 543.628C873.922 539.871 865.283 537.136 857.929 534.426C862.179 541.863 870.675 542.574 879.448 543.913C875.058 547.535 871.427 547.703 863.756 546.171C862.404 546.679 860.943 547.807 859.718 547.544C857.839 547.153 856.066 545.815 853.511 545.651L856.532 551.143C852.19 549.06 848.858 547.452 845.516 545.866L844.9 546.824L846.339 550.041C839.395 546.454 837.65 546.553 835.13 549.837L818.604 549.443C818.347 549.522 817.881 549.409 817.771 549.59C814.851 554.699 809.04 553.014 804.896 555.389C801.664 557.402 797.974 558.476 794.161 558.513C790.349 558.551 786.535 557.551 783.068 555.605C782.211 555.137 781.284 554.874 779.058 554.005L782.907 559.333C778.383 562.357 775.011 556.534 770.98 556.532L770.277 558.232L779.525 561.327C776.232 564.85 776.072 565.247 767.856 561.137C764.488 559.468 761.947 555.639 759.145 552.844C758.072 559.048 761.55 562.313 776.934 570.032L763.626 572.488L763.681 572.343L772.718 576.693L772.521 577.614L764.932 578.124C770.015 579.814 773.824 580.872 777.56 582.337C782.877 584.357 787.473 587.588 789.888 593.486C790.401 594.774 789.86 596.514 789.803 598.051C788.328 597.517 786.315 597.498 785.464 596.406C779.389 589.129 775.121 585.724 766.689 582.907C768.733 584.071 770.72 585.359 772.639 586.764C775.678 589.045 778.538 591.605 781.184 594.413C782.151 595.506 781.851 597.868 782.135 599.702C780.242 599.48 777.088 599.903 776.623 598.931C772.497 590.285 764.206 588.303 757.635 583.613C756.767 583.002 756.489 581.349 756.339 579.895C752.089 576.869 751.993 576.935 749.868 583.062C754.264 584.945 758.724 586.662 763.025 588.777C765.449 589.998 767.716 591.586 769.754 593.491C770.763 594.869 771.545 596.419 772.061 598.068C770.415 597.954 768.775 597.663 767.165 597.199C765.479 596.376 763.849 595.41 762.293 594.309C763.769 596.782 763.089 598.236 760.524 598.148C758.944 598.072 757.382 597.595 755.965 596.755C755.428 596.542 754.978 596.116 754.709 595.566C754.44 595.017 754.373 594.386 754.523 593.81C754.673 593.233 755.028 592.754 755.512 592.476C755.997 592.197 756.572 592.141 757.118 592.318C758.945 592.845 760.733 593.549 762.461 594.422C754.895 587.422 746.142 585.071 735.945 584.976L738.17 587.62C733.801 589.589 725.598 587.837 719.583 583.122L728.776 585.502L729.126 584.754C727.987 583.696 726.818 582.648 725.724 581.576L725.157 582.318C722.264 582.24 719.401 582.263 716.471 582.068C709.329 581.818 704.874 576.732 700.91 570.763L705.685 572.639L682.625 549.867L683.835 548.414C692.632 550.478 695.657 560.287 701.487 566.339L702.463 565.362C700.501 561.941 698.536 558.508 696.568 555.065L697.815 553.729C699.705 555.342 702.236 556.556 703.391 558.634C706.876 564.879 710.444 568.006 717.377 569.62L706.022 559.689L707.198 557.588L728.009 568.812L728.393 567.962L710.847 556.134L713.319 550.541L716.905 551.411L717.422 549.916C714.195 546.336 710.328 543.045 705.627 543.561C703.794 543.823 701.908 543.63 700.108 542.997C698.308 542.364 696.64 541.308 695.228 539.905C694.43 539.272 693.462 538.965 692.507 539.043L696.651 543.017C693.215 546.181 691.052 542.071 688.186 541.381C688.225 542.101 688.28 542.816 688.421 544.511C685.645 543.848 683.073 543.306 680.424 542.567C677.288 541.704 674.194 540.224 671.014 539.539C668.381 538.96 666.5 538.241 666.517 534.851C666.439 533.531 666.079 532.232 665.463 531.058C662.67 538.836 656.417 537.708 650.832 537.399C646.617 536.89 642.418 536.145 638.251 535.167C633.715 534.388 629.12 534.011 624.613 533.003C621.207 532.044 617.842 530.882 614.533 529.523L614.034 530.647C616.687 532.197 619.444 533.507 622.275 534.566C625.38 535.438 628.667 535.34 631.857 535.894C635.046 536.447 638.055 537.276 641.139 537.972L641.019 539.84L627.152 538.333L627.077 540.295C632.219 540.833 637.316 541.494 642.502 541.907C648.311 542.404 654.119 542.626 659.928 543.177C661.901 543.688 663.83 544.424 665.681 545.374L660.188 546.226L665.969 548.836C660.846 552.556 657.585 551.878 655.854 547.123L648.977 547.414L649.027 547.416L651.823 549.867C640.833 554.393 628.529 554.587 616.978 550.418C615.113 549.748 612.902 550.376 610.847 550.222C604.518 549.758 598 550.084 591.901 548.323C588.795 547.451 586.281 542.846 583.759 539.671C580.358 535.548 577.171 531.227 574.213 526.731C567.865 516.903 562.012 506.795 555.78 496.913C550.631 488.766 545.249 480.781 540.019 472.695C538.795 470.862 537.656 468.965 536.609 467.013C534.682 463.067 532.053 459.546 528.883 456.666C525.713 453.785 522.069 451.606 518.174 450.262C517.045 449.921 515.958 449.406 514.949 448.731C494.555 433.316 474.482 417.491 456.958 398.153C455.94 397.141 455.208 395.836 454.859 394.409C456.707 395.669 458.584 396.755 460.342 398.098C470.84 406.109 481.311 414.159 491.756 422.248C504.056 431.728 516.341 441.214 528.611 450.704C527.85 449.419 527.099 448.114 526.338 446.829L527.177 445.729L536.791 452.756L536.05 454.174L531.183 452.106L540.78 463.165L547.202 461.185C546.73 460.086 546.517 458.962 545.998 458.518C538.934 453.145 531.821 447.829 524.66 442.571C517.875 437.563 510.889 432.873 504.278 427.573C497.186 421.891 490.464 415.637 483.526 409.706C481.485 407.827 479.109 406.441 476.569 405.648L483.357 411.845L482.488 413.009L434.393 371.77L435.423 375.112L434.48 376.354L416.882 362.639C416.982 364.31 417.028 365.211 417.108 366.815C406.948 363.396 396.963 359.741 386.841 356.768C376.719 353.796 366.201 351.421 355.868 348.788L356.639 347.36C355.567 345.968 354.399 344.663 353.147 343.46C352.138 342.761 351.021 342.284 349.862 342.057C324.016 334.765 298.163 327.486 272.304 320.222C268.874 319.267 265.351 318.706 261.903 318.068L261.703 319.41L265.821 321.306C264.775 321.431 263.72 321.493 262.661 321.494C241.257 319.694 219.824 320.868 198.439 316.281C192.772 315.063 186.806 316.208 181.037 315.735C171.771 315.312 162.505 314.351 153.279 312.857C136.616 309.65 120.192 311.146 103.696 311.493C96.0342 311.659 88.397 312.55 80.7789 313.234L80.1273 311.605C81.2488 310.76 82.4941 310.117 83.8187 309.698C113.469 306.074 143.533 305.593 173.59 308.26C197.207 310.457 220.905 313.617 244.433 313.536C266.581 313.551 287.207 320.733 308.37 326.431C313.091 327.702 317.822 328.897 322.553 330.092C339.764 334.429 357.013 338.461 374.145 343.189C384.53 346.044 394.693 350.12 405.019 353.323C410.527 355.046 416.232 355.959 421.809 357.478C423.267 358.123 424.647 358.979 425.91 360.02C426.712 360.523 427.504 361.047 428.346 361.465C430.975 362.439 433.527 363.674 435.969 365.153C452.456 377.527 468.867 390.01 485.201 402.602C496.514 411.375 507.582 420.534 518.81 429.461C529.677 438.078 540.655 446.514 551.492 455.195C553.656 456.834 556.344 458.128 555.374 461.922C555.226 462.462 556.147 463.514 556.773 464.144C558.591 466.078 560.514 467.894 562.529 469.579C574.316 478.974 582.733 491.64 591.507 503.959C593.946 507.238 595.771 510.984 596.872 514.97C597.972 518.956 598.326 523.099 597.91 527.146L602.174 522.684C602.092 526.131 602.049 528.359 602.001 530.569L602.911 531.314C606.131 527.393 607.466 521.986 610.504 517.261L611.374 520.085C614.164 519.664 616.924 519.472 619.566 518.786C621.387 518.453 623.063 517.582 624.412 516.267C628.034 511.874 628.336 511.726 632.807 516.112C637.892 511.085 638.241 511.088 644.235 515.79C648.058 512.05 649.677 512.191 654.195 516.892C657.46 513.762 660.919 514.489 664.554 517.888L665.917 511.978C669.339 513.449 672.558 514.853 675.808 516.248C678.995 517.709 682.316 518.738 685.693 519.312L671.554 511.594C681.69 500.088 709.205 502.071 720.991 514.852L716.411 515.276C719.071 517.878 721.685 520.439 724.315 522.995L723.473 524.353L711.31 520.088L710.614 522.242C725.344 526.118 736.903 536.278 748.762 545.852L749.521 544.978C748.889 543.895 748.135 542.897 747.278 542.009C742.137 537.867 737.059 533.558 731.677 529.82C727.031 526.586 726.861 526.895 726.919 520.307C730.226 520.971 733.472 521.709 736.727 522.26C746.215 523.873 755.712 525.428 765.219 526.926C765.565 526.992 765.917 526.974 766.247 526.872C766.578 526.77 766.878 526.587 767.127 526.337C769.388 521.889 771.761 522.968 774.451 526.311C775.016 527.016 776.18 527.187 777.691 527.892C776.814 525.583 776.233 524.023 775.365 521.747L789.501 524.233L789.804 523.225L780.742 520.035L784.053 517.056L783.885 515.973C782.314 516.256 780.325 516.046 779.106 516.934C771.898 522.176 763.551 523.56 755.037 524.136C751.983 524.11 748.925 523.598 745.96 522.616C740.778 521.304 735.661 519.771 730.524 518.226C729.387 517.956 728.321 517.361 727.439 516.505C716.753 504.172 703.132 500.558 689.03 501.247C663.021 502.532 637.763 497.382 612.864 488.444C596.215 482.555 580.443 473.722 566.21 462.314C560.225 457.48 553.317 454.065 547.271 449.305C533 438.041 519.06 426.236 504.823 414.815C496.612 408.197 488.337 401.855 479.786 395.909C466.97 387.051 458.809 373.922 451.039 360.397C448.603 356.152 445.727 352.153 448.915 346.943C449.426 346.127 447.625 342.491 446.152 341.482C442.944 339.305 440.147 337.496 438.529 333.218C437.594 330.725 434.315 328.644 431.725 327.558C430.371 326.987 428.228 329.02 426.617 330.358C423.337 329.888 420.004 324.62 416.33 329.541C415.041 331.138 414.278 333.168 414.15 335.335C414.022 337.503 414.537 339.697 415.62 341.6L420.083 339.29C420.535 339.736 420.967 340.006 420.947 340.158C419.921 346.514 423.13 349.55 428.276 351.824C430.67 352.916 432.546 355.504 434.645 357.418L435.645 356.14L423.86 345.354C424.008 344.501 424.276 343.684 424.655 342.931C426.224 340.435 425.622 338.589 423.261 337.011C422.204 336.419 421.223 335.667 420.35 334.779C419.829 333.923 419.444 332.983 419.212 332.001C420.211 331.693 421.682 330.599 422.074 330.954C423.909 332.657 426.393 334.527 426.922 336.779C428.97 345.627 434.283 352.315 439.221 359.777L437.202 363.126C436.827 363.095 436.504 363.177 436.291 363.023C419.295 352.013 400.28 348.763 381.844 343.304C361.761 337.345 341.599 331.667 321.476 325.794C309.358 322.211 297.255 318.623 285.212 315.016C273.222 311.464 260.893 309.973 248.685 310.596C239.401 310.934 230.039 310.856 220.75 310.316C197.142 308.793 173.457 307.935 149.905 304.711C124.602 301.35 100.392 306.802 75.6762 307.982C73.057 308.094 70.4605 308.657 67.8603 308.562C56.7247 307.951 47.5577 313.779 37.8849 317.804C27.4447 322.084 17.138 326.69 6.87207 331.374C5.1569 332.159 3.93382 334.11 2.50563 335.557L3.03963 336.966C4.63682 337.469 6.26985 337.788 7.91056 337.916C31.8542 337.085 55.3293 341.942 78.7329 348.451C97.1468 353.57 115.688 357.917 134.205 362.456C151.161 366.615 168.136 370.293 185.089 374.764C192.196 376.672 198.999 380.284 206.024 382.949C226.5 390.506 247.04 397.623 267.482 405.502C310.476 422.183 347.682 450.055 382.976 481.517C391.893 489.455 400.9 497.31 409.328 505.819C417.518 514.09 426.047 522.385 432.642 532.045C448.564 555.335 455.61 581.252 452.766 609.578C451.268 624.569 448.76 638.976 441.281 651.676C437.629 657.853 433.393 662.727 426.209 664.119C423.012 664.976 420.013 666.452 417.352 668.478C416.339 669.175 416.266 671.411 416.429 673.447C422.187 666.676 429.937 665.074 437.489 663.477C448.481 661.149 456.23 653.197 464.593 646.537C473.843 639.202 482.296 630.685 490.949 622.49C502.273 611.771 514.031 601.704 527.785 594.078C526.484 594.029 525.196 594.216 523.975 594.63C515.35 599.687 506.144 603.935 498.406 610.255C481.656 623.928 465.691 638.641 449.371 653.006L443.905 657.82L441.971 656.441C443.064 655.371 444.026 654.153 444.833 652.813C457.717 623.807 460.392 593.319 450.03 561.544C445.696 548.24 440.533 534.882 430.769 524.735C417.587 511.031 404.424 497.175 390.263 484.815C371.233 468.284 351.595 452.472 331.508 437.566C308.89 420.751 283.875 409.286 258.364 399.383C234.1 389.944 209.71 380.952 185.192 372.408C176.542 369.421 167.353 368.668 158.439 366.603C146.069 363.744 133.704 360.725 121.345 357.545C101.52 352.422 81.8198 346.95 62.03 341.779C46.6569 337.754 31.2041 334.815 15.4896 334.792C14.8027 334.748 14.1165 334.66 13.4347 334.529C13.3007 334.095 13.1616 333.644 13.0225 333.192C18.6194 331.064 24.093 328.589 29.8187 326.879C35.5445 325.168 41.8596 323.917 47.9523 322.697C53.875 321.384 59.9239 320.658 66.0264 320.528C68.1083 321.093 70.2852 322.344 72.2465 322.141C84.9982 320.57 97.5366 318.845 110.303 317.215C111.678 317.047 113.094 317.123 114.505 317.072L114.776 318.379L99.7831 321.666C114.592 321.711 128.627 315.371 143.714 318.094C143.859 318.562 144.003 319.029 144.147 319.497L136.192 323.982C157.122 319.888 178.301 320.148 199.605 322.216C199.655 322.914 199.72 323.608 199.784 324.302L169.74 326.758C169.794 327.309 169.832 327.864 169.881 328.398C174.786 328.167 179.595 328.111 184.428 327.701C189.63 327.25 194.758 326.346 199.965 325.856C205.172 325.367 210.053 324.576 215.135 324.436C220.217 324.296 225.187 324.759 230.225 324.962L230.469 326.882L210.521 329.592L210.722 330.244C227.271 329.258 243.819 328.219 260.393 327.317C277.569 326.376 293.43 333.6 309.514 339.822C285.429 338.098 261.818 339.523 238.978 346.785L259.073 343.425C276.283 340.552 293.589 339.279 311.171 343.099C311.885 343.303 312.621 343.349 313.336 343.236C321.54 341.439 322.962 341.641 331.873 346.872L320.328 347.083L320.303 348.024L333.481 349.45L333.544 350.73L322.697 351.97L322.795 353.202C338.247 352.482 353.679 352.5 368.991 356.489L369.04 358.048L349.885 357.842C362.163 360.919 374.764 357.839 386.831 363.835L383.354 364.395L383.253 365.249L390.19 366.66L385.847 368.713L404.533 370.143L399.957 375.69C400.9 376.168 401.91 376.643 403.669 377.51L398.038 378.88C409.118 380.331 420.44 374.608 431.057 383.759L415.795 383.268L415.776 384.281L430.11 388.004L430.144 389.458C414.374 392.106 397.974 391.746 383.39 399.207C400.778 395.676 417.696 387.605 436.473 396.967L424.425 399.529C434.543 400.069 444.878 394.101 454.359 404.408C442.671 404.535 430.816 402.719 419.564 406.627C432.926 406.497 446.37 402.974 459.493 409.815L459.47 411.085C456.645 410.748 453.802 410.564 451.002 410.036C446.547 409.059 441.999 409.273 437.759 410.661C433.67 412.031 428.867 411.298 424.376 411.366C416.668 411.491 408.965 411.469 401.228 411.604C399.592 411.6 398.022 412.141 396.73 413.155C400.977 412.944 405.219 412.606 409.472 412.521C422.328 412.363 435.233 412.044 448.091 412.16C452.741 412.075 457.415 412.809 461.931 414.334C466.432 416.02 470.477 419.348 474.389 422.461C468.543 423.622 466.809 422.73 466.364 419.189C448.584 417.15 430.892 416.255 413.486 420.268C418.664 420.062 423.852 419.78 429.046 419.679C434.573 419.585 440.115 419.267 445.656 419.755C450.956 420.348 456.217 421.515 461.359 423.239C456.419 428.733 449.412 425.752 442.706 428.533C449.363 428.603 454.778 428.361 460.213 428.826C465.712 429.327 471.178 430.477 476.513 432.255C471.524 437.27 465.302 430.002 460.205 433.806C460.585 434.768 460.944 435.664 461.647 437.405L432.95 438.367L433.034 439.823C447.134 440.581 461.265 436.974 475.955 441.851C472.07 446.141 467.091 444.785 462.853 445.89L462.898 445.767L484.65 446.38L484.579 445.395L488.109 448.991L472.804 455.138L482.027 455.734L482.136 457.11L474.988 458.563L475.076 458.848L510.063 459.351L510.359 461.711L494.274 464.951L494.191 465.489C495.314 465.581 496.438 465.729 497.581 465.724C498.724 465.72 499.892 465.579 501.055 465.532C507.036 465.298 508.234 466.868 506.592 473.377L510.919 474.714L506.612 476.884C508.005 477.312 509.378 477.83 510.722 478.435C511.979 479.197 513.194 480.046 514.358 480.974L493.796 483.306L493.949 485.199L513.312 485.542L513.809 486.834L509.25 490.929L520.714 491.366C505.897 497.106 489.941 494.742 474.785 497.713C496.234 498.529 517.328 493.618 538.922 496.786C521.226 503.194 501.938 499.973 484.157 505.73L505.463 503.607C505.628 504.142 505.702 504.705 505.827 505.325L496.528 507.442L496.737 508.714L535.921 502.762L536.27 504.484L526.243 507.576C534.407 506.889 542.977 509.132 550.827 502.851C549.985 509.643 547.753 511.118 542.008 511.261C531.733 511.611 521.432 511.823 511.262 512.946C502.204 513.909 493.299 516.014 484.357 517.728C480.341 518.4 476.455 519.653 472.801 521.456L484.493 519.461C497.125 517.396 509.534 515.034 522.144 513.433C528.911 512.815 535.732 512.674 542.564 513.011C544.847 513.288 547.111 513.816 549.32 514.588L549.162 516.064L526.519 517.94L526.63 518.839L550.347 521.682C549.184 525.39 547.624 525.871 545.046 525.147C542.395 524.227 539.638 523.836 536.912 523.995C520.861 526.327 504.874 528.969 488.85 531.494C487.79 531.634 486.841 532.208 486.194 533.1C487.801 532.934 489.429 532.835 491.107 532.574C503.786 530.659 516.511 528.034 529.367 527.017C534.903 526.572 541.037 525.486 546.769 529.282C548.332 530.319 550.992 529.316 553.141 529.239L564.362 528.835L565.29 530.232C564.296 531.417 563.423 533.535 562.295 533.644C548.227 534.981 534.137 536.031 520.058 537.17L519.661 535.883L529.341 532.258L529.202 531.807L503.665 539.681L504.059 541.389C525.444 537.047 547.136 537.037 568.911 538.156L569.096 539.508C567.504 539.724 565.943 540.041 564.315 540.14C557.798 540.521 551.134 540.105 544.789 541.366C537.258 543.067 529.927 545.53 522.89 548.722C536.119 549.182 547.483 538.431 561.537 544.418L553.863 545.943L553.987 546.344L570.446 546.521L570.654 548.433C563.02 554.447 552.878 551.572 544.456 554.919L544.53 556.287C545.713 556.251 546.891 556.254 548.059 556.168C549.54 555.935 551.06 555.973 552.556 556.282C547.237 564.529 537.441 563.907 529.568 569.464C541.099 566.677 550.788 561.091 561.752 560.877L562.646 562.431C560.909 563.79 558.957 566.606 557.468 566.242C554.166 565.43 552.169 566.485 549.838 568.393C545.607 572.111 541.083 575.428 536.309 578.31C531.272 581.126 525.648 582.787 520.33 585.067C520.012 585.165 519.863 585.705 519.081 586.88L533.272 581.37L534.137 582.347L530.514 588.241L530.997 588.787L552.839 569.572L553.744 570.464L552.457 573.661L563.467 567.301L564.597 570.32L571.342 566.319L581.341 564.48C578.114 570.691 571.909 572.677 567.517 576.831L568.044 577.895L577.961 572.403L578.507 573.205L572.936 578.967L573.385 579.615L600.208 562.195C600.153 563.2 600.371 564.176 600.039 564.498C594.662 569.706 589.868 576.052 583.617 579.663C576.831 583.585 571.675 589.347 565.54 593.928C564.933 594.563 564.374 595.249 563.868 595.981C576.607 592.218 584.541 582.068 594.145 574.861L595.379 576.658L583.033 589.926L583.858 590.934C584.759 590.198 585.68 589.475 586.5 588.746C594.519 581.882 602.435 574.903 610.606 568.267C612.499 566.713 615.218 566.332 617.574 565.422C617.968 566.216 618.362 567.009 618.746 567.824C616.786 569.161 614.987 571.07 612.815 571.721C609.264 572.831 606.177 575.125 603.976 578.289C596.947 587.337 589.536 596.009 582.135 604.714C579.417 607.894 576.062 607.501 571.24 603.645L579.781 596.217L578.878 594.903L565.715 603.317L564.571 599.607L563.383 599.626L557.46 599.622C558.532 597.76 559.718 595.982 561.011 594.3C563.903 591.289 566.643 588.111 569.221 584.778C561.936 588.049 559.112 598.472 550.3 598.993C549.948 598.443 549.575 597.881 549.218 597.314L561.801 586.426L560.908 585.036C554.122 590.788 547.209 596.287 537.882 597.021C539.812 597.579 541.772 598.073 543.703 598.685C554.191 601.984 564.714 605.181 575.168 608.692C579.333 610.098 582.354 608.544 584.907 605.689C587.46 602.834 589.217 599.547 591.705 596.859C594.14 594.502 596.701 592.302 599.376 590.266L601.04 592.004L594.163 601.28L595.064 602.264C598.344 599.176 601.416 595.838 604.258 592.275C607.268 587.998 610.721 585.048 615.775 584.386C616.199 584.292 616.614 584.164 617.017 584.003C624.534 581.485 624.534 581.484 627.095 589.79C631.617 587.188 629.611 582.243 630.003 578.243C630.305 575.24 630.695 572.686 634.546 572.267C636.465 581.447 636.492 591.65 647.11 597.197C646.823 595.723 646.379 594.281 645.785 592.902C644.51 590.916 642.806 589.209 641.591 587.205C640.718 585.772 639.548 583.754 639.844 582.455C640.941 578.153 642.285 573.943 643.869 569.85C644.049 569.355 645.06 569.245 646.22 568.704C647.967 578.029 645.014 588.949 655.829 594.49C654.886 592.347 653.933 590.225 652.883 587.84L657.339 586.155L657.253 585.23C656.289 585.185 655.326 585.207 654.371 585.296C652.415 585.624 650.127 586.055 650.084 582.958C650.261 581.01 651.136 579.256 652.524 578.069C653.732 577.038 655.735 577.079 657.71 576.653C660.726 586.703 664.631 595.71 674.634 598.994C670.849 594.25 666.797 589.717 663.34 584.689C658.882 578.14 659.296 567.216 665.26 559.393C666.429 557.807 666.429 555.007 667.155 551.928L670.195 552.052C667.748 557.51 670.328 560.392 674.141 562.859C674.618 563.189 675.031 563.622 675.35 564.129C675.67 564.637 675.889 565.207 675.993 565.801C676.407 573.597 680.263 579.27 685.681 584.096L685.713 584.251ZM627.155 700.318L607.766 712.371L606.933 710.798C613.148 706.21 619.542 701.933 627.282 700.352L633.265 694.206L628.085 695.804L627.431 694.651L638.124 685.864C637.894 684.526 637.57 682.613 637.23 680.65L638.434 679.931C640.176 682.084 641.924 684.254 643.741 686.383L644.876 685.759C643.738 683.535 642.788 681.212 642.039 678.82C641.896 676.956 642.022 675.096 642.413 673.306C643.844 674.128 645.591 674.632 646.645 675.844C648.232 677.947 649.677 680.169 650.967 682.49L652.503 681.339C649.428 676.639 646.358 671.919 643.293 667.179L644.466 666.195C646.683 668.468 648.777 670.878 650.738 673.411C652.559 675.979 653.8 678.982 655.428 681.682C657.057 684.382 658.801 686.864 660.586 689.589C657.94 675.948 649.65 666.921 639.953 658.657C641.561 657.85 643.029 657.177 644.125 657.663C650.681 660.347 656.153 665.645 659.376 672.431C662.337 679.021 668.135 682.064 671.405 687.881L672.558 686.886C666.225 677.859 659.897 668.83 653.574 659.8C659.903 661.82 666.004 664.66 668.375 671.706C670.561 678.205 676.244 680.497 679.736 685.258C679.096 683.725 678.181 682.332 677.047 681.164C675.896 679.69 674.183 678.278 673.881 676.651C672.95 671.32 669.79 667.848 666.27 664.449C664.363 662.622 662.597 660.605 660.775 658.678L661.72 657.654C676.464 659.477 680.933 675.154 690.542 684.049C685.308 674.335 680.276 664.578 671.442 657.713C678.364 657.408 682.725 662.03 687.01 666.729C692.424 672.562 698.06 678.144 703.834 684.068C703.886 683.375 704.17 682.574 703.94 682.315C696.712 674.04 689.427 665.8 682.163 657.573C684.182 656.804 686.168 656.466 687.382 657.391C691.49 660.548 695.441 663.949 699.214 667.577C704.299 672.451 709.148 677.58 714.647 683.149C714.944 678.464 712.277 677.128 710.026 675.424C707.776 673.721 704.827 672.818 703.991 670.752C701.673 665.007 697.41 661.674 693.167 658.078C691.846 656.799 690.603 655.427 689.446 653.973L690.27 652.987C698.059 655.6 703.009 662.619 708.578 668.789C707.949 661.37 701.507 658.928 698.156 653.978L699.109 652.659L713.08 663.704C710.997 655.764 702.877 655.249 698.564 648.417C710.134 647.155 714.722 658.806 723.852 663.512C719.192 655.067 712.1 651.27 706.816 645.269C715.847 647.663 722.359 655.28 730.236 660.007C725.223 652.732 717.972 648.746 711.072 643.956C712.738 640.807 714.651 640.181 717.586 642.167C725.369 647.398 733.238 652.475 741.198 657.688C735.911 648.503 726.391 645.546 718.82 639.445C719.429 639.107 720.102 638.914 720.798 638.876C721.494 638.837 722.197 638.955 722.865 639.222C728.357 642.689 733.824 646.274 739.267 649.975C741.462 651.625 743.562 653.422 745.554 655.357C751.823 661.055 758.036 666.788 764.274 672.495C758.973 665.255 753.51 658.082 746.889 652.639C740.268 647.196 732.433 643.409 725.134 638.889L725.436 636.856C727.195 636.698 729.168 635.888 730.664 636.543C734.06 638.114 737.342 639.992 740.472 642.156C749.422 648.052 758.303 654.098 767.228 660.074L768.245 658.26L735.992 634.351C737.543 633.62 739.196 633.147 740.901 632.947C742.789 633.174 744.64 633.79 746.353 634.762C753.475 638.494 760.543 642.372 767.625 646.191L767.096 647.488C763.271 645.52 759.443 643.559 755.612 641.605L754.764 643.697L784.168 658.639L783.704 659.661C781.421 657.638 778.206 656.086 777.018 653.524C774.437 647.951 770.102 645.189 765.565 642.416C761.505 640.008 757.346 637.813 753.386 635.192C751.148 633.37 749.045 631.356 747.1 629.169C753.533 628.192 758.023 630.596 762.244 633.796C766.175 636.756 769.856 640.141 773.818 643.037C776.343 644.671 778.948 646.147 781.617 647.458L782.146 646.27L762.81 631.975C771.254 633.378 776.548 641.994 784.876 644.367C783.659 641.979 782.652 640.002 781.173 637.091L787.376 639.241C786.691 631.638 780.576 638.703 778.619 634.347L781.128 632.585C776.825 630.252 773.066 628.282 769.428 626.11C766.084 624.14 761.679 624.272 759.415 620.047C775.588 622.472 787.717 634.158 801.04 643.263L802.292 639.308C814.031 643.868 823.475 652.119 833.656 659.154C827.852 649.635 815.836 646.441 812.064 633.239C816.453 635.637 820.155 637.423 823.658 639.637C827.16 641.851 830.64 644.639 834.144 647.127C837.648 649.615 840.878 651.859 844.259 654.22C837.119 642.734 823.263 640.455 816.228 629.045L817.659 626.317C818.466 627.693 819.44 628.951 820.553 630.054C824.348 632.892 828.077 636.756 832.261 637.9C839.915 639.968 846.075 644.4 852.128 649.506C855.482 652.315 858.941 654.981 862.34 657.721C855.218 646.888 844.329 641.48 834.802 633.877C835.841 633.362 837.038 633.285 838.17 633.662C844.753 636.939 851.793 639.49 857.705 643.87C869.793 652.843 885.221 655.754 894.099 670.455L895.56 668.413C891.938 664.735 888.652 660.533 884.649 657.504C878.914 653.16 872.578 649.77 866.622 645.732C863.454 643.58 860.551 640.943 856.781 637.915C863.095 636.444 867.224 639.508 871.632 641.754C876.821 644.381 882.219 646.504 887.518 648.842L887.723 648.376L866.515 636.616L866.997 635.223C874.568 633.309 881.339 637.571 888.502 640.413C888.343 639.2 888.242 638.334 888.062 636.889C904.806 646.22 919.465 659.066 936.69 666.729C930.906 661.125 924.852 655.861 918.559 650.964C917.406 650.02 915.455 648.59 915.557 647.736C915.967 644.334 913.577 643.735 911.795 642.637C908.669 640.728 905.403 639.118 902.297 637.221C900.267 636.017 898.31 634.352 896.339 632.91L896.94 631.846C905.675 636.235 914.684 640.063 923.073 645.162C931.463 650.261 939.252 656.643 947.307 662.486L947.999 661.449C943.928 658.037 939.868 654.605 935.782 651.198C933.419 649.237 929.997 647.822 928.845 645.267C926.284 639.652 921.974 636.918 917.422 634.15C916.397 633.514 915.461 632.686 914.471 631.949L915.206 630.405L932.584 639.32C930.549 635.409 926.895 634.157 923.622 632.311L913.323 626.612L914.041 624.798C923.348 624.857 930.228 633.294 939.175 635.952L936.312 628.764L937.181 627.6C939.815 628.719 942.369 630.074 944.816 631.651C948.3 634.236 951.58 637.452 954.87 640.427C961.818 646.556 968.777 652.608 975.731 658.809C976.361 659.441 976.948 660.123 977.487 660.847L978.364 659.333C972.637 650.119 963.435 645.398 956.061 638.321C948.326 630.879 939.415 626.508 930.144 621.992C931.542 620.964 933.282 620.578 935.003 620.915C939.322 622.548 943.496 624.628 947.74 626.503C952.663 628.645 957.587 630.787 962.555 632.915C965.906 634.316 969.357 635.448 972.648 636.976C974.857 638.166 977.012 639.481 979.104 640.915L979.614 639.824L973.034 634.625L973.479 633.591L982.934 636.715L981.467 634.056L981.964 633.354L999.143 642.696L999.762 641.261L973.373 625.609L974.186 623.674L1023.39 648.762L1023.76 647.933L993.638 629.041L994.586 626.735C997.373 627.71 1000.11 628.857 1002.79 630.17C1005.29 631.541 1007.41 633.797 1009.91 635.185C1012.41 636.573 1014.76 638.265 1016.3 634.112C1016.59 633.328 1018.66 632.781 1019.66 633.075C1022.13 634.069 1024.55 635.224 1026.9 636.535L1026.52 637.128L1018.12 636.773L1017.77 638.71L1072.68 666.503L1072.99 665.949L1031.88 640.197L1032.44 638.945L1061.6 652.242L1061.99 651.134L1043.63 640.967L1044.18 639.753C1052.33 641.284 1058.89 646.471 1065.26 652.027C1066.97 653.811 1068.79 655.458 1070.71 656.953C1077.26 661.027 1083.95 664.82 1090.58 668.762C1091.75 669.46 1092.75 670.417 1093.99 671.113C1095.23 671.81 1096.15 672.187 1097.23 672.732C1086.87 661.781 1072.53 657.198 1063.03 645.141C1068.92 647.709 1074.67 650.727 1080.21 654.172C1087.05 658.466 1093.54 663.529 1100.5 667.549C1105.46 670.377 1111.06 671.613 1116.14 674.311C1120.08 676.687 1123.88 679.335 1127.52 682.238L1126.58 677.898C1129.59 680.338 1133.47 682.199 1133.42 683.66C1133.16 690.494 1138.45 690.124 1141.9 692.226L1139.11 688.565L1139.96 687.427L1152.47 696.559L1152.9 696.062C1151.95 694.526 1150.96 692.835 1149.56 690.597C1166.72 696.706 1180.07 709.17 1195.49 717.279L1163.47 692.566L1164.39 690.944L1197.51 713.563L1197.94 712.863L1195.21 708.214C1197.88 709.698 1199.36 710.413 1200.73 711.308C1206.21 714.926 1211.36 719.468 1217.16 722.107C1236.48 730.972 1253.55 744.357 1271.28 756.348C1272.67 757.28 1273.92 758.436 1275 759.774C1280.04 766.217 1284.97 772.748 1289.92 779.257C1290.87 780.519 1291.7 781.873 1293.23 784.129C1290.36 783.072 1288.69 782.49 1287.03 781.832C1260.71 771.3 1234.34 760.984 1208.11 750.189C1149.95 726.25 1090.76 707.061 1029.99 695.622C981.744 686.579 933.151 681.271 884.588 679.738C840.847 678.358 797.191 679.366 753.787 682.756C716.336 685.666 679.472 691.287 644.29 704.733C635.655 708.036 626.779 710.718 617.949 713.495C614.662 714.509 611.226 715.038 607.856 715.784L607.537 714.748L630.489 700.479L629.875 699.296C628.942 699.657 628.069 699.999 627.155 700.318ZM1049.93 635.638L1045.64 634.106C1042.5 632.969 1039.4 631.253 1036.2 630.775C1016.88 627.876 997.527 625.353 978.19 622.513C966.299 620.69 954.473 618.7 942.622 616.736C941.838 616.527 941.071 616.236 940.331 615.869L940.377 615.049L945.274 614.418L945.003 612.946C940.281 614.146 934.765 610.082 930.66 615.703C930.218 616.315 928.699 616.875 928.409 616.58C924.736 612.9 922.531 614.732 920.629 618.247C920.429 618.62 919.554 618.578 919.013 618.654C912.091 618.958 905.137 618.998 898.278 619.722C892.556 620.315 886.945 621.752 881.271 622.825L881.546 624.039L911.989 619.703L912.236 621.365C897.971 627.173 883.241 629.537 867.758 626.662L867.507 625.202L871.407 624.293C867.97 623.907 864.103 622.555 863.447 628.01C863.358 628.278 863.208 628.515 863.009 628.698C862.811 628.88 862.57 629.003 862.309 629.056C857.378 629.899 852.45 631.455 847.507 631.186C843.121 630.946 838.713 628.755 834.355 627.208C832.722 626.742 831.205 625.828 829.955 624.557C825.907 619.711 822.1 614.627 818.273 609.585C817.891 609.099 817.871 608.282 817.538 606.609L823.864 610.99L820.544 605.28L821.645 604.062L844.551 626.278C842.467 622.639 841.012 620.178 839.632 617.694L840.571 616.544L845.632 620.748C845.794 620.033 845.762 619.272 845.54 618.553C845.319 617.834 844.916 617.187 844.38 616.687C840.651 614.643 836.821 612.841 832.914 611.292C831.395 610.675 830.005 609.7 828.85 608.44C827.694 607.18 826.803 605.668 826.242 604.017C824.642 600.118 822.457 596.473 820.115 591.944C822.416 585.744 824.628 585.062 828.64 590.706L828.964 585.464C834.895 585.008 833.82 591.799 838.208 594.947C837.06 590.47 836.227 587.177 835.218 583.206C841.397 586.461 844.723 591.493 847.753 596.963C850.16 601.327 851.803 605.578 849.012 610.245C848.482 611.704 848.148 613.248 848.022 614.832L852.942 611.961L855.451 620.099C860.331 619.034 859.344 614.434 860.16 611.327C872.384 608.528 884.246 605.145 896.373 603.218C908.233 601.391 920.324 600.902 932.335 599.833C929.053 598.727 925.665 598.143 922.28 598.103C918.932 598.001 915.675 598.199 912.373 598.248L912.32 596.946C921.805 596.346 931.285 595.729 940.785 595.178C941.514 595.24 942.234 595.432 942.918 595.747C973.735 605.697 1005.07 612.36 1036.53 618.268C1041.29 619.152 1045.95 620.731 1050.38 622.963C1073.03 634.461 1095.55 646.329 1118.17 657.913C1125.02 661.434 1131.88 665.871 1139.07 667.405C1150.22 669.813 1160.84 675.026 1170.04 682.617C1186.35 695.776 1204.56 705.13 1222.21 715.61C1228.97 719.636 1235.55 724.068 1242.19 728.351C1244.76 730.011 1247.27 731.762 1249.77 733.555C1253.77 736.437 1257.76 739.399 1261.76 742.319C1250.44 736.478 1239.48 730.266 1228.56 723.991C1206.6 711.419 1184.8 698.799 1162.9 686.263C1160.6 685.09 1158.13 684.402 1155.64 684.237C1148.65 683.503 1138 678.223 1134.45 673.075L1147.29 679.255L1147.84 677.658C1114.91 662.62 1081.98 647.594 1049.05 632.578C1048.87 632.487 1048.61 632.714 1048.34 632.798L1049.93 635.638ZM570.196 642.487C566.206 647.139 564.894 646.811 561.386 643.611C559.061 641.414 556.186 640.049 553.186 639.716C543.464 639.548 533.44 638.778 524.135 640.768C509.052 644.028 494.403 649.131 479.661 653.768C467.372 657.648 455.458 662.475 444.687 669.931C444.215 670.179 443.703 670.337 443.172 670.398L442.424 669.531C443.004 668.498 443.733 667.576 444.583 666.798C447.47 664.864 450.49 663.146 453.52 661.407C457.76 659.02 461.109 653.742 467.197 656.275C467.846 656.55 468.859 655.854 469.636 655.523C473.928 653.303 478.103 651.082 482.767 648.565L476.009 650.154C477.039 648.466 478.428 647.08 480.067 646.103C482.329 644.509 485.191 643.407 486.695 641.186C490.748 635.234 496.843 632.568 502.535 629.404C514.49 622.936 527.964 621.984 541.228 620.73C543.714 620.374 546.277 620.693 548.69 621.66C551.103 622.627 553.291 624.211 555.062 626.273L542.269 625.881L567.026 633.015L567.373 632.524L560.866 627.558C565.72 626.574 567.901 630.202 570.386 633.26C571.96 635.19 572.797 638.281 576.184 637.109C576.532 637.001 578.729 639.984 578.456 640.928C577.687 643.489 573.002 643.25 570.952 641.229C568.895 638.902 566.453 637.017 563.769 635.685C554.118 631.981 544.32 628.982 534.077 629.651C528.146 630.053 522.189 630.151 516.268 630.586C513.981 630.899 511.722 631.369 509.504 631.994C510.03 632.384 510.618 632.658 511.232 632.799C511.846 632.94 512.473 632.946 513.075 632.815C529.564 630.347 546.035 629.972 562.265 637.1C565.037 638.646 567.691 640.449 570.196 642.487V642.487ZM793.213 569.624C799.758 560.835 807.22 555.88 817.686 561.419C819.77 562.487 821.561 564.164 822.848 566.251C824.135 568.338 824.864 570.748 824.95 573.197L819.808 570.939C823.476 579.983 822.839 583.674 818.083 583.365L814.253 595.526C812.829 592.305 812.116 590.695 810.856 587.9C808.921 597.06 803.268 599.115 797.609 600.182C794.017 595.526 791.158 590.881 787.421 587.312C783.683 583.743 778.894 581.175 774.623 578.082C785.916 577.052 793.055 581.109 801.934 593.231C802.081 592.681 802.119 592.099 802.046 591.52C801.973 590.941 801.791 590.378 801.511 589.866C799.855 587.784 797.995 585.901 795.966 584.256C792.039 581.258 787.922 578.556 783.88 575.722L784.215 574.118L794.614 576.859L789.972 573.368L790.451 572.232L796.617 574.21L796.973 573.588L793.213 569.624ZM599.236 688.687C600.234 687.135 601.986 685.662 602.057 684.011C602.403 675.505 605.399 666.822 599.894 658.491C599.318 657.644 599.487 656.256 599.299 655.107C600.356 655.092 601.86 654.591 602.369 655.166C604.771 657.695 606.928 660.485 608.799 663.486C610.015 665.6 609.976 668.485 611.035 670.739C615.528 679.93 614.346 690.03 607.553 696.132C597.066 705.551 586.509 714.869 575.883 724.087C574.153 725.345 572.32 726.436 570.404 727.35L569.369 725.931L576.955 713.307C581.524 705.695 586.53 698.369 590.562 690.41C593.848 683.907 595.93 676.512 593.964 668.683C593.331 666.654 593.195 664.509 593.57 662.465C593.945 660.422 594.817 658.552 596.098 657.045C597.658 659.254 599.06 661.274 600.789 663.651L597.004 664.232C602.285 672.43 600.068 680.196 599.266 688.678L599.236 688.687ZM560.169 463.646L560.589 462.912C561.002 463.038 561.402 463.216 561.781 463.442C591.912 486.12 625.102 497.956 660.638 501.583C663.204 501.835 665.752 502.514 668.309 503.006C655.642 506.198 643.173 504.169 630.766 499.595C630.699 500.238 630.652 500.893 630.569 501.485L644.998 505.729C644.915 506.321 644.817 506.919 644.72 507.516L625.157 503.245L625.021 504.257L640.772 508.862L640.461 511.08C634.913 510.247 629.355 509.381 623.807 508.603C621.524 508.3 618.987 506.795 617.53 510.355C617.241 511.085 614.56 511.106 613.197 510.611C608.043 508.742 602.903 506.758 597.897 504.349C595.61 502.998 593.448 501.395 591.447 499.567L592.328 498.015L610.444 505.769L610.9 504.183C604.391 501.633 597.948 499.027 591.369 496.572C588.496 495.536 588.052 493.935 589.036 490.996C598.641 494.604 607.406 500.868 617.681 501.269L601.184 494.46L601.536 493.071L622.348 500.159C621.606 498.668 621.523 498.236 621.33 498.149C620.245 497.642 619.12 497.275 618.04 496.784C608.187 492.319 598.29 487.978 588.522 483.304C585.353 481.793 582.949 477.977 578.786 479.7C578.024 480.027 576.461 479.1 575.617 478.298C570.391 473.505 565.279 468.548 560.169 463.646ZM829.14 572.746C855.163 583.662 881.989 589.811 909.246 593.539L908.975 595.782L876.327 590.276C878.521 591.627 880.881 592.598 883.318 593.153C885.724 593.856 888.126 594.653 890.533 595.411L890.033 597.395C868.149 594.737 848.655 583.748 829.14 572.746ZM875.124 602.889C868.497 608.025 862.286 606.17 856.075 603.511C852.997 602.19 849.813 600.793 852.573 596.941C850.511 595.093 848.53 593.139 846.638 591.086C845.976 590.283 846.028 588.785 845.748 587.608C846.878 587.164 848.086 586.959 849.31 587.004C851.868 587.661 854.368 588.83 856.907 589.694C863.632 591.976 870.356 594.313 877.121 596.454C881.696 597.898 886.361 599.095 890.97 600.327L890.832 601.76L870.879 599.879L870.835 601.082L875.124 602.889ZM743.194 598.643L743.288 596.418C745.575 596.573 748.026 596.183 750.104 597.006C762.425 601.995 775.618 603.082 788.09 600.134C789.636 599.768 791.456 600.615 793.152 600.898C791.966 602.16 790.891 604.322 789.536 604.501C782.587 605.473 775.54 605.962 768.583 606.479C768.002 606.53 767.269 605.713 766.689 605.233C765.648 604.328 764.743 602.74 763.644 602.512C758.333 601.423 752.937 600.762 747.581 599.852C746.133 599.566 744.689 599.024 743.24 598.629L743.194 598.643ZM754.969 610.31L754.989 609.353C753.936 609.11 752.596 608.261 751.875 608.721C748.063 610.72 744.684 608.962 741.465 606.806C740.337 605.716 739.38 604.432 738.637 603.012C740.074 602.295 741.482 600.836 742.753 601.084C744.642 601.454 746.326 603.203 748.197 604.054C750.515 605.169 752.881 605.904 755.252 606.709C758.581 607.824 761.925 608.824 766.267 610.157C763.871 611.854 761.36 613.362 758.752 614.67C756.495 615.548 754.093 615.985 751.653 615.962C750.667 615.937 749.639 614.058 748.637 613.013C749.431 612.178 750.324 611.46 751.295 610.876C752.503 610.527 753.751 610.333 755.015 610.296L754.969 610.31ZM769.184 616.175L769.884 614.623C786.025 619.066 800.958 628.221 813.019 641.069C806.712 638.366 800.634 635.116 794.567 631.845C794.207 631.645 793.688 631.146 793.686 630.817C793.761 627.134 790.88 626.559 788.745 625.552C783.07 622.8 777.28 620.376 771.55 617.769C770.74 617.302 769.964 616.764 769.23 616.161L769.184 616.175ZM1050.48 613.162C1052.35 615.294 1053.55 618.821 1051.02 619.289C1048.07 619.832 1042.42 618.282 1041.67 616.28C1040.26 612.507 1038.27 613.376 1036.39 613.297C1033.65 613.173 1030.92 613.921 1028.18 613.889C1025.43 613.858 1022.16 613.349 1019.12 613.022L1019.06 611.688C1019.85 611.111 1020.71 610.664 1021.63 610.362C1027.15 609.413 1032.64 608.03 1038.21 608.031C1040.35 608.03 1042.71 611.219 1044.77 613.147C1045.84 614.248 1046.82 615.437 1047.72 616.702L1050.48 613.162ZM350.083 344.441L349.537 346.439C328.96 338.876 307.199 336.619 287.011 327.143L287.291 325.794L350.083 344.441ZM638.204 563.417C638.622 564.13 639.041 564.842 639.445 565.56L616.062 578.808C615.822 578.352 615.576 577.878 615.321 577.426C620.386 567.978 630.189 567.334 638.219 563.412L638.204 563.417ZM901.683 631.573L902.261 630.059C911.367 630.381 918.452 635.662 925.049 642.101L924.58 643.27L901.683 631.573ZM910.91 649.663L888.92 633.807C898.275 635.369 905.914 640.022 910.91 649.663ZM429.26 331.831C430.993 331.425 432.551 330.615 432.948 331.041C434.582 332.789 436.849 334.871 437.058 336.948C437.45 340.908 436.603 344.938 436.247 349.001C431.457 344.549 430.896 341.922 433.524 336.244L429.26 331.831ZM489.437 453.944C491.417 452.619 492.662 451.009 493.841 451.122C501.336 451.867 508.838 452.957 516.32 454.091C517.205 454.22 518.031 455.283 518.955 455.968L489.437 453.944ZM603.36 557.892L584.298 566.972C588.014 559.605 596.699 555.225 603.386 557.976L603.36 557.892ZM1265.13 745.452C1276.41 750.355 1281.3 761.107 1287.59 770.351C1280.33 762.414 1273.02 754.31 1265.18 745.603L1265.13 745.452ZM519.446 484.62L518.855 482.972C520.674 481.606 522.336 479.575 524.387 479.126C525.503 478.873 527.262 481.24 528.725 482.436C527.715 483.571 526.836 485.507 525.678 485.681C523.582 485.642 521.484 485.285 519.446 484.62V484.62ZM477.2 436.636L489.936 440.285L489.68 441.553C479.952 443.894 478.017 443.319 477.2 436.636ZM647.965 576.73C648.353 570.352 651.439 569.547 654.711 569.398C655.244 569.528 655.75 569.79 656.185 570.165C656.62 570.539 656.974 571.015 657.216 571.554C657.514 572.249 656.962 574.066 656.397 574.277C653.894 575.195 651.267 575.822 647.965 576.73ZM587.534 557.776L587.51 558.991L576.514 562.382L575.636 560.987C577.124 559.358 578.368 556.723 580.141 556.341C582.394 555.848 585.067 557.201 587.534 557.776ZM528.117 492.029C531.58 486.369 537.486 486.213 541.765 491.481L528.117 492.029ZM751.264 591.085C743.783 594.527 740.385 594.696 737.956 591.767C748.445 588.13 748.445 588.13 751.264 591.085ZM609.966 575.93L611.01 577.054C609.108 583.313 604.651 587.524 599.771 586.869L609.966 575.93ZM556.173 559.083C557.205 556.992 558.951 555.446 561.061 554.755C563.17 554.064 565.487 554.279 567.547 555.357C565.59 558.906 564.509 559.276 556.158 559.033L556.173 559.083ZM805.885 608.409C807.957 610.771 809.738 611.924 809.755 612.998C809.51 614.975 808.978 616.88 808.178 618.645C806.802 617.624 804.546 616.764 804.261 615.516C803.857 613.829 805.009 611.808 805.885 608.409ZM799.323 624.138C801.586 623.575 803.996 623.818 806.204 624.831C808.412 625.844 810.305 627.575 811.61 629.774C807.453 628.073 802.456 628.973 799.323 624.138ZM419.999 374.415C419.977 374.989 419.964 375.541 419.937 376.099L404.548 374.604L404.6 372.996C409.774 373.102 414.992 370.981 419.999 374.415ZM72.7367 320.288L72.3873 318.456L92.8895 315.447L93.1775 317.188L72.7367 320.288ZM537.514 476.89C540.534 481.302 539.911 483.964 536.919 485.18C536.101 485.432 534.483 483.68 533.224 482.824L537.514 476.89ZM522.142 469.424L523.028 472.298L517.007 475.472L515.78 470.361L522.142 469.424ZM705.899 556.818C703.778 554.727 701.836 552.892 700.034 550.922C699.827 550.622 699.689 550.276 699.632 549.913C699.575 549.551 699.602 549.184 699.709 548.845C699.913 548.559 700.174 548.329 700.474 548.17C700.775 548.011 701.107 547.927 701.449 547.924C704.362 547.959 707.08 552.794 705.833 556.765L705.899 556.818ZM612.005 511.693C605.886 514.549 601.84 512.887 600.22 507.201L612.005 511.693ZM518.474 468.286C516.44 466.479 514.868 465.737 514.365 464.429C514.128 463.66 515.385 461.388 516.199 461.283C516.885 461.241 517.579 461.382 518.222 461.694C518.864 462.007 519.436 462.48 519.886 463.074C520.271 464.053 519.163 465.786 518.474 468.286ZM625.366 557.933L625.76 559.641C623.151 560.647 620.578 561.77 617.907 562.575C617.256 562.776 616.275 561.907 615.438 561.506C615.869 560.806 616.176 559.65 616.762 559.506C619.545 558.904 622.446 558.467 625.301 557.935L625.366 557.933ZM1054.93 610.452L1054.71 612.242L1045.61 609.905C1050.67 606.241 1052.43 606.576 1054.93 610.452ZM791.621 618.15C792.488 616.349 793.53 614.661 794.729 613.111C794.95 612.86 796.759 614.315 797.718 614.898C796.903 616.642 795.987 618.324 794.975 619.934C793.801 619.454 792.663 618.861 791.576 618.164L791.621 618.15ZM1124.54 668.832L1123.84 670.876L1112.41 665.67L1112.97 664.018L1124.54 668.832ZM815.352 617.22L816.887 615.044L825.59 622.719L824.637 624.092L815.352 617.22ZM532.448 616.301C530.449 620.577 526.977 621.849 522.36 619.411L532.448 616.301ZM574.711 651.159L570.288 648.863C570.903 647.631 571.262 645.946 572.235 645.335C572.835 644.967 574.788 646.03 575.34 646.958C575.891 647.886 575.09 649.267 574.736 651.188L574.711 651.159ZM617.642 676.351L619.926 676.927L618.412 685.464L616.376 684.939L617.642 676.351ZM488.511 431.574L487.875 433.601L479.753 430.066L480.314 428.283L488.511 431.574ZM443.884 349.08L446.806 358.555C443.974 356.042 441.254 353.459 443.93 349.175L443.884 349.08ZM650.892 557.821L651.491 559.174L643.297 561.7L642.864 560.296L650.892 557.821ZM497.594 441.236C499.165 442.728 500.56 443.487 500.585 444.211C500.419 445.62 500.035 446.975 499.449 448.221C498.586 447.627 497.131 447.106 496.991 446.436C496.956 444.666 497.159 442.914 497.594 441.236V441.236ZM48.7904 319.767C48.5276 318.914 48.3812 318.063 48.179 317.192L54.6107 315.996L55.0308 317.842L48.7904 319.767ZM551.583 518.428C552.757 516.858 553.21 515.529 554.118 515.14C554.648 514.976 556.375 516.164 556.521 516.906C556.724 517.996 555.977 519.233 555.63 520.419L551.583 518.428ZM617.9 671.971L616.098 672.526C614.904 669.784 613.725 667.036 612.546 664.289L614.226 663.551L617.9 671.971ZM788.378 611.611L787.936 613.998L781.097 612.099L781.45 610.014L788.378 611.611ZM528.38 475.022L526.104 475.01C525.932 473.379 525.776 471.743 525.605 470.113C526.501 470.221 528.125 470.214 528.167 470.457C528.349 471.977 528.421 473.503 528.38 475.022ZM735.732 594.667C732.203 597.585 730.281 596.677 728.797 592.779L735.732 594.667ZM565.318 564.535C565.086 563.783 564.854 563.031 564.628 562.296L570.005 560.638L570.52 562.309L565.318 564.535ZM695.573 571.311L694.099 572.772L690.162 567.855L691.646 566.537L695.573 571.311ZM653.197 562.015L655.077 562.734L654.151 567.046C653.401 566.765 652.661 566.462 651.921 566.16L653.197 562.015ZM832.18 581.636L831.453 583.69L825.92 581.022L826.707 578.95L832.18 581.636ZM569.112 558.442C570.102 557.295 570.642 556.141 571.429 555.898C572.217 555.655 573.482 556.692 573.526 557.319C573.57 557.946 573.027 559.303 572.377 559.833C572.217 560.12 571.105 559.31 569.102 558.409L569.112 558.442ZM342.014 348.613L342.183 350.72L337.136 350.922C337.067 350.266 336.977 349.598 336.907 348.943L342.014 348.613ZM810.803 599.829L811.946 598.159L815.693 601.597L814.886 602.797L810.803 599.829ZM577.157 549.996L577.056 548.326L583.318 548.463L583.386 549.759L577.157 549.996ZM953.231 625.213L952.788 626.576L946.206 623.518L946.609 622.351L953.231 625.213ZM794.333 610.159L794.986 608.512L799.043 610.537L798.335 612.329L794.333 610.159Z" fill="#707070"/>
<path d="M848.04 505.251L853.124 506.3C854.912 509.409 855.878 512.972 857.474 513.468C860.366 514.282 863.373 514.002 865.987 512.673C869.637 510.688 872.663 507.431 876.706 504.08C874.876 503.223 872.956 502.65 871.006 502.379C864.69 502.496 858.344 502.842 852.025 503.272C850.608 503.544 849.228 503.969 847.905 504.542L848.04 505.251ZM856.613 508.738L857.343 506.482C861.692 514.291 863.466 507.027 866.613 505.453C866.265 510.026 864.028 511.484 861.149 511.347C859.641 511.245 858.12 509.646 856.613 508.738V508.738Z" fill="#707070"/>
<path d="M738.607 542.084C733.508 534.909 717.408 524.922 708.421 524.876L715.544 528.828L715.401 529.549L708.772 528.811C711.709 531.236 714.372 533.526 717.125 535.678C717.654 536.101 718.839 536.449 719.146 536.153C723.196 532.288 726.547 536.433 730.045 537.88C732.98 539.061 735.791 540.646 738.607 542.084Z" fill="#707070"/>
<path d="M548.097 546.951L490.648 568.49L490.972 569.542L502.968 565.844L521.144 560.239C521.553 560.113 522.11 560.198 522.371 559.861C528.507 553.778 536.628 553.379 544.367 551.798C546.019 551.453 547.308 549.5 548.778 548.297L548.097 546.951Z" fill="#707070"/>
<path d="M675.887 523.873L683.66 526.271C677.984 523.464 672.848 517.728 664.679 521.144C667.021 522.47 669.287 523.96 671.462 525.604C672.534 526.847 673.44 528.244 674.151 529.752C672.768 529.523 671.393 529.214 670.033 528.825C669.162 528.418 668.331 527.907 667.557 527.302C670.757 533.324 672.457 534.373 684.776 536.778C683.534 536.246 682.262 535.724 681.05 535.182C679.838 534.641 678.377 533.884 677.738 533.587C677.091 530.144 676.565 527.415 675.887 523.873Z" fill="#707070"/>
<path d="M681.785 592.451C678.527 588.662 675.284 584.867 671.786 580.785L673.544 577.718L668.854 575.797L672.481 573.087C671.091 572.344 670.122 571.838 668.666 571.097L670.83 567.356C670.058 565.983 669.272 564.615 668.337 562.982C664.528 566.499 665.014 571.088 666.556 575.444C667.791 579.282 669.705 582.858 672.185 585.964C674.666 589.069 677.665 591.642 681.008 593.533L681.785 592.451Z" fill="#707070"/>
<path d="M540.432 590.726C549.894 586.931 557.784 580.673 565.215 573.734L564.526 572.684L547.54 580.373C549.041 587.285 542.042 586.424 540.432 590.726Z" fill="#707070"/>
<path d="M724.849 623.129C727.842 620.248 727.023 617.701 724.85 616.248C715.625 610.108 706.225 604.259 696.896 598.425C695.39 597.859 693.826 597.539 692.258 597.476C698.745 601.57 704.665 604.63 709.984 608.809C715.303 612.988 722.057 615.206 724.849 623.129Z" fill="#707070"/>
<path d="M349.442 383.25L295.743 392.854L296.035 394.392L349.776 384.977L349.442 383.25Z" fill="#707070"/>
<path d="M266.661 335.065C255.239 333.848 243.766 333.378 233.629 340.31L266.661 335.065Z" fill="#707070"/>
<path d="M559.669 478.696C570.602 489.196 574.972 505.196 587.456 514.376L561.496 477.199L559.669 478.696Z" fill="#707070"/>
<path d="M708.54 598.914C713.727 602.018 718.999 604.967 724.095 608.264C726.614 609.74 728.896 611.676 730.834 613.981C733.137 616.931 735.55 617.926 739.895 617.062C730.715 610.743 722.422 604.882 714.06 599.225C712.489 598.386 710.847 597.733 709.163 597.277L708.54 598.914Z" fill="#707070"/>
<path d="M810.266 491.972L779.636 473.968L780.345 472.45C781.775 476.547 806.252 491.27 810.266 491.972Z" fill="#707070"/>
<path d="M395.17 402.529L346.246 410.295L346.465 411.49L395.553 403.931L395.17 402.529Z" fill="#707070"/>
<path d="M836.672 519.59C837.753 511.424 837.081 508.813 833.541 508.789C832.712 508.901 831.932 509.234 831.27 509.757C830.607 510.28 830.082 510.978 829.739 511.791C828.837 515.107 832.511 518.951 836.672 519.59Z" fill="#707070"/>
<path d="M571.723 505.1L550.445 472.939L548.979 474.05C556.181 484.712 563.375 495.383 570.56 506.062L571.723 505.1Z" fill="#707070"/>
<path d="M912.403 506.358C905.791 503.31 893.473 503.759 891.345 507.672L912.477 507.781L912.403 506.358Z" fill="#707070"/>
<path d="M235.386 368.662L269.128 361.039C257.103 360.447 246.217 364.627 235.386 368.662Z" fill="#707070"/>
<path d="M490.384 472.5L504.272 473.159C501.399 466.048 495.226 465.609 490.384 472.5Z" fill="#707070"/>
<path d="M303.67 361.534L267.428 369.927L267.775 371.375L303.855 362.886L303.67 361.534Z" fill="#707070"/>
<path d="M597.127 619.966L595.007 630.519C597.266 632.787 600.135 635.691 603.004 638.594L603.976 637.819C603.339 636.486 602.533 635.249 601.583 634.146C599.285 632.073 598.223 630.242 599.341 626.877C600.033 624.925 598.93 622.155 598.644 619.773L597.127 619.966Z" fill="#707070"/>
<path d="M501.906 593.31L472.001 611.442C472.297 611.973 472.594 612.504 472.865 613.006L502.499 594.426L501.906 593.31Z" fill="#707070"/>
<path d="M477.74 560.43L508.223 547.994C497.379 550.477 486.657 553.362 477.74 560.43Z" fill="#707070"/>
<path d="M338.136 365.235L299.86 370.742L300.059 371.925L338.361 366.611L338.136 365.235Z" fill="#707070"/>
<path d="M487.13 465.58C476.523 460.872 466.819 464.742 456.107 465.721L487.13 465.58Z" fill="#707070"/>
<path d="M443.847 503.228L472.354 494.438L471.931 493.068C462.094 494.949 452.636 498.371 443.847 503.228Z" fill="#707070"/>
<path d="M790.471 516.615L795.008 513.202C793.393 512.859 792.394 512.307 791.621 512.545C789.962 513.109 788.371 513.863 786.875 514.795C786.784 514.824 787.255 516.783 787.762 517.029C792.819 519.496 797.92 521.784 803.001 524.115L803.603 522.41L790.471 516.615Z" fill="#707070"/>
<path d="M462.945 445.9C451.996 445.195 441.482 447.192 431.026 449.593L431.278 451.162L462.989 445.776L462.945 445.9Z" fill="#707070"/>
<path d="M282.192 349.217L314.879 347.263L314.698 345.654L282.093 347.93L282.192 349.217Z" fill="#707070"/>
<path d="M763.542 572.697C761.349 571.883 759.112 571.246 756.849 570.789C755.706 570.63 754.482 571.611 753.286 572.089C753.665 573.629 754.297 575.097 755.152 576.418C755.967 577.104 756.928 577.542 757.93 577.684L763.576 572.485L763.542 572.697Z" fill="#707070"/>
<path d="M612.582 623.306L604.958 622.144L604.891 621.011L609.442 618.986L602.398 615.668C602.252 618.586 602.11 621.082 601.95 624.059L612.606 624.946L612.582 623.306Z" fill="#707070"/>
<path d="M414.508 451.666L392.681 458.396L393.14 459.883C400.759 458.686 408.013 455.896 414.508 451.666V451.666Z" fill="#707070"/>
<path d="M178.662 335.974L158.55 339.228L158.988 341.509L179.136 337.566C178.946 337.057 178.796 336.518 178.662 335.974Z" fill="#707070"/>
<path d="M725.128 582.328L725.695 581.586L730.337 582.168L730.704 580.938C721.73 579.807 714.279 575.169 707.627 568.711C712.132 573.8 716.115 579.617 723.051 580.754C723.785 580.876 724.447 581.788 725.128 582.328Z" fill="#707070"/>
<path d="M672.449 607.573C668.769 602.687 664.862 599.592 659.569 598.991C664.473 600.426 665.144 609.112 672.449 607.573Z" fill="#707070"/>
<path d="M702.939 610.049C700.862 606.864 694.357 605.887 688.857 602.789L702.939 610.049Z" fill="#707070"/>
<path d="M757.592 536.635L770.487 550.593C769.9 542.447 762.349 540.768 759.011 535.374L757.592 536.635Z" fill="#707070"/>
<path d="M326.773 400.049L356.165 395.854L355.94 394.532L326.509 398.922L326.773 400.049Z" fill="#707070"/>
<path d="M854.409 536.007L839.61 527.23L838.746 529.052C843.675 532.021 848.596 534.981 853.509 537.932L854.409 536.007Z" fill="#707070"/>
<path d="M422.754 466.581L406.804 471.498L407.15 472.618L423.185 468.516C423.004 467.876 422.874 467.239 422.754 466.581Z" fill="#707070"/>
<path d="M689.437 611.667C689.38 606.854 680.799 602.748 675.516 604.98L689.437 611.667Z" fill="#707070"/>
<path d="M433.949 460.182L461.301 456.689L461.102 455.397L433.786 459.171L433.949 460.182Z" fill="#707070"/>
<path d="M512.054 568.058L495.268 574.46L495.536 575.329L512.758 570.019L512.054 568.058Z" fill="#707070"/>
<path d="M645.823 606.962L661.458 612.7L661.879 611.106C657.135 607.555 651.529 607.234 646.365 605.331L645.823 606.962Z" fill="#707070"/>
<path d="M222.704 361.026L242.652 354.875L242.395 354.04L222.522 360.167L222.704 361.026Z" fill="#707070"/>
<path d="M649.067 612.111C646.461 607.424 642.144 606.926 637.567 606.013L648.442 613.474L649.067 612.111Z" fill="#707070"/>
<path d="M607.204 543.147C600.481 546.465 595.065 545.682 589.97 541.05C591.454 545.862 595.226 546.42 598.703 546.885C601.497 547.286 604.702 547.89 607.204 543.147Z" fill="#707070"/>
<path d="M425.027 496.11L446.588 487.98L446.5 487.696L424.568 494.459L425.027 496.11Z" fill="#707070"/>
<path d="M472.977 586.803L491.483 577.694L490.904 576.463L472.307 585.327C472.511 585.776 472.737 586.292 472.977 586.803Z" fill="#707070"/>
<path d="M627.324 607.946C629.923 612.177 633.228 613.537 637.995 611.244L627.823 606.658L627.324 607.946Z" fill="#707070"/>
<path d="M508.78 582.863L494.359 588.865L495.041 590.485L509.43 584.218L508.78 582.863Z" fill="#707070"/>
<path d="M625.729 619.307C621.283 616.506 616.682 614.228 611.158 614.815L625.222 620.836L625.729 619.307Z" fill="#707070"/>
<path d="M614.555 592.815C614.619 596.143 614.669 599.477 614.746 603.223C618.907 600.366 619.059 596.769 614.555 592.815Z" fill="#707070"/>
<path d="M165.45 347.551L188.699 342.963L188.466 341.882L165.195 346.294C165.288 346.705 165.371 347.136 165.45 347.551Z" fill="#707070"/>
<path d="M284.573 384.276L306.198 379.639L305.908 378.374L284.146 383.108L284.573 384.276Z" fill="#707070"/>
<path d="M499.929 476.73L483.101 479.229L483.43 481.049L500.2 478.147L499.929 476.73Z" fill="#707070"/>
<path d="M347.704 420.971L331.106 424.753L331.484 426.302L348.15 422.792C347.999 422.198 347.859 421.582 347.704 420.971Z" fill="#707070"/>
<path d="M607.439 597.095L605.48 606.611C609.871 605.952 611.249 601.813 607.439 597.095Z" fill="#707070"/>
<path d="M727.768 600.489L714.007 593.515L713.255 595.704L727.579 601.005L727.768 600.489Z" fill="#707070"/>
<path d="M383.238 393.306L364.986 394.523L365.099 395.641L383.444 394.779L383.238 393.306Z" fill="#707070"/>
<path d="M817.719 542.103L830.685 543.595C826.865 538.789 822.204 541.104 817.853 540.817L817.719 542.103Z" fill="#707070"/>
<path d="M362.719 434.147L374.413 431.402L373.988 429.593L362.324 432.11C362.449 432.785 362.579 433.476 362.719 434.147Z" fill="#707070"/>
<path d="M838.678 533.519L829.582 527.796C831.299 533.416 834.279 535.388 838.678 533.519Z" fill="#707070"/>
<path d="M762.087 549.429C761.774 545.024 760.876 541.092 755.24 539.92L762.087 549.429Z" fill="#707070"/>
<path d="M461.632 488.338L475.635 485.338L475.241 483.63L461.227 486.596L461.632 488.338Z" fill="#707070"/>
<path d="M383.953 438.45L371.76 442.21L372.11 443.346C376.349 442.46 380.897 442.632 383.953 438.45Z" fill="#707070"/>
<path d="M539.082 560.4L526.51 564.277L526.897 565.53L539.232 560.94L539.082 560.4Z" fill="#707070"/>
<path d="M499.726 523.804L515.143 520.331L514.808 519.245L499.319 522.484L499.726 523.804Z" fill="#707070"/>
<path d="M621.353 591.286L621.831 602.466C625.002 598.012 624.417 594.715 622.86 591.334L621.353 591.286Z" fill="#707070"/>
<path d="M486.092 471.134L471.381 472.43L471.483 473.406L486.318 472.674L486.092 471.134Z" fill="#707070"/>
<path d="M222.441 341.032L206.256 344.54C206.395 344.991 206.534 345.443 206.674 345.894L222.791 342.114L222.441 341.032Z" fill="#707070"/>
<path d="M625.961 637.315L616.035 634.063L615.586 636.159L625.626 638.81L625.961 637.315Z" fill="#707070"/>
<path d="M629.353 594.42L634.83 601.423L636.405 599.968C634.526 597.692 632.626 595.405 630.732 593.134L629.353 594.42Z" fill="#707070"/>
<path d="M598.442 603.273L597.006 610.505L598.42 611.002C600.494 609.173 602.04 607.141 600.083 603.7L598.442 603.273Z" fill="#707070"/>
<path d="M716.499 536.915L707.767 533.77C709.873 537.805 711.704 538.576 716.499 536.915Z" fill="#707070"/>
<path d="M652.988 532.709L638.147 530.515L638.047 531.644L652.884 533.876L652.988 532.709Z" fill="#707070"/>
<path d="M700.431 539.876L711.116 541.449L711.196 539.448L700.498 538.319L700.431 539.876Z" fill="#707070"/>
<path d="M781.167 540.235L773.593 536.275L772.594 538.413L779.738 543.347L781.167 540.235Z" fill="#707070"/>
<path d="M829.565 523.72L820.824 518.235L820.039 519.776L828.694 525.415L829.565 523.72Z" fill="#707070"/>
<path d="M644.406 599.585C646.641 601.184 648.865 602.803 651.085 604.407L652.218 602.703L645.675 597.62L644.406 599.585Z" fill="#707070"/>
<path d="M654.561 640.3L643.319 641.497L643.52 643.064L654.827 641.81L654.561 640.3Z" fill="#707070"/>
<path d="M404.279 358.876C407.513 360.972 410.741 363.051 413.96 365.151L414.714 363.509C413.3 362.042 411.642 360.885 409.84 360.107C408.038 359.329 406.129 358.947 404.229 358.983L404.279 358.876Z" fill="#707070"/>
<path d="M519.813 592.912L509.211 598.011L509.713 599.156L520.429 594.37L519.813 592.912Z" fill="#707070"/>
<path d="M452.433 529.639L462.491 527.398L462.118 525.866L452.107 528.258L452.433 529.639Z" fill="#707070"/>
<path d="M277.318 402.799L286.633 399.927L286.309 398.874L276.993 401.746L277.318 402.799Z" fill="#707070"/>
<path d="M423.758 479.356L433.088 476.479L432.805 475.56L423.459 478.441L423.758 479.356Z" fill="#707070"/>
<path d="M605.706 538.816L615.643 539.412L615.619 537.827L605.679 537.543L605.706 538.816Z" fill="#707070"/>
<path d="M685.716 584.158L695.387 586.849L695.629 584.945C692.453 583.143 689.092 583.593 685.702 584.218L685.716 584.158Z" fill="#707070"/>
<path d="M691.17 636.423L683.445 639.611L683.713 640.48L691.725 638.009L691.17 636.423Z" fill="#707070"/>
<path d="M150.106 330.854L140.209 332.862L140.49 334.203L150.408 332.262L150.106 330.854Z" fill="#707070"/>
<path d="M758.055 565.752L764.805 568.923L765.432 567.247L758.919 563.766L758.055 565.752Z" fill="#707070"/>
<path d="M676.936 635.798L685.797 633.066L685.523 632.18L676.799 634.87L676.936 635.798Z" fill="#707070"/>
<path d="M617.429 645.544L610.287 642.769L609.835 644.208L616.873 647.345L617.429 645.544Z" fill="#707070"/>
<path d="M746.755 533.26L751.33 539.169L752.463 538.216C750.984 536.165 749.542 534.121 748.053 532.091L746.755 533.26Z" fill="#707070"/>
<path d="M733.222 578.404L726.118 574.299L725.823 574.957L732.822 579.259L733.222 578.404Z" fill="#707070"/>
<path d="M691.895 575.372L685.269 575.402L685.253 576.908L691.872 577.502L691.895 575.372Z" fill="#707070"/>
<path d="M783.18 539.98L790.552 544.039L790.971 543.141L783.92 538.508L783.18 539.98Z" fill="#707070"/>
<path d="M426.825 439.542L419.888 440.07L420.023 441.529L427.188 441.15L426.825 439.542Z" fill="#707070"/>
<path d="M358.871 387.297L366.453 385.637L366.196 384.801L358.282 386.033L358.871 387.297Z" fill="#707070"/>
<path d="M579.345 522.496L583.744 529.337L584.696 528.66C583.257 526.359 581.833 524.053 580.383 521.718L579.345 522.496Z" fill="#707070"/>
<path d="M300.691 406.315L294.89 408.104L295.158 408.973L300.914 407.198L300.691 406.315Z" fill="#707070"/>
<path d="M618.226 610.606L613.137 608.68L612.677 610.359L617.735 612.294L618.226 610.606Z" fill="#707070"/>
<path d="M771.417 541.391L765.319 537.269L764.592 538.463L770.535 542.889L771.417 541.391Z" fill="#707070"/>
<path d="M815.988 544.504L812.912 542.652L812.1 544.86L815.485 546.049L815.988 544.504Z" fill="#707070"/>
<path d="M380.464 368.086L371.942 368.152L371.972 369.112L380.611 369.102L380.464 368.086Z" fill="#707070"/>
<path d="M457.454 539.911L464.086 538.287L463.699 537.034L457.186 539.042L457.454 539.911Z" fill="#707070"/>
<path d="M387.528 381.974L394.148 380.848L393.882 379.503L387.39 380.827L387.528 381.974Z" fill="#707070"/>
<path d="M583.346 594.531L579.56 598.388L580.456 599.466L584.455 595.653L583.346 594.531Z" fill="#707070"/>
<path d="M465.782 629.755L471.474 625.731L470.856 624.695L465.102 628.574L465.782 629.755Z" fill="#707070"/>
<path d="M281.531 334.615L275.268 334.368L275.254 335.452L281.35 335.75L281.531 334.615Z" fill="#707070"/>
<path d="M821.097 523.915L817.151 521.124L816.449 522.182L820.175 525.444L821.097 523.915Z" fill="#707070"/>
<path d="M404.224 358.984L398.513 356.975L398.35 358.599L404.274 358.877L404.224 358.984Z" fill="#707070"/>
<path d="M848.518 529.826L852.795 531.216L853.058 530.293L848.641 528.342L848.518 529.826Z" fill="#707070"/>
<path d="M648.925 547.538L643.524 547.666L643.712 548.652L649.02 547.417L648.925 547.538Z" fill="#707070"/>
<path d="M719.332 555.164L715.658 553.149L715.163 554.07L718.767 556.399L719.332 555.164Z" fill="#707070"/>
<path d="M1030.2 667.43L1077.62 697.48L1078.23 696.34C1063.11 686.105 1048.03 675.86 1032.87 665.71C1032.28 665.306 1031.19 665.883 1030.33 666.002L1030.2 667.43Z" fill="#707070"/>
<path d="M944.311 646.684L964.716 664.877L965.35 664.188C964.131 662.495 962.918 660.82 961.715 659.123L962.147 658.587C965.936 661.518 969.723 664.456 973.506 667.401L974.144 666.673C972.989 665.51 971.875 664.262 970.65 663.194C966.152 659.365 961.85 655.367 957.192 651.825C955.866 650.807 953.704 651.272 951.996 650.628C949.66 649.72 947.391 648.333 944.311 646.684Z" fill="#707070"/>
<path d="M892.929 651.053L925.19 673.807C924.269 671.95 923.858 669.918 922.725 668.986C913.508 661.525 904.096 654.399 892.964 650.896L892.929 651.053Z" fill="#707070"/>
<path d="M1061.68 673.316C1059.09 666.555 1051.65 664.038 1044.51 661.153L1053.04 666.758L1052.78 667.44L1044.85 663.811L1044.47 664.843L1061.68 673.316Z" fill="#707070"/>
<path d="M1108.32 694.178L1134.23 717.776C1134.39 714.01 1117.51 698.481 1108.32 694.178Z" fill="#707070"/>
<path d="M1249.5 747.343L1275.05 771.508C1274.46 766.875 1257.44 750.457 1249.5 747.343Z" fill="#707070"/>
<path d="M1144.2 701.673L1107.9 677.531L1107.26 678.735L1143.6 702.829L1144.2 701.673Z" fill="#707070"/>
<path d="M818.344 661.388C811.455 651.471 801.523 647.232 792.011 642.26L818.344 661.388Z" fill="#707070"/>
<path d="M1063.13 668.201C1067.78 671.599 1072.58 674.786 1077.04 678.552C1081.5 682.319 1085.61 686.488 1090 690.606C1087.46 682.752 1073.59 672.26 1062.45 669.6L1063.13 668.201Z" fill="#707070"/>
<path d="M964.887 639.389L993.578 660.626L994.395 659.24L965.412 638.348L964.887 639.389Z" fill="#707070"/>
<path d="M1214.26 724.281L1239.17 745.366C1231.67 737.176 1223.98 729.281 1214.56 723.842L1214.26 724.281Z" fill="#707070"/>
<path d="M1128.78 702.22L1102.8 683.22L1101.96 684.687C1110.8 690.732 1119.64 696.766 1128.47 702.79L1128.78 702.22Z" fill="#707070"/>
<path d="M906.979 669.594C901.346 660.9 894.092 656.201 886.271 652.19L906.979 669.594Z" fill="#707070"/>
<path d="M1040.97 681.33L1055.29 692.34L1056.17 691.044L1042.15 679.503L1040.97 681.33Z" fill="#707070"/>
<path d="M788.504 651.153L803.303 661.87L804.04 660.654C799.94 655.642 794.532 652.789 788.989 650.143L788.504 651.153Z" fill="#707070"/>
<path d="M1023.57 678.204L1042.99 692.345L1043.82 690.845L1024.07 677.173L1023.57 678.204Z" fill="#707070"/>
<path d="M993.447 649.504L1011.16 661.538C1007.12 653.707 1000.65 652.042 993.447 649.504Z" fill="#707070"/>
<path d="M1007.97 679.392L1024.98 690.616L1025.76 689.058L1008.61 678.188L1007.97 679.392Z" fill="#707070"/>
<path d="M1183.44 717.699L1163.55 702.35L1162.96 703.282L1182.78 718.744L1183.44 717.699Z" fill="#707070"/>
<path d="M1167.92 715.222L1181.03 727.646C1181.34 724.534 1174.52 717.667 1167.92 715.222Z" fill="#707070"/>
<path d="M981.968 671.671L993.069 681.369L993.827 680.33C991.681 674.77 986.816 673.031 981.968 671.671Z" fill="#707070"/>
<path d="M1012.83 649.53C1013.33 649.869 1013.8 650.256 1014.32 650.535C1018.93 653.161 1023.75 655.304 1028.7 656.935L1013.4 648.438L1012.83 649.53Z" fill="#707070"/>
<path d="M1033.92 675.78C1031.37 672.121 1029.04 668.009 1023.95 669.321L1033.92 675.78Z" fill="#707070"/>
<path d="M841.142 661.658L852.729 666.961L851.73 669.099C850.772 666.911 849.259 665.04 847.377 663.718C845.496 662.396 843.328 661.68 841.142 661.658V661.658Z" fill="#707070"/>
<path d="M1016.11 656.663C1012.94 654.05 1009.78 651.453 1006.6 648.869L1005.61 650.273L1015.02 658.204L1016.11 656.663Z" fill="#707070"/>
<path d="M789.662 661.557C792.713 664.496 795.755 667.438 798.786 670.382L799.604 669.38C797.869 664.773 793.737 663.046 790.419 660.354L789.662 661.557Z" fill="#707070"/>
<path d="M750.063 669.119L737.474 659.166L736.721 660.276L749.271 670.314L750.063 669.119Z" fill="#707070"/>
<path d="M959.586 678.865C958.205 673.362 953.939 673.03 950.555 671.091L950.014 672.081L959.586 678.865Z" fill="#707070"/>
<path d="M1128.47 702.79L1141.59 713.384L1142.32 712.317C1138.44 708.023 1133.53 705.328 1128.79 702.254L1128.47 702.79Z" fill="#707070"/>
<path d="M883.707 665.628L873.621 658.417L872.77 659.851L882.805 667.114L883.707 665.628Z" fill="#707070"/>
<path d="M935.911 672.879L944.249 678.726C943.43 673.488 939.734 672.798 936.411 671.81L935.911 672.879Z" fill="#707070"/>
<path d="M1204.74 726.026L1217.07 735.527L1217.84 734.302C1213.68 731.144 1209.51 727.988 1205.34 724.836L1204.74 726.026Z" fill="#707070"/>
<path d="M1190.71 725.905L1201.64 735.347L1202.52 734.14L1191.62 724.693L1190.71 725.905Z" fill="#707070"/>
<path d="M851.951 659.736C854.735 661.934 857.535 664.127 860.314 666.307L861.111 665.019L852.807 658.155L851.951 659.736Z" fill="#707070"/>
<path d="M822.533 659.218L815.443 651.339L814.417 652.369C816.704 655.105 819 657.818 821.281 660.537L822.533 659.218Z" fill="#707070"/>
<path d="M986.503 638.889L999.381 646.172L999.861 645.091L987.044 637.899L986.503 638.889Z" fill="#707070"/>
<path d="M965.789 674.226L972.622 679.439L973.584 677.934L966.857 672.579L965.789 674.226Z" fill="#707070"/>
<path d="M1097.76 700.932L1087.31 692.075L1086.55 693.059L1096.85 702.127L1097.76 700.932Z" fill="#707070"/>
<path d="M741.835 672.881L734.899 666.254L733.969 667.328L740.659 674.177L741.835 672.881Z" fill="#707070"/>
<path d="M829.743 664.551C832.208 666.377 834.668 668.205 837.123 670.035L837.94 668.703L830.585 663.194L829.743 664.551Z" fill="#707070"/>
<path d="M802.304 664.282L808.092 669.067L808.86 668.061L803.357 662.694L802.304 664.282Z" fill="#707070"/>
<path d="M1092.59 683.422C1095.45 685.54 1098.35 687.659 1101.28 689.781L1101.92 688.741L1093.18 682.287L1092.59 683.422Z" fill="#707070"/>
<path d="M1010.06 668.811L1002.17 663.722L1001.76 664.473C1004.38 666.245 1007.01 667.996 1009.64 669.764L1010.06 668.811Z" fill="#707070"/>
<path d="M779.087 666.629L784.111 671.302L784.935 670.371L780.258 665.371L779.087 666.629Z" fill="#707070"/>
<path d="M893.002 650.884L887.758 648.402L887.553 648.867L892.922 651.055L893.002 650.884Z" fill="#707070"/>
<path d="M1214.5 723.861L1211.84 721.933L1211.07 723.47L1214.27 724.314L1214.5 723.861Z" fill="#707070"/>
<path d="M1014.36 623.621C1013.89 623.306 1013.47 622.834 1012.98 622.71C993.725 618.198 974.499 613.457 955.191 609.419C948.897 608.243 942.682 606.453 936.625 604.073C932.934 602.539 927.793 605.661 923.675 607.315C936.612 609.841 949.524 612.448 962.485 614.838C978.641 617.853 994.837 620.728 1011.03 623.658C1012.17 623.757 1013.31 623.737 1014.43 623.598L1014.36 623.621Z" fill="#707070"/>
<path d="M870.837 617.99L889.74 613.991L889.403 612.467L870.531 616.675L870.837 617.99Z" fill="#707070"/>
<path d="M843.311 596.081L843.796 602.172L847 601.806C846.624 599.781 846.229 597.744 845.848 595.702L843.311 596.081Z" fill="#707070"/>
<path d="M898.213 611.71L909.769 609.702L909.545 608.545L897.999 610.531L898.213 611.71Z" fill="#707070"/>
<path d="M1019.57 623.242L1023.83 626.318L1024.39 625.049L1019.5 623.299L1019.57 623.242Z" fill="#707070"/>
<path d="M1019.58 623.274L1014.36 623.62L1014.33 623.52L1019.5 623.281L1019.58 623.274Z" fill="#707070"/>
<path d="M540.752 634.784L509.236 637.365L509.364 638.478L540.84 636.093L540.752 634.784Z" fill="#707070"/>
<path d="M605.938 691.636C610.378 686.241 608.756 679.257 607.012 672.311C606.634 678.887 606.297 685.432 605.938 691.636Z" fill="#707070"/>
<path d="M592.509 696.8L589.987 704.22L590.622 704.719L594.271 697.995L592.509 696.8Z" fill="#707070"/>
<path d="M867.322 601.963C862.647 597.238 858.323 591.928 851.615 590.776L850.946 592.209C853.06 593.203 855.21 594.096 857.265 595.219C859.319 596.343 861.877 596.085 860.892 599.938C860.774 600.414 864.588 602.294 866.587 603.507L867.322 601.963Z" fill="#707070"/>
</svg>
