<svg width="127" height="127" viewBox="0 0 127 127" fill="none" xmlns="http://www.w3.org/2000/svg">
<path d="M63.2176 126.365C27.8177 126.377 -0.262527 97.4158 0.0018516 62.6858C0.26399 28.4308 28.1874 -0.200586 63.5738 0.00105866C98.2097 0.198223 126.373 28.3165 126.357 63.2459C126.35 98.0991 98.0641 126.359 63.2176 126.365ZM108.684 74.0989C108.684 70.4962 108.684 67.0391 108.702 63.582C108.702 63.3243 108.926 63.0241 109.123 62.8157C110.329 61.5454 111.637 60.3512 112.757 59.0181C114.339 57.1249 115.446 54.974 115.69 52.4512C115.939 49.8186 114.261 47.8178 111.695 47.9433C110.447 48.0264 109.22 48.3156 108.066 48.7992C105.59 49.7984 103.428 51.3645 101.51 53.1905C99.0096 55.5722 96.6436 58.095 94.2306 60.5663C93.0185 61.8098 91.784 63.0308 90.1641 63.7254C89.4919 64.0166 88.7414 64.1421 88.0244 64.3438L87.9639 64.1197C88.2366 63.9708 88.5 63.8054 88.7526 63.6246C89.8056 62.7732 90.9774 62.0204 91.8669 61.0189C93.4487 59.2421 92.9871 57.3041 90.769 56.4505C89.5714 56.0004 88.3117 55.7367 87.0341 55.6685C83.7159 55.4781 80.5367 56.0651 77.5859 57.8015L76.5844 56.6812L76.9474 56.1166C79.6046 52.0703 78.8406 48.1046 74.8525 45.3421C72.5537 43.7513 69.9593 42.9783 67.2034 42.7812C66.8999 42.7804 66.6024 42.6965 66.3433 42.5385C66.0842 42.3805 65.8733 42.1544 65.7337 41.885C64.5596 39.994 63.3923 38.0918 61.6806 36.6131C59.0413 34.3323 56.1824 34.3726 53.6798 36.799C50.6932 39.7117 49.1472 43.478 47.5946 47.2331C47.3974 47.7125 47.6215 48.2054 48.1099 48.2861C48.4258 48.3399 48.8358 48.062 49.1405 47.8537C49.3041 47.7394 49.3265 47.4347 49.4318 47.2241C50.4602 45.1382 51.437 43.0209 52.5461 40.9798C53.3017 39.5332 54.3945 38.2898 55.7321 37.3547C57.0092 36.4899 58.3266 36.4271 59.6373 37.2471C61.7478 38.5668 62.9286 40.6617 64.2594 42.7498C63.9077 42.8125 63.6814 42.8596 63.4528 42.8932C56.2429 43.9709 53.0928 50.2869 56.5812 56.6588C58.0712 59.3833 60.2041 61.5118 62.7292 63.2728C62.9263 63.4117 63.119 63.5573 63.3722 63.7455C55.9404 66.5999 48.5849 66.1093 41.1778 64.0995C41.953 63.0644 42.6901 62.0831 43.4183 61.0995C43.8036 60.5842 44.1173 60.0554 43.5325 59.4236C44.5296 59.2489 45.2152 58.8299 45.5938 57.9875C46.5662 55.8164 47.5587 53.6521 48.5065 51.4698C49.0352 50.2577 48.549 49.0053 47.4131 48.5012C46.2772 47.9971 45.0225 48.4541 44.4646 49.6573C43.4549 51.841 42.4676 54.036 41.5027 56.2421C41.0366 57.3086 41.3705 58.3459 42.3115 59.0046L42.67 59.2556C41.9978 60.1652 41.3705 61.0659 40.6871 61.9173C39.2846 63.6626 39.2711 63.6559 37.1404 63.0689C31.6601 61.5633 26.1843 60.0554 20.4397 59.9703C16.9893 59.9165 13.586 60.1831 10.3306 61.4445C8.9056 62.0002 7.5613 62.7149 6.60013 63.9584C5.47988 65.4035 5.52917 67.1556 6.89587 68.3318C7.74726 69.0645 8.80478 69.6 9.83989 70.066C10.7092 70.4581 11.6793 70.6239 12.6204 70.895V74.0989C11.5897 74.0989 10.6039 74.0743 9.61136 74.0989C7.42463 74.1661 5.95486 75.9809 6.36263 78.0803C6.67406 79.6912 8.04973 80.6905 9.96984 80.6905H111.655C113.727 80.6905 115.215 79.3461 115.24 77.4395C115.264 75.5328 113.736 74.1056 111.655 74.0967C110.696 74.0989 109.728 74.0989 108.684 74.0989Z" fill="#AA2940"/>
<path d="M60.793 75.824H111.231C111.572 75.8112 111.912 75.8254 112.251 75.8665C112.589 75.9364 112.896 76.1162 113.121 76.3781C113.347 76.64 113.48 76.9692 113.5 77.3145C113.519 77.6598 113.424 78.0019 113.229 78.2875C113.034 78.573 112.75 78.7861 112.421 78.8935C112.091 78.9738 111.752 79.0107 111.413 79.0032C77.6558 79.0032 43.8989 79.0032 10.142 79.0032C9.77642 79.0137 9.4112 78.9714 9.05764 78.8778C8.71824 78.7661 8.42896 78.5386 8.24052 78.235C8.05208 77.9315 7.97649 77.5713 8.027 77.2176C8.05685 76.875 8.20287 76.553 8.44085 76.3048C8.67883 76.0566 8.99447 75.8973 9.33546 75.8531C9.64735 75.8221 9.96101 75.8123 10.2742 75.824H60.793Z" fill="#AA2940"/>
<path d="M81.6758 66.7501C82.7714 66.3781 83.7998 66.0107 84.8438 65.6836C85.0869 65.6136 85.3447 65.6136 85.5877 65.6836C88.0881 66.3961 90.4025 65.9188 92.4257 64.3863C93.7966 63.3358 95.0712 62.1654 96.2346 60.8889C98.8089 58.0905 101.35 55.2541 104.439 53.0203C105.996 51.9 107.742 51.0307 109.429 50.0942C109.877 49.8786 110.358 49.7379 110.852 49.6774C113.114 49.2966 114.268 50.4415 113.932 52.7156C113.583 55.0927 112.333 57.0196 110.778 58.7515C106.402 63.6313 101.101 66.954 94.5743 68.1078C90.4518 68.8382 86.3898 68.603 82.4375 67.1197C82.2426 67.0458 82.0477 66.9696 81.855 66.8957C81.7908 66.853 81.7307 66.8042 81.6758 66.7501V66.7501Z" fill="#AA2940"/>
<path d="M74.4005 56.847C74.0218 57.1517 73.6185 57.443 73.2533 57.7746C71.0595 59.7649 68.5802 61.4158 65.8978 62.6723C65.7635 62.7311 65.6186 62.7614 65.4721 62.7614C65.3256 62.7614 65.1806 62.7311 65.0464 62.6723C61.9993 60.9046 59.4899 58.6013 57.8656 55.4131C55.0627 49.906 58.2442 45.519 63.5161 44.5937C64.8403 44.3697 65.5639 44.6677 66.3616 45.8282C68.8149 49.413 71.4654 52.8522 74.0398 56.3586L74.4005 56.847Z" fill="#AA2940"/>
<path d="M37.5967 64.8792C36.5705 65.7575 35.7192 66.2056 34.5295 66.1876C29.7101 66.1159 24.8953 66.1585 20.0715 66.1585C18.9109 66.1585 18.7093 66.3646 18.6958 67.5409C18.6958 68.1682 18.6779 68.7956 18.6645 69.4252C18.6645 69.47 18.6219 69.517 18.548 69.6492L14.4546 69.3938C14.3694 68.7104 14.3873 67.9307 13.5852 67.9733C13.1842 67.9957 12.81 68.5245 12.465 68.9188C11.0893 68.7552 9.68005 68.3788 8.47242 67.4894C7.26479 66.5999 7.21326 65.6096 8.29767 64.6036C9.81448 63.201 11.7279 62.6275 13.6883 62.2264C18.3037 61.2854 22.9237 61.5543 27.4965 62.4617C30.8326 63.1361 34.115 64.039 37.5967 64.8792Z" fill="#AA2940"/>
<path d="M93.407 74.0406C93.0665 72.7209 93.7588 71.3296 92.8984 70.0928C98.0516 69.535 102.667 67.6641 106.922 64.5857V74.0406H93.407Z" fill="#AA2940"/>
<path d="M82.5529 74.0539H73.0039V67.245C74.0323 67.2965 75.0584 67.4937 76.042 67.366C77.8748 67.1285 79.4543 67.5721 81.1078 68.3697C82.2572 68.9231 82.7232 69.4474 82.5776 70.7021C82.4543 71.782 82.5529 72.8866 82.5529 74.0539Z" fill="#AA2940"/>
<path d="M71.2283 74.045H64.043V69.4744C64.043 68.3228 64.043 67.1712 64.043 66.0196C64.043 65.2556 64.9392 64.6999 65.6718 64.9665C67.3903 65.5827 69.1155 66.1764 70.825 66.797C70.984 66.8553 71.2036 67.0502 71.2058 67.1824C71.235 69.452 71.2283 71.7239 71.2283 74.045Z" fill="#AA2940"/>
<path d="M53.8175 67.6013V74.0495H45.8906V67.0367L53.8175 67.6013Z" fill="#AA2940"/>
<path d="M37.9922 74.0405C37.9922 71.6835 37.9922 69.4072 38.0056 67.1308C38.0407 66.9126 38.1452 66.7115 38.3036 66.5573C39.0788 65.6611 39.9862 65.4236 41.1379 65.8582C41.9377 66.1607 42.8182 66.2436 43.6472 66.4811C43.8511 66.5416 44.1334 66.8217 44.1379 67.0031C44.1692 69.331 44.158 71.6567 44.158 74.0405H37.9922Z" fill="#AA2940"/>
<path d="M55.6094 67.4422L62.2905 66.071V74.0472H55.6094V67.4422Z" fill="#AA2940"/>
<path d="M78.8359 59.1033C80.2026 58.2675 81.6231 57.8777 83.0929 57.6223C85.1093 57.2705 87.1527 57.1921 89.1646 57.6873C89.8883 57.8643 90.8965 58.0121 90.957 58.8277C90.9996 59.4035 90.4395 60.2101 89.9152 60.6022C88.4992 61.6597 86.9645 62.5581 85.4566 63.4902C85.3468 63.5492 85.2258 63.5843 85.1014 63.5932C84.9771 63.6021 84.8523 63.5845 84.7352 63.5417C82.4678 62.5111 80.644 60.88 78.8359 59.1033Z" fill="#AA2940"/>
<path d="M75.322 55.4153L67.543 44.7908L67.7043 44.5668C68.1524 44.6362 68.6005 44.6855 69.0486 44.7751C71.0247 45.1784 72.8574 45.9066 74.4482 47.177C77.1704 49.3659 77.5513 52.366 75.322 55.4153Z" fill="#AA2940"/>
<path d="M75.448 58.0052L76.2859 58.944C74.5115 61.2764 74.9573 63.4452 76.8124 65.6409C73.501 65.7753 70.4786 65.1614 67.4023 63.891C70.3912 62.2577 73.1089 60.4474 75.448 58.0052Z" fill="#AA2940"/>
<path d="M84.2891 74.0361V69.6022C85.5594 69.7747 86.8074 70.0144 88.0665 70.0996C89.3257 70.1847 90.623 70.1175 91.7454 70.1175C91.6872 71.4461 91.6312 72.7097 91.5707 74.0361H84.2891Z" fill="#AA2940"/>
<path d="M28.572 70.709V74.0989H20.4883V71.4371L28.572 70.709Z" fill="#AA2940"/>
<path d="M77.449 60.3309L82.7165 64.626C81.9278 64.8231 81.0966 64.9643 80.3146 65.2444C79.3512 65.5894 78.7463 65.1547 78.1257 64.514C76.7545 63.0711 76.5192 61.6483 77.449 60.3309Z" fill="#AA2940"/>
<path d="M20.4688 69.6178V67.915H31.5682C27.9991 69.2526 24.2686 69.4879 20.4688 69.6178Z" fill="#AA2940"/>
<path d="M18.6603 71.3901V74.0384H14.4414V71.1437L18.6603 71.3901Z" fill="#AA2940"/>
<path d="M36.2387 68.0046V74.0405H34.5762C34.5762 73.1443 34.5762 72.2593 34.5762 71.3788C34.5762 70.3684 34.3208 70.1354 33.3104 70.1286C32.6158 70.1286 31.919 70.1286 31.043 70.1286L36.2387 68.0046Z" fill="#AA2940"/>
<path d="M47.0551 50.4727C46.9565 50.7259 46.8983 50.9006 46.8311 51.0664L44.1559 57.0038C43.9946 57.3645 43.8422 57.826 43.3269 57.5818C42.8116 57.3376 43.0737 56.9254 43.2351 56.5669C44.0999 54.6102 44.9804 52.655 45.8766 50.7012C45.9454 50.5039 46.0545 50.323 46.197 50.1702C46.2667 50.1201 46.3469 50.0864 46.4315 50.0717C46.5161 50.0569 46.6029 50.0615 46.6854 50.0851C46.8355 50.1546 46.9431 50.3495 47.0551 50.4727Z" fill="#AA2940"/>
<path d="M30.3945 71.8584H32.8008V74.0339H30.3945V71.8584Z" fill="#AA2940"/>
</svg>
