<svg width="209" height="117" viewBox="0 0 209 117" fill="none" xmlns="http://www.w3.org/2000/svg">
<path d="M65.4 60.9599V74.9999H61.98V69.2199H56.66V74.9999H53.24V60.9599H56.66V66.4599H61.98V60.9599H65.4ZM71.2889 63.6999V66.5399H75.8689V69.1799H71.2889V72.2599H76.4689V74.9999H67.8689V60.9599H76.4689V63.6999H71.2889ZM82.1092 72.3599H86.5892V74.9999H78.6892V60.9599H82.1092V72.3599ZM91.6405 72.3599H96.1205V74.9999H88.2205V60.9599H91.6405V72.3599ZM104.392 75.1399C103.072 75.1399 101.858 74.8333 100.752 74.2199C99.6584 73.6066 98.7851 72.7533 98.1317 71.6599C97.4917 70.5533 97.1717 69.3133 97.1717 67.9399C97.1717 66.5666 97.4917 65.3333 98.1317 64.2399C98.7851 63.1466 99.6584 62.2933 100.752 61.6799C101.858 61.0666 103.072 60.7599 104.392 60.7599C105.712 60.7599 106.918 61.0666 108.012 61.6799C109.118 62.2933 109.985 63.1466 110.612 64.2399C111.252 65.3333 111.572 66.5666 111.572 67.9399C111.572 69.3133 111.252 70.5533 110.612 71.6599C109.972 72.7533 109.105 73.6066 108.012 74.2199C106.918 74.8333 105.712 75.1399 104.392 75.1399ZM104.392 72.0199C105.512 72.0199 106.405 71.6466 107.072 70.8999C107.752 70.1533 108.092 69.1666 108.092 67.9399C108.092 66.6999 107.752 65.7133 107.072 64.9799C106.405 64.2333 105.512 63.8599 104.392 63.8599C103.258 63.8599 102.352 64.2266 101.672 64.9599C101.005 65.6933 100.672 66.6866 100.672 67.9399C100.672 69.1799 101.005 70.1733 101.672 70.9199C102.352 71.6533 103.258 72.0199 104.392 72.0199ZM127.813 60.9599V63.6999H124.093V74.9999H120.673V63.6999H116.953V60.9599H127.813ZM141.689 60.9599V74.9999H138.269V69.2199H132.949V74.9999H129.529V60.9599H132.949V66.4599H138.269V60.9599H141.689ZM147.578 63.6999V66.5399H152.158V69.1799H147.578V72.2599H152.758V74.9999H144.158V60.9599H152.758V63.6999H147.578ZM162.138 74.9999L159.218 69.6999H158.398V74.9999H154.978V60.9599H160.718C161.825 60.9599 162.765 61.1533 163.538 61.5399C164.325 61.9266 164.912 62.4599 165.298 63.1399C165.685 63.8066 165.878 64.5533 165.878 65.3799C165.878 66.3133 165.612 67.1466 165.078 67.8799C164.558 68.6133 163.785 69.1333 162.758 69.4399L165.998 74.9999H162.138ZM158.398 67.2799H160.518C161.145 67.2799 161.612 67.1266 161.918 66.8199C162.238 66.5133 162.398 66.0799 162.398 65.5199C162.398 64.9866 162.238 64.5666 161.918 64.2599C161.612 63.9533 161.145 63.7999 160.518 63.7999H158.398V67.2799ZM171.445 63.6999V66.5399H176.025V69.1799H171.445V72.2599H176.625V74.9999H168.025V60.9599H176.625V63.6999H171.445ZM183.345 60.4599L182.945 70.0399H180.045L179.645 60.4599H183.345ZM181.545 75.1599C180.945 75.1599 180.452 74.9866 180.065 74.6399C179.692 74.2799 179.505 73.8399 179.505 73.3199C179.505 72.7866 179.692 72.3399 180.065 71.9799C180.452 71.6199 180.945 71.4399 181.545 71.4399C182.132 71.4399 182.612 71.6199 182.985 71.9799C183.372 72.3399 183.565 72.7866 183.565 73.3199C183.565 73.8399 183.372 74.2799 182.985 74.6399C182.612 74.9866 182.132 75.1599 181.545 75.1599Z" fill="#EEF7FF"/>
<path d="M19.3744 1.99997C11.0292 10.7705 2.97981 32.0395 37.5434 46.9507" stroke="#E0EEFB" stroke-width="4"/>
</svg>
