<svg width="70" height="70" viewBox="0 0 70 70" fill="none" xmlns="http://www.w3.org/2000/svg">
<path fill-rule="evenodd" clip-rule="evenodd" d="M34.748 69.4961C53.9388 69.4961 69.4961 53.9388 69.4961 34.748C69.4961 15.5572 53.9388 0 34.748 0C15.5572 0 0 15.5572 0 34.748C0 53.9388 15.5572 69.4961 34.748 69.4961ZM22.3102 38.2308C22.6067 37.5137 22.755 36.7206 22.755 35.8518C22.755 35.0036 22.6067 34.2244 22.3102 33.5141C22.0137 32.7969 21.6103 32.1763 21.1 31.6522C20.5897 31.1282 19.9898 30.7213 19.3002 30.4317C18.6175 30.1352 17.8831 29.9869 17.097 29.9869C16.8418 29.9869 16.5798 30.0145 16.3109 30.0697C16.0419 30.1179 15.7799 30.1903 15.5247 30.2869C15.2765 30.3834 15.042 30.5075 14.8214 30.6592C14.6076 30.811 14.4249 30.9833 14.2732 31.1764V26.0046H11.439V35.8518C11.439 36.7069 11.5872 37.493 11.8838 38.2101C12.1803 38.9204 12.5837 39.5341 13.094 40.0513C13.6112 40.5685 14.2111 40.9719 14.8938 41.2615C15.5834 41.5511 16.3178 41.696 17.097 41.696C17.8831 41.696 18.6175 41.5546 19.3002 41.2719C19.9898 40.9891 20.5897 40.5926 21.1 40.0823C21.6103 39.5652 22.0137 38.948 22.3102 38.2308ZM19.6829 34.6623C19.8346 35.0277 19.9105 35.4242 19.9105 35.8518C19.9105 36.2793 19.8346 36.6758 19.6829 37.0413C19.5381 37.4068 19.3381 37.724 19.083 37.9929C18.8278 38.2619 18.5279 38.4756 18.1831 38.6342C17.8452 38.7859 17.4831 38.8618 17.097 38.8618C16.7108 38.8618 16.3453 38.7859 16.0006 38.6342C15.6627 38.4756 15.3661 38.2619 15.111 37.9929C14.8559 37.724 14.6559 37.4068 14.5111 37.0413C14.3663 36.6758 14.2938 36.2793 14.2938 35.8518C14.2938 35.4656 14.3663 35.0932 14.5111 34.7347C14.6559 34.3692 14.8559 34.0485 15.111 33.7727C15.3661 33.49 15.6627 33.2659 16.0006 33.1004C16.3453 32.928 16.7108 32.8418 17.097 32.8418C17.4831 32.8418 17.8452 32.9176 18.1831 33.0693C18.5279 33.221 18.8278 33.4314 19.083 33.7003C19.3381 33.9692 19.5381 34.2899 19.6829 34.6623ZM34.5882 38.1688C34.8847 37.4516 35.0329 36.6793 35.0329 35.8518C35.0329 34.9691 34.8847 34.1692 34.5882 33.452C34.2916 32.728 33.8882 32.1108 33.3779 31.6005C32.8677 31.0833 32.2677 30.6868 31.5781 30.411C30.8955 30.1283 30.1611 29.9869 29.3749 29.9869C28.5957 29.9869 27.8613 30.1352 27.1717 30.4317C26.489 30.7282 25.8891 31.1385 25.3719 31.6626C24.8616 32.1798 24.4582 32.7969 24.1617 33.5141C23.8652 34.2313 23.7169 35.0105 23.7169 35.8518C23.7169 36.6793 23.8652 37.4516 24.1617 38.1688C24.4582 38.879 24.8616 39.4962 25.3719 40.0203C25.8891 40.5375 26.489 40.9478 27.1717 41.2512C27.8613 41.5477 28.5957 41.696 29.3749 41.696C30.1611 41.696 30.8955 41.5477 31.5781 41.2512C32.2677 40.9478 32.8677 40.5375 33.3779 40.0203C33.8882 39.4962 34.2916 38.879 34.5882 38.1688ZM31.9609 34.6209C32.1126 34.9864 32.1884 35.3967 32.1884 35.8518C32.1884 36.3 32.1126 36.7103 31.9609 37.0827C31.816 37.455 31.6161 37.7723 31.3609 38.0343C31.1058 38.2963 30.8058 38.4998 30.461 38.6446C30.1231 38.7894 29.7611 38.8618 29.3749 38.8618C28.9888 38.8618 28.6233 38.7859 28.2785 38.6342C27.9406 38.4756 27.6441 38.2619 27.389 37.9929C27.1407 37.724 26.9442 37.4068 26.7994 37.0413C26.6545 36.6758 26.5821 36.2793 26.5821 35.8518C26.5821 35.3967 26.6545 34.9864 26.7994 34.6209C26.9442 34.2485 27.1407 33.9313 27.389 33.6693C27.6441 33.4003 27.9406 33.1969 28.2785 33.059C28.6233 32.9142 28.9888 32.8418 29.3749 32.8418C29.7611 32.8418 30.1231 32.9142 30.461 33.059C30.8058 33.1969 31.1058 33.4003 31.3609 33.6693C31.6161 33.9313 31.816 34.2485 31.9609 34.6209ZM46.8558 38.1688C47.1523 37.4516 47.3005 36.6793 47.3005 35.8518C47.3005 34.9691 47.1523 34.1692 46.8558 33.452C46.5592 32.728 46.1558 32.1108 45.6455 31.6005C45.1353 31.0833 44.5353 30.6868 43.8457 30.411C43.1631 30.1283 42.4287 29.9869 41.6425 29.9869C40.8633 29.9869 40.1289 30.1352 39.4393 30.4317C38.7567 30.7282 38.1567 31.1385 37.6395 31.6626C37.1293 32.1798 36.7258 32.7969 36.4293 33.5141C36.1328 34.2313 35.9846 35.0105 35.9846 35.8518C35.9846 36.6793 36.1328 37.4516 36.4293 38.1688C36.7258 38.879 37.1293 39.4962 37.6395 40.0203C38.1567 40.5375 38.7567 40.9478 39.4393 41.2512C40.1289 41.5477 40.8633 41.696 41.6425 41.696C42.4287 41.696 43.1631 41.5477 43.8457 41.2512C44.5353 40.9478 45.1353 40.5375 45.6455 40.0203C46.1558 39.4962 46.5592 38.879 46.8558 38.1688ZM44.2285 34.6209C44.3802 34.9864 44.456 35.3967 44.456 35.8518C44.456 36.3 44.3802 36.7103 44.2285 37.0827C44.0837 37.455 43.8837 37.7723 43.6285 38.0343C43.3734 38.2963 43.0734 38.4998 42.7286 38.6446C42.3907 38.7894 42.0287 38.8618 41.6425 38.8618C41.2564 38.8618 40.8909 38.7859 40.5461 38.6342C40.2082 38.4756 39.9117 38.2619 39.6566 37.9929C39.4083 37.724 39.2118 37.4068 39.067 37.0413C38.9222 36.6758 38.8498 36.2793 38.8498 35.8518C38.8498 35.3967 38.9222 34.9864 39.067 34.6209C39.2118 34.2485 39.4083 33.9313 39.6566 33.6693C39.9117 33.4003 40.2082 33.1969 40.5461 33.059C40.8909 32.9142 41.2564 32.8418 41.6425 32.8418C42.0287 32.8418 42.3907 32.9142 42.7286 33.059C43.0734 33.1969 43.3734 33.4003 43.6285 33.6693C43.8837 33.9313 44.0837 34.2485 44.2285 34.6209ZM48.8624 41.4891H51.7069V40.072L53.6722 37.4654L55.9168 41.4891H59.1647L55.4927 35.045L59.1647 30.4317H55.9168L51.7069 35.769V26.0046H48.8624V41.4891Z" fill="#F67575"/>
</svg>
