<svg width="57" height="57" viewBox="0 0 57 57" fill="none" xmlns="http://www.w3.org/2000/svg">
<path fill-rule="evenodd" clip-rule="evenodd" d="M28.07 56.14C43.5727 56.14 56.14 43.5727 56.14 28.07C56.14 12.5674 43.5727 0 28.07 0C12.5674 0 0 12.5674 0 28.07C0 43.5727 12.5674 56.14 28.07 56.14ZM29.55 44.0005C29.6478 44.0384 29.7457 44.0762 29.8428 44.1153L29.9919 44.086C29.9237 43.9556 29.8611 43.8208 29.7985 43.686C29.6616 43.3909 29.5246 43.0958 29.3282 42.8478C28.4187 41.6978 27.9356 40.4847 28.509 39.0247C28.6093 38.7701 28.6869 38.5064 28.7646 38.2425C28.7998 38.1229 28.835 38.0033 28.8723 37.8844C29.214 36.8063 29.0714 36.4962 28.064 35.9794C27.8801 35.8847 27.6288 35.6715 27.6288 35.5105C27.6201 34.4649 27.6299 33.415 27.7213 32.3738C27.7659 31.8537 28.4502 31.3924 29.0051 31.3674C29.6187 31.3393 29.777 31.7945 29.935 32.2491L29.9375 32.2563C29.9788 32.376 30.0245 32.4946 30.0757 32.611C30.2508 33.0048 30.5707 33.0962 30.9276 32.9265C31.1985 32.7828 31.4482 32.6023 31.6696 32.3901C31.8236 32.2527 31.9614 32.0985 32.1001 31.9435C32.171 31.8642 32.2422 31.7846 32.3158 31.7069L32.504 31.7275C32.5345 31.9376 32.571 32.1474 32.6075 32.3573C32.6897 32.83 32.7719 33.3026 32.7847 33.7773C32.8076 34.6488 32.8838 35.5039 33.4049 36.2122C33.7792 36.7192 33.8455 37.2327 33.7367 37.7985C33.5694 38.7258 33.5919 39.6774 33.8031 40.5957C34.0055 41.5368 33.9108 42.4779 33.0263 43.147C32.886 43.2533 32.7704 43.3922 32.6546 43.5312C32.5593 43.6456 32.464 43.7601 32.355 43.8564C32.3136 43.8929 32.2719 43.9312 32.2298 43.9699C32.0256 44.1574 31.8102 44.3552 31.5695 44.4102C30.7143 44.6038 30.1355 45.0749 29.8363 45.8822C29.7663 46.0732 29.734 46.2783 29.6977 46.5083C29.6798 46.6217 29.6609 46.7411 29.6361 46.8679C29.7722 46.8289 29.8875 46.7938 29.9895 46.7628C30.186 46.703 30.3329 46.6583 30.4826 46.6297C30.8064 46.5677 31.1313 46.5109 31.4561 46.4541C32.0042 46.3583 32.552 46.2625 33.0937 46.1423C33.1225 46.1359 33.1501 46.1297 33.1766 46.1238C33.8103 45.982 33.8218 45.9794 33.9826 46.6645C34.0794 47.0736 34.3123 47.202 34.6474 46.9909C35.0261 46.754 35.3778 46.4764 35.6962 46.1629C36.1825 45.6799 36.634 45.5678 37.0355 46.0824C37.3798 46.5234 37.8307 46.6433 38.2804 46.7629C38.4987 46.821 38.7166 46.8789 38.9221 46.9735C39.3431 46.0052 39.1255 45.1903 38.2551 44.7061C37.3216 44.1882 36.7972 43.4854 36.7494 42.3833C36.7215 41.7405 36.6637 41.0983 36.606 40.4563C36.524 39.5444 36.442 38.633 36.4458 37.7212C36.4491 36.7083 36.597 35.628 36.9822 34.7021C37.4566 33.5597 37.2944 32.6077 36.7733 31.5948C36.7327 31.494 36.7131 31.3859 36.7157 31.2772C36.7183 31.1685 36.7431 31.0615 36.7885 30.9627C37.4642 29.6332 37.9385 28.2144 37.9385 26.7457C37.9374 25.5097 38.5141 24.9875 39.5455 24.6894C39.6085 24.6714 39.6704 24.6489 39.7323 24.6264C39.8243 24.593 39.9162 24.5596 40.0111 24.5414C40.3981 24.4678 40.7849 24.3936 41.1717 24.3194C42.5109 24.0626 43.8499 23.8058 45.1921 23.572C46.5608 23.3337 47.8892 22.9975 49.0719 22.236C49.7464 21.7997 50.2937 21.2546 50.421 20.4179C50.4427 20.2678 50.3666 20.0219 50.2611 19.9577C50.1555 19.8935 49.8868 19.9457 49.7889 20.0448C48.8771 20.9565 47.7402 21.0054 46.5924 20.8651C45.4883 20.7301 44.3943 20.4924 43.3046 20.2557L43.175 20.2275C42.6241 20.1076 42.0762 19.9705 41.5284 19.8335C40.5809 19.5965 39.6339 19.3596 38.6729 19.2114C37.8025 19.0754 37.0279 18.8904 36.2794 18.3693C35.4862 17.8176 34.5233 17.4695 33.5507 17.8057C32.8859 18.0352 32.3517 18.0037 31.7446 17.6871C30.5087 17.043 29.2684 17.092 28.0662 17.8187C27.9819 17.8696 27.898 17.9213 27.814 17.973C27.6356 18.083 27.4568 18.1932 27.2741 18.2953C26.6468 18.6431 26.018 18.9886 25.3676 19.3459C25.0456 19.5228 24.7184 19.7025 24.3833 19.887C24.3442 19.7649 24.3104 19.6567 24.2794 19.5579C24.2199 19.3676 24.1712 19.2119 24.1168 19.058C23.3737 16.9647 22.3357 15.1151 20.0869 14.3067C19.717 14.174 19.4961 13.976 19.3742 13.5789C19.1784 12.9424 18.7965 12.8031 18.1938 13.0882C17.8511 13.2541 17.5173 13.4378 17.1939 13.6387C16.7886 13.9011 16.3285 14.0669 15.849 14.1235C15.3696 14.1801 14.8835 14.1259 14.4283 13.9651C14.2597 13.9092 14.0926 13.8481 13.9255 13.787C13.6667 13.6923 13.4078 13.5977 13.1433 13.5223C11.5908 13.0762 10.171 13.3569 9.53559 15.0607C9.41146 15.3822 9.25354 15.6897 9.06449 15.9779C8.74588 16.4749 8.79866 17.0066 8.85078 17.5318C8.86255 17.6504 8.87429 17.7687 8.88171 17.8862C8.88848 17.9931 9.00854 18.0887 9.13342 18.1881C9.20925 18.2485 9.28685 18.3103 9.34193 18.3769C9.72816 18.8414 10.3113 18.9883 10.8238 19.0656C11.242 19.1281 11.675 19.0817 12.1096 19.0353C12.3635 19.0081 12.6179 18.9809 12.8703 18.9753C13.1401 18.9698 13.4567 19.0068 13.6743 19.1472C14.2955 19.5541 14.4576 20.1253 14.1584 20.975C14.0098 21.3972 13.5964 21.5033 13.2052 21.6036C13.1267 21.6238 13.0491 21.6437 12.9747 21.6659C12.817 21.7128 12.6408 21.7317 12.4666 21.7503C12.1805 21.781 11.8999 21.8111 11.7159 21.964C11.3615 22.2458 11.0854 22.6139 10.914 23.033C10.7425 23.452 10.6815 23.9081 10.7367 24.3575C10.7998 25.0103 11.0283 25.402 11.6593 25.6196C12.3687 25.8676 13.1107 25.884 13.7831 25.5576C14.3205 25.3008 14.7623 25.316 15.2442 25.6272C15.8709 26.0341 16.4802 25.9177 17.0677 25.4999C17.2739 25.3551 17.4945 25.2319 17.7259 25.1322C18.5112 24.7914 19.0214 25.2067 19.5109 25.6052C19.6325 25.7042 19.7528 25.8022 19.8758 25.8872C19.815 26.1137 19.7437 26.3352 19.6733 26.5539C19.5195 27.0316 19.3702 27.4954 19.3449 27.9664C19.2926 28.9379 18.8705 29.3666 17.949 29.6103C16.4334 30.0129 16.0809 30.7843 16.564 32.2715C16.6485 32.5105 16.7466 32.7444 16.8577 32.9722C16.8679 32.994 16.9004 33.0061 16.9339 33.0185C16.9505 33.0247 16.9673 33.031 16.9818 33.0386L17.1591 32.5794L17.6356 33.2551C17.6913 32.9888 17.7439 32.7386 17.7934 32.503C17.8841 32.0714 17.9645 31.6888 18.0349 31.3467L20.1576 31.2434C20.1791 31.3059 20.1958 31.3699 20.2076 31.4349C20.4268 32.979 21.1988 34.3912 22.3803 35.4093C23.2067 36.1418 24.1382 36.7599 25.0643 37.3745C25.1795 37.4509 25.2945 37.5272 25.4093 37.6037C25.586 37.7057 25.7326 37.8526 25.8341 38.0295C25.9356 38.2065 25.9883 38.4072 25.987 38.6112C26.0828 40.2203 25.1656 41.2518 24.0635 42.2016C23.5365 42.6573 22.8556 42.895 22.1595 42.8663C21.6153 42.8477 21.0706 42.8575 20.5275 42.8957C20.1296 42.9348 19.76 43.1186 19.4886 43.4122C19.2173 43.7058 19.0631 44.0888 19.0555 44.4885L19.2078 44.4363L20.0782 44.1589C20.129 44.4163 20.1653 44.6764 20.187 44.9379C20.2011 45.3676 20.3534 45.5275 20.7973 45.3828C21.0791 45.2915 21.4099 45.1881 21.6775 45.2534C22.3118 45.41 22.8982 45.3252 23.489 45.1141C23.6904 45.0432 23.8905 44.9741 24.0735 44.9109C24.1346 44.8898 24.1939 44.8694 24.2506 44.8497L24.5998 45.6483L25.6062 45.051C26.0817 45.3883 26.4614 45.0913 26.7094 44.6158C26.9752 44.1052 27.2125 43.5801 27.4582 43.0366C27.5685 42.7926 27.6804 42.5448 27.7974 42.293C28.1172 42.4059 28.2609 42.7205 28.4093 43.0452C28.4567 43.1491 28.5047 43.254 28.559 43.3537C28.5709 43.3757 28.5827 43.399 28.5946 43.4227C28.6471 43.5265 28.7032 43.6376 28.7918 43.6801C29.0374 43.8022 29.2939 43.9014 29.55 44.0005Z" fill="#2B5CBC"/>
</svg>
