<svg width="178" height="129" viewBox="0 0 178 129" fill="none" xmlns="http://www.w3.org/2000/svg">
<path d="M28.3348 2.00003C13.0982 15.0216 -6.48121 43.6067 37.0938 53.7747" stroke="#B95D1B" stroke-width="4"/>
<path d="M30.8959 77.4C30.6426 76.9333 30.2759 76.58 29.7959 76.34C29.3293 76.0867 28.7759 75.96 28.1359 75.96C27.0293 75.96 26.1426 76.3267 25.4759 77.06C24.8093 77.78 24.4759 78.7467 24.4759 79.96C24.4759 81.2533 24.8226 82.2667 25.5159 83C26.2226 83.72 27.1893 84.08 28.4159 84.08C29.2559 84.08 29.9626 83.8667 30.5359 83.44C31.1226 83.0133 31.5493 82.4 31.8159 81.6H27.4759V79.08H34.9159V82.26C34.6626 83.1133 34.2293 83.9067 33.6159 84.64C33.0159 85.3733 32.2493 85.9667 31.3159 86.42C30.3826 86.8733 29.3293 87.1 28.1559 87.1C26.7693 87.1 25.5293 86.8 24.4359 86.2C23.3559 85.5867 22.5093 84.74 21.8959 83.66C21.2959 82.58 20.9959 81.3467 20.9959 79.96C20.9959 78.5733 21.2959 77.34 21.8959 76.26C22.5093 75.1667 23.3559 74.32 24.4359 73.72C25.5159 73.1067 26.7493 72.8 28.1359 72.8C29.8159 72.8 31.2293 73.2067 32.3759 74.02C33.5359 74.8333 34.3026 75.96 34.6759 77.4H30.8959ZM43.9703 87L41.0503 81.7H40.2303V87H36.8103V72.96H42.5503C43.657 72.96 44.597 73.1533 45.3703 73.54C46.157 73.9267 46.7436 74.46 47.1303 75.14C47.517 75.8067 47.7103 76.5533 47.7103 77.38C47.7103 78.3133 47.4436 79.1467 46.9103 79.88C46.3903 80.6133 45.617 81.1333 44.5903 81.44L47.8303 87H43.9703ZM40.2303 79.28H42.3503C42.977 79.28 43.4436 79.1267 43.7503 78.82C44.0703 78.5133 44.2303 78.08 44.2303 77.52C44.2303 76.9867 44.0703 76.5667 43.7503 76.26C43.4436 75.9533 42.977 75.8 42.3503 75.8H40.2303V79.28ZM57.0172 87L54.0972 81.7H53.2772V87H49.8572V72.96H55.5972C56.7039 72.96 57.6439 73.1533 58.4172 73.54C59.2039 73.9267 59.7905 74.46 60.1772 75.14C60.5639 75.8067 60.7572 76.5533 60.7572 77.38C60.7572 78.3133 60.4905 79.1467 59.9572 79.88C59.4372 80.6133 58.6639 81.1333 57.6372 81.44L60.8772 87H57.0172ZM53.2772 79.28H55.3972C56.0239 79.28 56.4905 79.1267 56.7972 78.82C57.1172 78.5133 57.2772 78.08 57.2772 77.52C57.2772 76.9867 57.1172 76.5667 56.7972 76.26C56.4905 75.9533 56.0239 75.8 55.3972 75.8H53.2772V79.28ZM70.0641 87L67.1441 81.7H66.3241V87H62.9041V72.96H68.6441C69.7507 72.96 70.6907 73.1533 71.4641 73.54C72.2507 73.9267 72.8374 74.46 73.2241 75.14C73.6107 75.8067 73.8041 76.5533 73.8041 77.38C73.8041 78.3133 73.5374 79.1467 73.0041 79.88C72.4841 80.6133 71.7107 81.1333 70.6841 81.44L73.9241 87H70.0641ZM66.3241 79.28H68.4441C69.0707 79.28 69.5374 79.1267 69.8441 78.82C70.1641 78.5133 70.3241 78.08 70.3241 77.52C70.3241 76.9867 70.1641 76.5667 69.8441 76.26C69.5374 75.9533 69.0707 75.8 68.4441 75.8H66.3241V79.28Z" fill="#B95D1B"/>
</svg>
