<svg width="127" height="127" viewBox="0 0 127 127" fill="none" xmlns="http://www.w3.org/2000/svg">
<circle cx="63.5" cy="63.5" r="63.5" fill="#CA6100"/>
<path d="M39.0689 87.1204C39.0689 86.237 39.0689 85.4698 39.0689 84.7027C39.0689 83.1683 39.4518 82.629 40.921 82.1237V60.1267C39.3603 59.7873 38.9573 58.6869 39.0612 57.2347C39.1139 56.4908 39.0519 55.7391 39.0767 54.9921C39.0922 54.5519 38.9217 54.3985 38.4893 54.4155C37.8446 54.4403 37.1983 54.4372 36.5535 54.4155C35.7786 54.3907 35.3772 53.9878 35.371 53.2035C35.3617 52.1977 35.3338 51.1887 35.4237 50.1891C35.4799 49.7649 35.6847 49.3744 36.0018 49.0871C42.3148 43.6937 48.6398 38.3136 54.9766 32.947L63.5844 25.6317C64.3392 24.9901 64.8243 24.9715 65.5589 25.6038C70.3015 29.7006 75.042 33.8 79.7804 37.9019C84.1313 41.6629 88.4859 45.4192 92.844 49.1708C93.3415 49.597 93.5678 50.0558 93.5399 50.7036C93.5027 51.5266 93.5399 52.3542 93.5275 53.1834C93.5167 54.1288 93.1091 54.5271 92.1482 54.5426C91.5282 54.5519 90.9083 54.5426 90.2883 54.5566C90.209 54.5805 90.133 54.6143 90.0621 54.6573V56.9898C90.0621 58.7876 89.7629 59.2309 88.086 59.8865V81.7982C89.7164 82.1191 90.1659 83.2474 90.0698 84.76C90.0233 85.5008 90.0698 86.2479 90.0698 87.1065C90.5921 87.1065 91.0493 87.091 91.5034 87.1065C92.7541 87.1607 93.5446 87.8907 93.5926 89.129C93.6407 90.3674 93.6407 91.6553 93.5926 92.9169C93.5461 94.1428 92.7324 94.8929 91.505 94.9472C91.35 94.9549 91.195 94.9472 91.04 94.9472C73.2973 94.9472 55.5542 94.9472 37.8105 94.9472C36.8527 94.9472 35.8344 94.8495 35.5306 93.8623C34.9541 92.0024 35.0021 90.0558 35.5074 88.1805C35.7027 87.4552 36.4373 87.1111 37.2355 87.0956C37.7965 87.1049 38.3622 87.1204 39.0689 87.1204ZM37.8291 52.1125H91.0912C91.4492 51.1825 90.9362 50.623 90.2651 50.0496C83.4437 44.1798 76.629 38.2961 69.821 32.3984C68.0867 30.9012 66.3494 29.4072 64.5748 27.879L56.0599 35.1122C50.2604 40.0376 44.4578 44.9599 38.652 49.8791C37.9747 50.4541 37.4958 51.026 37.8322 52.1047L37.8291 52.1125ZM68.671 60.0663V74.2505C68.671 76.6202 68.671 78.9899 68.6834 81.3596C68.6834 81.589 68.826 81.9796 68.9795 82.0199C70.3588 82.4058 70.7385 83.3884 70.7029 84.6748C70.6827 85.4605 70.7029 86.2494 70.7029 87.0553H77.5145C77.5145 86.2339 77.5594 85.4636 77.5052 84.7011C77.4044 83.2489 77.8307 82.1656 79.365 81.8215V59.8431C77.8353 59.2356 77.5222 58.7737 77.5207 57.165C77.5207 56.3001 77.5207 55.4338 77.5207 54.5783H70.7013V57.0084C70.7013 58.9566 70.4627 59.3208 68.6741 60.0585L68.671 60.0663ZM51.5933 87.046H58.1476C58.1476 86.0169 58.0499 85.0312 58.1832 84.0734C58.2654 83.4922 58.6482 82.9141 59.0077 82.4259C59.2092 82.1578 59.6649 82.0788 60.0043 81.9145V59.9748C58.4544 59.5998 58.0344 58.5056 58.1321 57.0534C58.1894 56.2196 58.1429 55.3811 58.1429 54.5457H51.5793C51.5793 55.7747 51.5933 56.934 51.5793 58.0918C51.5638 58.9814 51.1268 59.6649 50.2867 59.919C49.6668 60.105 49.5909 60.4212 49.5924 60.9714C49.6079 67.7494 49.6115 74.5269 49.6033 81.3038C49.6033 81.4325 49.5599 81.5844 49.6141 81.6851C49.7148 81.8773 49.8373 82.1268 50.0124 82.1997C51.1856 82.6817 51.5762 83.2055 51.5948 84.4779C51.6026 85.3211 51.5933 86.1657 51.5933 87.046ZM91.2244 89.501H37.6183V92.5542H91.2244V89.501ZM81.7874 81.8509C82.846 81.8509 83.8735 81.8168 84.8964 81.8649C85.5334 81.8943 85.7302 81.7099 85.7271 81.0497C85.7039 74.2195 85.7132 67.3909 85.7116 60.5607C85.7116 60.3158 85.6822 60.0709 85.6667 59.8462H81.7921L81.7874 81.8509ZM62.4329 59.9733V82.0059C63.5178 82.0059 64.5531 81.9672 65.5791 82.0199C66.2192 82.0524 66.354 81.8106 66.354 81.2233C66.3375 74.3946 66.3328 67.5655 66.3401 60.7358C66.3401 60.4878 66.3153 60.2414 66.3013 59.9779L62.4329 59.9733ZM47.1839 82.1144V60.167H43.3481V82.1144H47.1839ZM41.4619 57.7245H49.191V54.4791H41.4619V57.7245ZM60.5436 57.5493H68.3177V54.555H60.5436V57.5493ZM79.8873 84.2238V87.0336H87.6489V84.2238H79.8873ZM87.666 54.5891H79.9059V57.3928H87.666V54.5891ZM68.3115 87.0646V84.3834H60.5498V87.0646H68.3115ZM41.4526 87.0553H49.2018V84.5523H41.4526V87.0553Z" fill="#EFD0B9"/>
<path d="M64.4019 48.8237C63.5768 48.8192 62.7608 48.6517 62.0007 48.3308C61.2405 48.0098 60.5514 47.5418 59.9728 46.9536C59.3942 46.3653 58.9376 45.6685 58.6293 44.9032C58.321 44.1379 58.167 43.3191 58.1762 42.4941C58.1901 39.0984 61.0651 36.2947 64.4965 36.3319C67.9278 36.3691 70.7408 39.2069 70.6958 42.6243C70.6807 44.2802 70.0097 45.8625 68.8299 47.0246C67.6502 48.1866 66.0578 48.8336 64.4019 48.8237V48.8237ZM64.4422 46.4772C65.2142 46.4741 65.9679 46.2421 66.6079 45.8104C67.248 45.3787 67.7455 44.7668 68.0376 44.0522C68.3297 43.3376 68.4032 42.5524 68.2488 41.796C68.0943 41.0396 67.719 40.346 67.1702 39.8031C66.6214 39.2602 65.9238 38.8923 65.1658 38.746C64.4078 38.5997 63.6234 38.6816 62.912 38.9814C62.2006 39.2811 61.5941 39.7852 61.1693 40.4298C60.7445 41.0745 60.5205 41.8306 60.5257 42.6026C60.5443 43.6316 60.9642 44.6127 61.6959 45.3365C62.4275 46.0604 63.413 46.4697 64.4422 46.4772V46.4772Z" fill="#EFD0B9"/>
</svg>
