<svg width="51" height="51" viewBox="0 0 51 51" fill="none" xmlns="http://www.w3.org/2000/svg">
<path fill-rule="evenodd" clip-rule="evenodd" d="M25.2891 50.5781C39.2558 50.5781 50.5781 39.2558 50.5781 25.2891C50.5781 11.3223 39.2558 0 25.2891 0C11.3223 0 0 11.3223 0 25.2891C0 39.2558 11.3223 50.5781 25.2891 50.5781ZM19.2846 33.5396C19.3718 33.5277 19.459 33.5158 19.5462 33.5071L19.6641 33.3255C19.5838 33.2572 19.5025 33.1899 19.4212 33.1227C19.2428 32.9752 19.0644 32.8277 18.8975 32.6683C18.4054 32.2008 18.3793 31.7036 18.8354 31.2119C19.0604 30.9672 19.299 30.737 19.5372 30.5071C19.6658 30.3831 19.7943 30.2591 19.9205 30.133C20.1805 29.8723 20.418 29.8687 20.6097 30.1968C20.6449 30.2569 20.6803 30.317 20.7156 30.377C20.9832 30.832 21.2512 31.2874 21.4896 31.7576C21.7427 32.2772 22.167 32.6939 22.6913 32.9378C23.2156 33.1818 23.8078 33.238 24.3687 33.0972C24.3814 33.0944 24.3913 33.0782 24.4077 33.0516C24.4181 33.0347 24.431 33.0137 24.4488 32.9893C24.3905 32.898 24.32 32.8151 24.2392 32.7429C23.6939 32.3707 23.1685 31.9976 23.334 31.2092C23.3369 31.1952 23.33 31.18 23.323 31.1645C23.3169 31.1509 23.3106 31.1371 23.3106 31.1238C23.2999 30.9797 23.2881 30.8357 23.2764 30.6917C23.2399 30.2453 23.2034 29.799 23.1973 29.3517C23.1955 29.2331 23.3844 29.0281 23.5104 29.0065C23.9453 28.9318 24.384 28.8805 24.8416 28.8269C25.056 28.8018 25.2745 28.7763 25.4988 28.7476C25.4461 28.8636 25.39 28.9783 25.334 29.0928C25.2074 29.3518 25.0813 29.6098 24.9958 29.8804C24.9696 29.9627 24.9419 30.0458 24.914 30.1293C24.7708 30.5588 24.6231 31.0018 24.6449 31.4285C24.6935 32.3671 24.9148 33.2788 25.6499 33.9926C25.9144 34.2524 26.1583 34.4161 26.5064 34.3424C27.0485 34.2286 27.5852 34.0935 28.1224 33.9584C28.2093 33.9365 28.2963 33.9146 28.3833 33.8928C28.4995 33.8458 28.6112 33.7883 28.7171 33.7211C28.601 33.6446 28.491 33.573 28.3854 33.5042C28.1497 33.3507 27.9362 33.2116 27.7274 33.0657C27.2955 32.7645 27.0823 32.3743 27.2955 32.0021C27.5617 31.5359 27.8728 31.0953 28.2156 30.6098C28.3698 30.3914 28.5305 30.1639 28.6964 29.9208C28.8723 30.1318 29.0471 30.3238 29.2139 30.507C29.5597 30.8867 29.871 31.2285 30.0864 31.6227C30.7279 32.7942 31.8607 33.0603 33.2714 32.6494C33.2806 32.6494 33.2852 32.6312 33.2959 32.589C33.3031 32.5606 33.3131 32.5214 33.329 32.4696C33.2455 32.4098 33.1583 32.3552 33.0681 32.306C32.4842 32.021 31.9273 31.7099 31.9048 30.9422C31.9038 30.9221 31.8882 30.9033 31.8722 30.8841C31.8573 30.8662 31.8421 30.8479 31.8382 30.828L31.8181 30.7353C31.6871 30.1296 31.5561 29.5239 31.4405 28.9157C31.4353 28.8637 31.4418 28.8112 31.4595 28.762C31.4773 28.7129 31.5058 28.6683 31.5431 28.6316C31.7332 28.4893 31.9099 28.328 32.0867 28.1667C32.4939 27.7951 32.9012 27.4235 33.4721 27.283C34.5121 27.0223 35.4056 27.319 36.2612 27.9214C36.6736 28.2093 37.1353 28.4196 37.6234 28.5417C37.8811 28.6065 38.1571 28.5883 38.4344 28.57C38.5957 28.5593 38.7574 28.5487 38.9163 28.5543L38.9219 28.5545C39.1216 28.5616 39.3736 28.5707 39.5029 28.6873C40.0364 29.1674 40.6923 29.3167 41.3545 29.4228C42.0941 29.5414 42.7518 29.3113 43.4149 28.7584C43.2601 28.7174 43.1168 28.6822 42.9818 28.649C42.705 28.5808 42.4634 28.5214 42.2299 28.4392C41.8188 28.2945 41.6316 28.0113 41.6388 27.6921C41.7381 27.747 41.8377 27.808 41.9386 27.8698C42.1699 28.0114 42.4083 28.1574 42.6663 28.245C42.6879 28.2524 42.7096 28.2598 42.7311 28.2671C43.1939 28.4247 43.6219 28.5705 43.566 29.2079C44.0618 29.1575 44.4406 29.0209 44.6169 28.6064C44.7932 28.192 44.7761 27.7946 44.4648 27.4305C44.2417 27.1688 44.0321 26.8937 43.835 26.6123C43.5507 26.2051 43.4293 25.7852 43.7541 25.3258C43.9376 25.0696 43.8422 24.8592 43.5435 24.7864C43.4134 24.754 43.2773 24.7401 43.1408 24.7262C43.0083 24.7127 42.8754 24.6992 42.7473 24.6686C42.343 24.5821 41.946 24.4649 41.5596 24.318C41.4541 24.2773 41.3774 24.163 41.3007 24.0489C41.2656 23.9965 41.2304 23.9442 41.1926 23.899C41.2258 23.8433 41.2546 23.7884 41.2825 23.7327L46.9823 23.9197C46.9871 23.8901 46.9922 23.8607 46.9973 23.8315C47.0017 23.8066 47.006 23.7818 47.0101 23.757C46.1915 23.4737 45.3403 23.3284 44.486 23.1825C43.7837 23.0625 43.0793 22.9422 42.3892 22.7446C43.9187 22.4444 45.4518 22.2582 47.0254 22.2861C46.8402 22.1387 46.6203 22.0412 46.3866 22.0029C45.8531 21.9346 45.3178 21.8717 44.7779 21.8447C43.7325 21.7919 42.687 21.7551 41.6415 21.7341C40.9541 21.7206 40.2659 21.7323 39.5794 21.762C38.6536 21.8042 38.1461 21.299 37.8276 20.5033C37.4736 19.6258 37.3384 18.6755 37.4335 17.7342C37.5064 16.9781 37.1771 16.534 36.5572 16.3488C35.9121 16.1564 34.7749 16.4648 34.585 16.9925C34.5262 17.156 34.4587 17.3179 34.3911 17.4802C34.1671 18.0178 33.941 18.5602 34.0191 19.1817C34.2116 20.7317 33.4505 20.6723 32.4266 20.346C32.2565 20.2911 32.0901 20.2219 31.9246 20.1518C31.706 20.0593 31.4872 19.9671 31.2686 19.875C30.6178 19.6008 29.9673 19.3268 29.3208 19.0442C27.802 18.3807 26.2401 17.8646 24.5801 17.7261C20.2345 17.3638 16.6122 18.7115 13.9635 22.2951C12.9923 23.6091 12.3196 25.0835 11.6454 26.5613L11.6143 26.6294C11.2058 27.524 10.7524 28.4167 10.1846 29.2151C8.82516 31.1238 6.99153 32.3887 4.69635 32.956C4.43661 33.0206 4.18143 33.1033 3.9263 33.1861C3.80495 33.2254 3.68361 33.2648 3.5618 33.3022L3.5564 33.5035C3.63384 33.5239 3.71229 33.5516 3.7908 33.5792C3.9686 33.6418 4.1467 33.7046 4.31396 33.6833C4.42443 33.6691 4.53493 33.655 4.64546 33.6409C5.76559 33.4976 6.88812 33.3541 7.99202 33.1241C10.7704 32.5434 13.2338 31.3602 15.1232 29.1683C15.2375 29.0362 15.3823 28.8914 15.5407 28.8438C15.9152 28.7313 16.2958 28.6407 16.6661 28.5525C16.8108 28.518 16.9539 28.484 17.0945 28.4491C17.0469 28.5187 16.9913 28.5923 16.9328 28.6698C16.7912 28.8574 16.6322 29.0682 16.5259 29.3023C16.3315 29.7284 16.1363 30.1852 16.0895 30.6437C15.9905 31.6173 16.3063 32.5245 16.767 33.3741C16.8216 33.4741 16.9543 33.5397 17.076 33.5998C17.0986 33.611 17.1209 33.622 17.1422 33.633C17.4684 33.8007 17.7888 33.7298 18.1099 33.6587C18.3069 33.6151 18.5041 33.5714 18.7032 33.5827C18.8958 33.5926 19.09 33.5661 19.2846 33.5396Z" fill="#DA880F"/>
</svg>
