<svg width="183" height="59" viewBox="0 0 183 59" fill="none" xmlns="http://www.w3.org/2000/svg">
<path d="M180.129 18.4524C177.214 38.8855 159.358 71.8999 111.256 40.4933" stroke="#C6756F" stroke-width="4"/>
<path d="M8.4 16.998L5.48 11.698H4.66V16.998H1.24V2.95805H6.98C8.08667 2.95805 9.02667 3.15138 9.8 3.53805C10.5867 3.92471 11.1733 4.45805 11.56 5.13805C11.9467 5.80471 12.14 6.55138 12.14 7.37805C12.14 8.31138 11.8733 9.14471 11.34 9.87805C10.82 10.6114 10.0467 11.1314 9.02 11.438L12.26 16.998H8.4ZM4.66 9.27805H6.78C7.40667 9.27805 7.87333 9.12471 8.18 8.81805C8.5 8.51138 8.66 8.07805 8.66 7.51805C8.66 6.98471 8.5 6.56471 8.18 6.25805C7.87333 5.95138 7.40667 5.79805 6.78 5.79805H4.66V9.27805ZM17.7069 5.69805V8.53805H22.2869V11.178H17.7069V14.258H22.8869V16.998H14.2869V2.95805H22.8869V5.69805H17.7069ZM33.8472 14.518H28.6072L27.7672 16.998H24.1872L29.2672 2.95805H33.2272L38.3072 16.998H34.6872L33.8472 14.518ZM32.9672 11.878L31.2272 6.73805L29.5072 11.878H32.9672ZM39.2733 9.95805C39.2733 8.57138 39.5733 7.33805 40.1733 6.25805C40.7733 5.16471 41.6066 4.31805 42.6733 3.71805C43.7533 3.10471 44.9733 2.79805 46.3333 2.79805C47.9999 2.79805 49.4266 3.23805 50.6133 4.11805C51.7999 4.99805 52.5933 6.19805 52.9933 7.71805H49.2333C48.9533 7.13138 48.5533 6.68471 48.0333 6.37805C47.5266 6.07138 46.9466 5.91805 46.2933 5.91805C45.2399 5.91805 44.3866 6.28471 43.7333 7.01805C43.0799 7.75138 42.7533 8.73138 42.7533 9.95805C42.7533 11.1847 43.0799 12.1647 43.7333 12.898C44.3866 13.6314 45.2399 13.998 46.2933 13.998C46.9466 13.998 47.5266 13.8447 48.0333 13.538C48.5533 13.2314 48.9533 12.7847 49.2333 12.198H52.9933C52.5933 13.718 51.7999 14.918 50.6133 15.798C49.4266 16.6647 47.9999 17.098 46.3333 17.098C44.9733 17.098 43.7533 16.798 42.6733 16.198C41.6066 15.5847 40.7733 14.738 40.1733 13.658C39.5733 12.578 39.2733 11.3447 39.2733 9.95805ZM67.2477 2.95805V16.998H63.8277V11.218H58.5077V16.998H55.0877V2.95805H58.5077V8.45805H63.8277V2.95805H67.2477ZM73.1366 2.95805V16.998H69.7166V2.95805H73.1366ZM88.175 16.998H84.755L79.035 8.33805V16.998H75.615V2.95805H79.035L84.755 11.658V2.95805H88.175V16.998ZM99.9741 7.39805C99.7207 6.93138 99.3541 6.57805 98.8741 6.33805C98.4074 6.08471 97.8541 5.95805 97.2141 5.95805C96.1074 5.95805 95.2207 6.32471 94.5541 7.05805C93.8874 7.77805 93.5541 8.74471 93.5541 9.95805C93.5541 11.2514 93.9007 12.2647 94.5941 12.998C95.3007 13.718 96.2674 14.078 97.4941 14.078C98.3341 14.078 99.0407 13.8647 99.6141 13.438C100.201 13.0114 100.627 12.398 100.894 11.598H96.5541V9.07805H103.994V12.258C103.741 13.1114 103.307 13.9047 102.694 14.638C102.094 15.3714 101.327 15.9647 100.394 16.418C99.4607 16.8714 98.4074 17.098 97.2341 17.098C95.8474 17.098 94.6074 16.798 93.5141 16.198C92.4341 15.5847 91.5874 14.738 90.9741 13.658C90.3741 12.578 90.0741 11.3447 90.0741 9.95805C90.0741 8.57138 90.3741 7.33805 90.9741 6.25805C91.5874 5.16471 92.4341 4.31805 93.5141 3.71805C94.5941 3.10471 95.8274 2.79805 97.2141 2.79805C98.8941 2.79805 100.307 3.20471 101.454 4.01805C102.614 4.83138 103.381 5.95805 103.754 7.39805H99.9741ZM13.8 34.998H10.38L4.66 26.338V34.998H1.24V20.958H4.66L10.38 29.658V20.958H13.8V34.998ZM19.6991 23.698V26.538H24.2791V29.178H19.6991V32.258H24.8791V34.998H16.2791V20.958H24.8791V23.698H19.6991ZM46.4194 20.958L42.7594 34.998H38.6194L36.3794 25.758L34.0594 34.998H29.9194L26.3594 20.958H30.0194L32.0394 31.178L34.5394 20.958H38.2994L40.6994 31.178L42.7394 20.958H46.4194ZM13.4 38.958V52.998H9.98V47.218H4.66V52.998H1.24V38.958H4.66V44.458H9.98V38.958H13.4ZM19.2889 41.698V44.538H23.8689V47.178H19.2889V50.258H24.4689V52.998H15.8689V38.958H24.4689V41.698H19.2889ZM30.1092 38.958V52.998H26.6892V38.958H30.1092ZM41.9077 43.398C41.6543 42.9314 41.2877 42.578 40.8077 42.338C40.341 42.0847 39.7877 41.958 39.1477 41.958C38.041 41.958 37.1543 42.3247 36.4877 43.058C35.821 43.778 35.4877 44.7447 35.4877 45.958C35.4877 47.2514 35.8343 48.2647 36.5277 48.998C37.2343 49.718 38.201 50.078 39.4277 50.078C40.2677 50.078 40.9743 49.8647 41.5477 49.438C42.1343 49.0114 42.561 48.398 42.8277 47.598H38.4877V45.078H45.9277V48.258C45.6743 49.1114 45.241 49.9047 44.6277 50.638C44.0277 51.3714 43.261 51.9647 42.3277 52.418C41.3943 52.8714 40.341 53.098 39.1677 53.098C37.781 53.098 36.541 52.798 35.4477 52.198C34.3677 51.5847 33.521 50.738 32.9077 49.658C32.3077 48.578 32.0077 47.3447 32.0077 45.958C32.0077 44.5714 32.3077 43.338 32.9077 42.258C33.521 41.1647 34.3677 40.318 35.4477 39.718C36.5277 39.1047 37.761 38.798 39.1477 38.798C40.8277 38.798 42.241 39.2047 43.3877 40.018C44.5477 40.8314 45.3143 41.958 45.6877 43.398H41.9077ZM59.982 38.958V52.998H56.562V47.218H51.242V52.998H47.822V38.958H51.242V44.458H56.562V38.958H59.982ZM72.5509 38.958V41.698H68.8309V52.998H65.4109V41.698H61.6909V38.958H72.5509ZM79.3473 53.138C78.3207 53.138 77.4007 52.9714 76.5873 52.638C75.774 52.3047 75.1207 51.8114 74.6273 51.158C74.1473 50.5047 73.894 49.718 73.8673 48.798H77.5073C77.5607 49.318 77.7407 49.718 78.0473 49.998C78.354 50.2647 78.754 50.398 79.2473 50.398C79.754 50.398 80.154 50.2847 80.4473 50.058C80.7407 49.818 80.8873 49.4914 80.8873 49.078C80.8873 48.7314 80.7673 48.4447 80.5273 48.218C80.3007 47.9914 80.014 47.8047 79.6673 47.658C79.334 47.5114 78.854 47.3447 78.2273 47.158C77.3207 46.878 76.5807 46.598 76.0073 46.318C75.434 46.038 74.9407 45.6247 74.5273 45.078C74.114 44.5314 73.9073 43.818 73.9073 42.938C73.9073 41.6314 74.3807 40.6114 75.3273 39.878C76.274 39.1314 77.5073 38.758 79.0273 38.758C80.574 38.758 81.8207 39.1314 82.7673 39.878C83.714 40.6114 84.2207 41.638 84.2873 42.958H80.5873C80.5607 42.5047 80.394 42.1514 80.0873 41.898C79.7807 41.6314 79.3873 41.498 78.9073 41.498C78.494 41.498 78.1607 41.6114 77.9073 41.838C77.654 42.0514 77.5273 42.3647 77.5273 42.778C77.5273 43.2314 77.7407 43.5847 78.1673 43.838C78.594 44.0914 79.2607 44.3647 80.1673 44.658C81.074 44.9647 81.8073 45.258 82.3673 45.538C82.9407 45.818 83.434 46.2247 83.8473 46.758C84.2607 47.2914 84.4673 47.978 84.4673 48.818C84.4673 49.618 84.2607 50.3447 83.8473 50.998C83.4473 51.6514 82.8607 52.1714 82.0873 52.558C81.314 52.9447 80.4007 53.138 79.3473 53.138ZM91.072 38.458L90.672 48.038H87.772L87.372 38.458H91.072ZM89.272 53.158C88.672 53.158 88.1787 52.9847 87.792 52.638C87.4187 52.278 87.232 51.838 87.232 51.318C87.232 50.7847 87.4187 50.338 87.792 49.978C88.1787 49.618 88.672 49.438 89.272 49.438C89.8587 49.438 90.3387 49.618 90.712 49.978C91.0987 50.338 91.292 50.7847 91.292 51.318C91.292 51.838 91.0987 52.278 90.712 52.638C90.3387 52.9847 89.8587 53.158 89.272 53.158Z" fill="#C6756F"/>
</svg>
