<svg width="119" height="148" viewBox="0 0 119 148" fill="none" xmlns="http://www.w3.org/2000/svg">
<path d="M53.12 3.99997C82.2498 17.5593 125.162 51.9459 63.7706 81.0181" stroke="#C6756F" stroke-width="4"/>
<path d="M8.4 106L5.48 100.7H4.66V106H1.24V91.9599H6.98C8.08667 91.9599 9.02667 92.1532 9.8 92.5399C10.5867 92.9265 11.1733 93.4599 11.56 94.1399C11.9467 94.8065 12.14 95.5532 12.14 96.3799C12.14 97.3132 11.8733 98.1465 11.34 98.8799C10.82 99.6132 10.0467 100.133 9.02 100.44L12.26 106H8.4ZM4.66 98.2799H6.78C7.40667 98.2799 7.87333 98.1265 8.18 97.8199C8.5 97.5132 8.66 97.0799 8.66 96.5199C8.66 95.9865 8.5 95.5665 8.18 95.2599C7.87333 94.9532 7.40667 94.7999 6.78 94.7999H4.66V98.2799ZM17.7069 94.6999V97.5399H22.2869V100.18H17.7069V103.26H22.8869V106H14.2869V91.9599H22.8869V94.6999H17.7069ZM33.8472 103.52H28.6072L27.7672 106H24.1872L29.2672 91.9599H33.2272L38.3072 106H34.6872L33.8472 103.52ZM32.9672 100.88L31.2272 95.7399L29.5072 100.88H32.9672ZM39.2733 98.9599C39.2733 97.5732 39.5733 96.3399 40.1733 95.2599C40.7733 94.1665 41.6066 93.3199 42.6733 92.7199C43.7533 92.1065 44.9733 91.7999 46.3333 91.7999C47.9999 91.7999 49.4266 92.2399 50.6133 93.1199C51.7999 93.9999 52.5933 95.1999 52.9933 96.7199H49.2333C48.9533 96.1332 48.5533 95.6865 48.0333 95.3799C47.5266 95.0732 46.9466 94.9199 46.2933 94.9199C45.2399 94.9199 44.3866 95.2865 43.7333 96.0199C43.0799 96.7532 42.7533 97.7332 42.7533 98.9599C42.7533 100.187 43.0799 101.167 43.7333 101.9C44.3866 102.633 45.2399 103 46.2933 103C46.9466 103 47.5266 102.847 48.0333 102.54C48.5533 102.233 48.9533 101.787 49.2333 101.2H52.9933C52.5933 102.72 51.7999 103.92 50.6133 104.8C49.4266 105.667 47.9999 106.1 46.3333 106.1C44.9733 106.1 43.7533 105.8 42.6733 105.2C41.6066 104.587 40.7733 103.74 40.1733 102.66C39.5733 101.58 39.2733 100.347 39.2733 98.9599ZM67.2477 91.9599V106H63.8277V100.22H58.5077V106H55.0877V91.9599H58.5077V97.4599H63.8277V91.9599H67.2477ZM73.1366 91.9599V106H69.7166V91.9599H73.1366ZM88.175 106H84.755L79.035 97.3399V106H75.615V91.9599H79.035L84.755 100.66V91.9599H88.175V106ZM99.9741 96.3999C99.7207 95.9332 99.3541 95.5799 98.8741 95.3399C98.4074 95.0865 97.8541 94.9599 97.2141 94.9599C96.1074 94.9599 95.2207 95.3265 94.5541 96.0599C93.8874 96.7799 93.5541 97.7465 93.5541 98.9599C93.5541 100.253 93.9007 101.267 94.5941 102C95.3007 102.72 96.2674 103.08 97.4941 103.08C98.3341 103.08 99.0407 102.867 99.6141 102.44C100.201 102.013 100.627 101.4 100.894 100.6H96.5541V98.0799H103.994V101.26C103.741 102.113 103.307 102.907 102.694 103.64C102.094 104.373 101.327 104.967 100.394 105.42C99.4607 105.873 98.4074 106.1 97.2341 106.1C95.8474 106.1 94.6074 105.8 93.5141 105.2C92.4341 104.587 91.5874 103.74 90.9741 102.66C90.3741 101.58 90.0741 100.347 90.0741 98.9599C90.0741 97.5732 90.3741 96.3399 90.9741 95.2599C91.5874 94.1665 92.4341 93.3199 93.5141 92.7199C94.5941 92.1065 95.8274 91.7999 97.2141 91.7999C98.8941 91.7999 100.307 92.2065 101.454 93.0199C102.614 93.8332 103.381 94.9599 103.754 96.3999H99.9741ZM13.8 124H10.38L4.66 115.34V124H1.24V109.96H4.66L10.38 118.66V109.96H13.8V124ZM19.6991 112.7V115.54H24.2791V118.18H19.6991V121.26H24.8791V124H16.2791V109.96H24.8791V112.7H19.6991ZM46.4194 109.96L42.7594 124H38.6194L36.3794 114.76L34.0594 124H29.9194L26.3594 109.96H30.0194L32.0394 120.18L34.5394 109.96H38.2994L40.6994 120.18L42.7394 109.96H46.4194ZM13.4 127.96V142H9.98V136.22H4.66V142H1.24V127.96H4.66V133.46H9.98V127.96H13.4ZM19.2889 130.7V133.54H23.8689V136.18H19.2889V139.26H24.4689V142H15.8689V127.96H24.4689V130.7H19.2889ZM30.1092 127.96V142H26.6892V127.96H30.1092ZM41.9077 132.4C41.6543 131.933 41.2877 131.58 40.8077 131.34C40.341 131.087 39.7877 130.96 39.1477 130.96C38.041 130.96 37.1543 131.327 36.4877 132.06C35.821 132.78 35.4877 133.747 35.4877 134.96C35.4877 136.253 35.8343 137.267 36.5277 138C37.2343 138.72 38.201 139.08 39.4277 139.08C40.2677 139.08 40.9743 138.867 41.5477 138.44C42.1343 138.013 42.561 137.4 42.8277 136.6H38.4877V134.08H45.9277V137.26C45.6743 138.113 45.241 138.907 44.6277 139.64C44.0277 140.373 43.261 140.967 42.3277 141.42C41.3943 141.873 40.341 142.1 39.1677 142.1C37.781 142.1 36.541 141.8 35.4477 141.2C34.3677 140.587 33.521 139.74 32.9077 138.66C32.3077 137.58 32.0077 136.347 32.0077 134.96C32.0077 133.573 32.3077 132.34 32.9077 131.26C33.521 130.167 34.3677 129.32 35.4477 128.72C36.5277 128.107 37.761 127.8 39.1477 127.8C40.8277 127.8 42.241 128.207 43.3877 129.02C44.5477 129.833 45.3143 130.96 45.6877 132.4H41.9077ZM59.982 127.96V142H56.562V136.22H51.242V142H47.822V127.96H51.242V133.46H56.562V127.96H59.982ZM72.5509 127.96V130.7H68.8309V142H65.4109V130.7H61.6909V127.96H72.5509ZM79.3473 142.14C78.3207 142.14 77.4007 141.973 76.5873 141.64C75.774 141.307 75.1207 140.813 74.6273 140.16C74.1473 139.507 73.894 138.72 73.8673 137.8H77.5073C77.5607 138.32 77.7407 138.72 78.0473 139C78.354 139.267 78.754 139.4 79.2473 139.4C79.754 139.4 80.154 139.287 80.4473 139.06C80.7407 138.82 80.8873 138.493 80.8873 138.08C80.8873 137.733 80.7673 137.447 80.5273 137.22C80.3007 136.993 80.014 136.807 79.6673 136.66C79.334 136.513 78.854 136.347 78.2273 136.16C77.3207 135.88 76.5807 135.6 76.0073 135.32C75.434 135.04 74.9407 134.627 74.5273 134.08C74.114 133.533 73.9073 132.82 73.9073 131.94C73.9073 130.633 74.3807 129.613 75.3273 128.88C76.274 128.133 77.5073 127.76 79.0273 127.76C80.574 127.76 81.8207 128.133 82.7673 128.88C83.714 129.613 84.2207 130.64 84.2873 131.96H80.5873C80.5607 131.507 80.394 131.153 80.0873 130.9C79.7807 130.633 79.3873 130.5 78.9073 130.5C78.494 130.5 78.1607 130.613 77.9073 130.84C77.654 131.053 77.5273 131.367 77.5273 131.78C77.5273 132.233 77.7407 132.587 78.1673 132.84C78.594 133.093 79.2607 133.367 80.1673 133.66C81.074 133.967 81.8073 134.26 82.3673 134.54C82.9407 134.82 83.434 135.227 83.8473 135.76C84.2607 136.293 84.4673 136.98 84.4673 137.82C84.4673 138.62 84.2607 139.347 83.8473 140C83.4473 140.653 82.8607 141.173 82.0873 141.56C81.314 141.947 80.4007 142.14 79.3473 142.14ZM91.072 127.46L90.672 137.04H87.772L87.372 127.46H91.072ZM89.272 142.16C88.672 142.16 88.1787 141.987 87.792 141.64C87.4187 141.28 87.232 140.84 87.232 140.32C87.232 139.787 87.4187 139.34 87.792 138.98C88.1787 138.62 88.672 138.44 89.272 138.44C89.8587 138.44 90.3387 138.62 90.712 138.98C91.0987 139.34 91.292 139.787 91.292 140.32C91.292 140.84 91.0987 141.28 90.712 141.64C90.3387 141.987 89.8587 142.16 89.272 142.16Z" fill="#C6756F"/>
<path d="M54 5L65 28.5" stroke="#C6756F" stroke-width="4"/>
<path d="M54 4L80 2" stroke="#C6756F" stroke-width="4"/>
</svg>
