<svg id="Layer_1" data-name="Layer 1" xmlns="http://www.w3.org/2000/svg" viewBox="0 0 369 370"><defs><style>.cls-1{fill:#eec09e;}.cls-2{fill:#ac5300;}</style></defs><path class="cls-1" d="M55,84.72l-16.5-7.5s-5-9.37-1.21-15.68S57.16,52.2,57.16,52.2l9.29,1.32s5.85-1.19,12.94,2.86c0,0,7.79-3.86,13.25,4.84a62.06,62.06,0,0,0,14.3,4.33L129.1,87.87s10.35,16.12,28.54,25.84c0,0,5.26,3,16,1.63s37.25-4,66.89,7.21c0,0,24.67,9.07,40.9,28s19.25,26.08,19.25,26.08,10.47,19.58,12.46,37.53,2.77,25.46-7.29,52-24.52,31.78-24.52,31.78-2.11,7.74-50.56,17.33-41.67,17.28-41.67,17.28-8,.93-5.09-5.59,7.15-11.52,45.72-23.58c0,0,18.16-1.23,28.94-13.29s3.37,3.57,22.22-33.61c0,0,6.07-26.28-3.84-40.35s-8-15.62-17.48-19.85c0,0-2.83-1.43-14,5.32a31.46,31.46,0,0,1,10.77,25s1.92,9.94,9.94,15.88c0,0-4.69,5.1,5.05,17.08,0,0,2.21,9.22-.55,10.92s-6-4.33-6-4.33,1.77,6.25-11,12.32l-21,3.31.67-5.21-11.26,1s3-10,11.78-13.67,9.75-5.09,9.75-5.09l.65-17.77S213,224.27,207.72,206.56l-5.14-1L187,218.85s-12.64,23.58-13.29,24.35l-1.15,4.45s3.51,13.49.73,16.44c0,0-2.3-1.56-8.72-6.65,0,0-7.05,14.19-28.4,10.15,0,0-3.47.55-4.09-2.21h-8.42s-3.33,2.61,5.79-8.94l8.74-2.92,1.81,1S150.17,248,154.37,237s5.68-6.42,8.21-23.63,9.55-24.89,9.55-24.89-.84-2.61-11.51,3a58.76,58.76,0,0,1-20.47,6.38l-10.74,24.35s-5.24-2.41-3.82-7.65l-6.71,8.2-3.17-7.26s-9.1,2-14.45-10.65,1-17.3,1-17.3,11.62-11.47,13.1-15S124,151.36,124,151.36s-18.2-34-30.24-31.86c0,0-14.58-11.08-27.87-10.65,0,0-3.08-3.41-12.73-6.73s-14.6-4.73-14.6-4.73l-3.67-7,2.46-7.18,3.9-.85,1.09.85,3-.43L46.46,85,55,84.72"/><path class="cls-2" d="M135.23,170.83c-.92,1.63-1.77,3-2.47,4.42-2.91,5.83-8.06,9.09-13.52,12.05-2.72,1.48-5.35,3.11-8,4.66-1.11.65-1.12,1.4-.5,2.46,1,1.66,1.79,3.41,2.66,5.12a2.26,2.26,0,0,1,.25.49c.71,3.08,1.4,6.15,2.17,9.54l-2.56-.3,2.8,4.43a5,5,0,0,1-4.88,0c-1.59-.77-3.11-1.7-4.64-2.59a1.26,1.26,0,0,1-.38-.6c-1.49-3.67-3-7.34-4.45-11-1.65-4.19-.65-8.08,2.07-11.34A87.37,87.37,0,0,1,113.34,178a20.55,20.55,0,0,0,6-9.86,151.34,151.34,0,0,1,5.94-14.63,3,3,0,0,0-.08-3.26c-5.2-7.94-10.17-16-15.64-23.8a20.35,20.35,0,0,0-11.71-8.08,43.42,43.42,0,0,1-14.65-7.06,16.76,16.76,0,0,0-10.35-3.61c-5.31.1-9.66-2.85-14.28-5-2.91-1.32-5.93-2.43-8.94-3.52-2.79-1-5.68-1.74-8.44-2.85a6.28,6.28,0,0,1-3.37-8.51,14.86,14.86,0,0,1,.9-2,5.45,5.45,0,0,1,1.16-1.08,10.14,10.14,0,0,1,1,1.18,15.2,15.2,0,0,1,.76,1.82A19.92,19.92,0,0,1,43.22,86c.39-.35,1.08-.87,1.35-.73a2.59,2.59,0,0,1,1,1.4,12.84,12.84,0,0,1,.41,2.05c.85-1,1.41-1.83,2.09-2.51,1.15-1.16,1.66-1,2.18.49.17.51.34,1,.56,1.72.9-.8,1.59-1.82,2.46-2,.52-.12,1.34,1.06,2.05,1.68,2.75-2.31,2.93-2.89,2.14-5.57l-1.73,1.14c-.23-1-.41-1.79-.73-3.12l-1,2.12-.71-.32-1.11-2.94L49.79,81l-1-2.55-2,1.34-.86-3.2a4.25,4.25,0,0,0-.67.43l-1.43,1.54a12.94,12.94,0,0,1-.7-2.13,27.06,27.06,0,0,1,0-3l3.59,1.94,2.89-5.54-.45-.25-2.66,3.58L46,72.88l.18-1.51-1.49.82c.43-1.27.81-2.36,1.19-3.46l-.67-.28a16,16,0,0,1-.93,1.85,10.59,10.59,0,0,1-1.2,1.31c-.37-.45-.76-.9-1.11-1.36a4.94,4.94,0,0,1-.41-.79l-.64.11c.13.75,0,1.74.44,2.19,2,2.14,2,2.77-.52,5-.16-.14-.48-.27-.5-.44-.5-4-3.29-7.53-2-12,.89-3.14,2.19-5.68,5.31-6.87,2.07-.79,4.25-1.31,6.39-1.9a53,53,0,0,0,5.38-1.4,8.37,8.37,0,0,1,6.86.19,10.78,10.78,0,0,0,8.1.75c2.33-.7,4.42.5,6.06,2.12a3.07,3.07,0,0,0,3.32.85c1.32-.34,2.69-.45,4-.71,2.34-.44,4.52,0,5.74,2.09,2.27,3.84,6,5,9.91,5.78a26.54,26.54,0,0,1,13.12,7.38c3.91,3.79,7.52,7.91,11.19,12,4.71,5.18,9.19,10.59,14.07,15.61,5.59,5.74,11.6,11.06,18.78,14.79,4.43,2.29,9.32,2.55,14.18,2.35,5.77-.24,11.51-.9,17.28-1.16a134,134,0,0,1,30,1.84,126.18,126.18,0,0,1,31.42,10.11,87,87,0,0,1,23.37,16.09,197.94,197.94,0,0,1,18.68,21.2,73.72,73.72,0,0,1,11,18.49c5,12.74,8.84,25.77,10.22,39.5,1.55,15.5-2.19,29.84-8.79,43.58a138.17,138.17,0,0,1-10.23,18.1,35.55,35.55,0,0,1-11.41,10.52c-2.61,1.53-4.9,3.6-7.48,5.18a35.34,35.34,0,0,1-7.74,3.95c-8.23,2.54-16.5,5-24.88,7s-16.94,3.15-25.41,4.78c-8.65,1.66-17.43,3-24.72,8.57-1,.75-1.85,1.64-2.8,2.44-.78.65-1.59,1.25-2.46,1.93-1.17-1.58-.55-2.76.23-3.8a35.27,35.27,0,0,1,13.26-10.53c10-4.88,20.82-6.88,31.38-9.82,7.64-2.13,15.41-3.94,22.1-8.54,6.44-4.44,12.51-9.36,16.6-16.1A188.58,188.58,0,0,0,281,261a31.83,31.83,0,0,0,2.87-11.87c.26-7.82,1.05-15.74-1.13-23.47a58.12,58.12,0,0,0-8.82-17.76c-3.72-5.27-8.1-9.92-14-12.76a5.17,5.17,0,0,0-3.73-.19,71.3,71.3,0,0,0-8,3.88c-1.61.88-3.09,2-4.73,3.09a2.75,2.75,0,0,0,.48.6c5.9,4.16,8.27,10.26,9.69,17,1.14,5.45,1.91,11,4.69,16a14.41,14.41,0,0,0,2.21,3.21,8.76,8.76,0,0,1,2.67,6.5,14.38,14.38,0,0,0,2.57,7.86,32.08,32.08,0,0,1,4.88,12.75c.2,1.19.4,2.69-1.37,3.32-1.87-1.72-2.48-4.74-5.59-5.61-.08.9-.16,1.6-.18,2.31a9.34,9.34,0,0,1-4,7.24,24.85,24.85,0,0,1-14.5,5.06c-2.74.14-5.44,1.15-8.18,1.68a9.59,9.59,0,0,1-2.25-.12c.14-.64.23-1.28.42-1.9s.47-1.15.74-1.7c-3.76-1.86-7.46-.39-11.49,0a18.8,18.8,0,0,1,1.1-2.27c1.36-1.95,2.54-4.12,4.25-5.71,1.28-1.2,3.27-1.61,4.94-2.39,3.13-1.47,6.28-2.87,9.35-4.44,1.24-.64,1.56-1.87,1.54-3.34,0-2.66.22-5.33.35-8,.11-2.17.11-4.35.37-6.51.34-2.87-1.19-4.44-3.39-5.82-3.21-2-6.3-4.16-9.45-6.25-2.33-1.54-4.69-3-7-4.61-6-4.19-11.44-8.91-14.59-15.78a28.69,28.69,0,0,0-3-5.15,5.74,5.74,0,0,0-2.6-1.38c-2.39-.89-4-.49-6,1.66-3.85,4-8.61,7.06-12.93,10.59a5.49,5.49,0,0,0-1.72,2.47,40.05,40.05,0,0,1-8.32,14.77,31.77,31.77,0,0,0-6.53,13.81,7.11,7.11,0,0,0,.44,3.27c.49,1.79,1.35,3.48,1.65,5.28a20.8,20.8,0,0,1-.08,4.92,1.24,1.24,0,0,1-.86.8c-.31,0-.7-.43-.86-.77-1.4-3-4.51-3.7-6.93-5.29-1.2-.78-1.61.65-2.19,1.4-1.23,1.6-2.2,3.54-3.75,4.73-4.66,3.56-10.17,4.25-15.87,4.06-1.84-.05-3.7.18-5.54.28-2.29.13-2.79-.43-2.23-2.8-1.08.09-2.09.21-3.11.26-1.55.06-3.1.12-4.65.1a1.35,1.35,0,0,1-1-.53c-.11-.28.17-.83.44-1.1.83-.82,1.76-1.55,2.62-2.34a17.71,17.71,0,0,1,2.57-2.42,17.42,17.42,0,0,1,4.06-1.63,6.51,6.51,0,0,1,2.6-.07c2.93.41,5-1,6.75-3.09a5.73,5.73,0,0,1,.89-.95c6.88-5.09,10.21-12.56,13.71-20,3.67-7.81,5.09-16.19,6.94-24.47a55.27,55.27,0,0,1,7.27-18,10,10,0,0,0,.56-1,.75.75,0,0,0,0-.36,7.48,7.48,0,0,0-8.19-.52,164.41,164.41,0,0,1-16,6.56c-3.24,1.16-6.74,1.6-10.08,2.54a3.22,3.22,0,0,0-1.1.68,3.34,3.34,0,0,0-.74,1.05c-1.62,3.95-3,8-4.65,11.93a87,87,0,0,1-5,9.75c-2.3-3.23-1.28-6.87-1.24-10.68-1.08,1.6-2,3.11-3.07,4.48-.56.72-1.54,1.14-2,1.88-.7,1.08-1.08,2.36-1.72,3.49a5.26,5.26,0,0,1-1.28,1.15c-.33-.45-.93-.89-1-1.37-.11-2,0-4,0-6.08l-1.2.07a20.58,20.58,0,0,1,.52-3.73,24.24,24.24,0,0,1,4.32-8.3c2.52-3,4.69-6.25,7-9.43a8,8,0,0,1,4.76-3.22,23.76,23.76,0,0,0,6.51-3.05c4.14-2.69,8.11-5.6,12.42-8.62C146.11,175.42,140.17,174.94,135.23,170.83Zm84.38,48.08-.44-.43-.37-.32c-.26-.53-.5-1.08-.79-1.59-1.54-2.69-3.14-5.32-4.63-8a10.42,10.42,0,0,1-.62-2.29l.57-.19c.27.58.51,1.18.81,1.75,1.39,2.55,2.78,5.09,4.19,7.64,1.1,2,3,3.29,3.68,5.83.42,1.63,3,2.71,4.54,4l.26-.37-1.13-1.6.77-.42a9.42,9.42,0,0,0,1.34,2.56,9,9,0,0,0,2.72,1.61c.48.23,1.15,0,1.63.26a20.64,20.64,0,0,1,2.71,1.62c1.14.78,2.22,1.64,3.33,2.47l-.36.44-4.15-2.74a2,2,0,0,0,.9,1.27c3.43,2.34,6.85,4.7,10.34,6.94.6.39,1.14,1.77,2.27.69.22.32.65.64.64,1-.06,2.11-.2,4.22-.32,6.34-.2,3.77-.81,7.6-.47,11.32a6.07,6.07,0,0,1-3.63,6.58c-2.9,1.5-6,2.6-9,3.87-1.16.49-2.35.95-3.36,1.36l3.07,2.69,1.36-1.16.2.17-2.44,3.55c1.73,1.21,2.69.86,3.17-.82l0,0c.52-.72,1-1.45,1.55-2.19l.2-.48h.12l-.07,0c-.07.18-.13.36-.2.55-.12-.38-.41-1-.32-1.08a9,9,0,0,1,2.11-1.14c2.53-.87,5.09-1.6,7.6-2.52.49-.18.85-.94,1.1-1.49.72-1.6,1.35-3.23,2-4.84l.38.12v1.7a2.36,2.36,0,0,0,0-.28l1.29.17c-.94,2.75-1.83,5.22-5,6.09a36,36,0,0,0-5.66,2.32,5.29,5.29,0,0,0-3.36,4.09c3.31-2.08,4.44.42,5.52,3l.35-.41c-.07-.43-.13-.86-.21-1.39,1.09,0,2.09-.07,1.69-1.49.84,1.08,1.69,2.12,3.11.69.14-.14.46-.07.69-.12,1.42-.3,2.83-.6,4.23-1,.26-.07.44-.45.81-.86l-8.85,1.25-.72.1v-.19l10.4-2.36c-.21,2.16,1.5.33,2.44,1-3.8,2.39-7.92,3.26-12,4.15A19,19,0,0,0,260.83,270a4.42,4.42,0,0,0,.85-2.39c.34-2.69.55-5.43.82-8.15.06-.55.19-1.1.3-1.65l.71,0a17.84,17.84,0,0,1,.4,2.3c.11,2.47,2.26,3.66,4.65,2.35l-4-4.73.63-.5c.52.72,1,1.43,1.57,2.14l.07,0h-.12a14.39,14.39,0,0,0-1.19-3.24,21.77,21.77,0,0,1-4-12,8.88,8.88,0,0,0-.86-2.61l-.71.21,3.06,14.5a10.23,10.23,0,0,1-1.34-2.28,66.55,66.55,0,0,1-1.5-6.88c-.51-3.29-1-6.47-4.06-8.62-.71-.5-1-1.63-1.44-2.47l.42-.23,3.21,3.58,0-.07-.11.06c-.46-.94-.88-1.89-1.37-2.81-2.66-5-3.54-10.56-4.7-16-1.32-6.18-3.15-12.08-8.56-16-2.2-1.6-4.62-2.89-6.93-4.35a6.09,6.09,0,0,1-.92-.76,21.57,21.57,0,0,0,3.56-2.92c2.13-2.74,4.1-5.61,6-8.48a116.19,116.19,0,0,0,10.88-18.77c.13-.29.43-.49.86-1l.26,2.25,1.56-.94c-.15,1.27-.26,2.14-.43,3.53l2.69-1.8.39,1.62,1.45-1.27,1.63,1.29-4.14,6.92.65.44c3.34-.53,2.13-4.72,4.59-6-.28,1.45-.87,2.77-1.26,4.15s-1.95,2.35-1.06,3.67a11.84,11.84,0,0,0-1.78,1.38c-.57.64-.94,1.46-1.49,2.12-1.35,1.6-2.75,3.15-4.13,4.72l-.38-.37,2-2.82c-3.33-.25-3.35,3.29-5.54,3.91-.76-1.82-1.7-.43-2.56-.13-.42.15-.8.67-1.15.63a6.12,6.12,0,0,0-5.87,3.18l4.09-1.19c-2.69,1.86-6.4,2.07-7.62,5.79,1.95,1.73,3,1.9,5.17.73.81-.44,1.52-1.08,2.33-1.53,2.52-1.42,5-2.94,7.64-4.14a8.56,8.56,0,0,1,8.85.82,46.68,46.68,0,0,1,12.55,12.78c3.67,5.57,6.85,11.36,8.59,17.87A56.41,56.41,0,0,1,285.45,246c-.63,6.17-1.82,12.34-4.61,17.94-3.2,6.42-6.87,12.61-10.41,18.86a32.83,32.83,0,0,1-2.82,3.66c7.45,3,7.45,3,8.64,5.68l-1.22.64c-1-.6-1.77-1.08-2.54-1.5-.6-.32-1.22-.57-1.82-.87-1.42-.71-2.82-1.44-4.26-2.09a.93.93,0,0,0-.44,0,1,1,0,0,0-.39.22c-1.64,1.49-3.26,3-4.91,4.53,1.3.77,2.39,1.39,3.43,2,.47.3.9.66,1.35,1l-1,1.35,0,0c-1.82.75-3.12.27-4.06-1.52a1.43,1.43,0,0,0-2.32-.57c-1.87,1.32-3.76,2.61-5.72,4l1.09,2.34,2.69,3.88L255,307.29l2.19-.7c-.3-1-.52-1.79-.76-2.58l.57-.23,1.33,2.55c2.64-.83,5.5-1.35,8-2.61,3.62-1.82,7-4.18,10.44-6.3l0,0,1.74-.81-2.24-3.58c1.07-.54,1.06-.54,1.64.72s1.26,2.41,2.87,1.16l0,.05a20.38,20.38,0,0,0,5.85-4.35c-.52-1-1.25-1.78-1.09-2.25.34-1,1.27-1.24,2.24-.54l-.05-.05c.78,1,1.51.38,2-.2q2.55-2.81,4.94-5.76a11.91,11.91,0,0,0,1.12-2.21c-1.53.32-1.53.32-1.58-1.18l-1.64.43,2.07-3.29.68,0,1.36,3.2c2-3.88,4.17-7.8,6.07-11.83,2-4.33,4.16-8.67,4.61-13.55l0,.05c.55-.65,1.35-1.2,1.6-2,.7-2.18,1.22-4.42,1.75-6.65.17-.91.3-1.83.39-2.75l-2-.66-3,1.35-2-2.17,0,.6-2,.27c-.07-1.59.18-2.35,1.76-2.13.68.1,1.85-.17,2.09-.64.76-1.45,1.79-.74,2.69-.55a16.87,16.87,0,0,1,2.81,1.15V227.85L310.13,230c-1.52-.23-2.92-1.91-4,.35-.29-.36-.48-.58-.67-.8l-.89,1.18-.68-1.7c-.22.79-.37,1.36-.62,2.26l-1.63-1.88c-.07.36-.18.87-.26,1.23l-2.59.38c-.4-2.15-.36-2.06,1.37-2.95,2.18-1.12,4.29-2.39,6.71-3.78.3.77.66,1.66.94,2.36l.77-2,.43.14c.07,1.22.13,2.44.2,3.65l.39,0v-4.24l.63-.34c.19.58.38,1.16.59,1.74l.67-.44a41.7,41.7,0,0,1-.41-5.21c.07-1.45-.77-5.25-1.49-5,0,.39.08.8.13,1.31-1,0-2.31-.39-2.92.08-1.72,1.3-3.29,1-5,.27v-.17l0-.33.06.5.43,1.26c-3,.25-5.72.51-8.47.67-.4,0-.84-.37-1.25-.58.39-.32.76-.9,1.19-.91,4.13-.3,7.59-2.46,11.27-4,.24-.1.68-.2.68-.3,0-1.66,1.79-1.5,2.25-1.42,2.07.37,1.72-.83,1.46-1.92-.44-1.87-1-3.72-1.49-5.56-.49-1.68-1.05-3.34-1.52-4.84-1,.43-1.62.75-2.29,1-1.29.49-2.85.64-3.81,1.49a4.89,4.89,0,0,1-1.69,1,5,5,0,0,1-2,.24c-.08-.39-.17-.78-.24-1.16l-.07.09.13-.07.19,1.12c-.68.26-1.44.84-2,.69s-1-1.5-.77-1.77a14.59,14.59,0,0,1,3.29-3.36c2.45-1.61,5.09-2.95,7.78-4.48-1-2.67-2-5.47-3.17-8.51L297,188.65l-.64-1.27,0,.1.12-.09L296,189.2l-1.28-1.85h-.11l.13,0c-.09.8.13,2-.3,2.32a7.12,7.12,0,0,1-3.51,1.6c-.58.05-1.28-1.38-1.8-2,1.53-1.81,3.7-2.32,4.63-4.37a1.77,1.77,0,0,1,2.39-1l-.11.21.17-.18c-.07-.22-.25-.55-.18-.62,1.05-1.09,2.14-2.14,3.29-3.27-2.28-4-4.11-8.51-7.8-12-1,3-1.41,3.11-3.46,1.2-.18-.17-.52-.15-.77-.23l-1.1-1.55.06,0-.1-.05,1.16,1.6c.38.69.79,1.35,1.12,2.06a2.28,2.28,0,0,1,0,.83l-.95-.13-.09.05h.13c.08,2.26-1.53,3.51-3.51,2.69l-.38-.37-1.1-1.5-.4-.39a2.5,2.5,0,0,1,.5-2.58c1-1.38,1.83-2.88,2.72-4.33l-.07,0,.11,0-.57-.69a11.49,11.49,0,0,0,2-2.05c.2-.34-.11-1.2-.45-1.61a75.55,75.55,0,0,0-5.94-6.91,70.68,70.68,0,0,0-6.84-5.28,3.54,3.54,0,0,0-1.2-.2l5.08,5.72-.37.35-6.84-5.72-.51.57c1.73,2.41,4.88,3.54,6.62,6.28l-3.63-1.11.05.05c.06-2-1.85-2.24-2.84-3.32-.55-.59-1.29-1.29-1.34-2a8.89,8.89,0,0,1,.85-2.87l2,1.7.39-.28-1.75-2.69.43-.37c.82.67,1.61,1.41,2.48,2a11.39,11.39,0,0,0,1.86.78l-.09.28.09-.27c-.68-.52-1.39-1-2-1.56-4.65-4-8.87-8.55-14.58-11.15a11.15,11.15,0,0,0-1.15-.4,43,43,0,0,0,3.54,3.59c.36.38.2,1.26.27,1.9a4.5,4.5,0,0,1-1.63-.17c-2.17-1.22-4.27-2.54-6.41-3.79a3.51,3.51,0,0,0-1-.27l-.11.3,7.8,4.87-.3.59-1.52-.12c.15.4.3.77.44,1.13l-.27.38-8.73-4.21.3-.75,6.46,2.48.16-.41-7.8-4.63.23-.47,1.88.22-1.14-1.49.31-.42,5.81,2.63c-.9-.77-1.91-1.31-2.85-2s-1.79-1.41-2.69-2.12l.39-.56,5.61,3.1.3-.5c-.13-.17-.22-.42-.4-.52-2.66-1.53-5.28-3.18-8-4.53-3.67-1.79-7.45-3.33-11.19-5h-.79v.09l.79-.08,2.72,2.27-2.12,1.43,1.9,1.39-.14.3-2-.27,1.9,1.54c-6.06-1.11-11.27-3.25-12-4.78l9.09,2.89c0-.17.11-.34.16-.51l-9.93-3.43.09-.44,1.23-.47-1.92-1c.48-2.17.47-2.14-1.66-2.48-2.81-.45-5.62-1-8.44-1.44l-2.14-.42,0,.28,1.63.68-.34.26c.24.64.49,1.27.89,2.34l-8.41-1.57-.11.72,9.55,2.14-.14.69-5.83-.69-.1.46,4.33,1.2c-2.63,1-8.92-.62-9.3-2.23l3,.51.09-.35-4-1.47.14-.52,1.05-.26c-.48-.6-1.39-1.2-1.36-1.76.07-1.85-1-1.79-2.28-1.78-3.84,0-7.68-.07-11.52,0-2.21,0-4.41.38-6.61.58,2.9,1.46,6.14-.45,9.42,1.62l-8.51.48v.53h7.84c-2.32,1.71-10.68,1.3-12.39-.3l2-.34.12-.5a12.84,12.84,0,0,0-3.59-1.08c-2.72,0-5.44.3-8.55.51l2.41.7,0,.64c-2.39.45-4.88-.23-7.31.17l6.43,1.12-.11.51h-6.3c0,.16-.06.32-.08.48l6.55,1.17v.45l-2.8.47,2.79.83-.17.79c-2.09-.29-4.22-.55-6.31-.93-1.72-.32-3.51-.71-2.86-3.29l1.05-.13a12.75,12.75,0,0,0-1.06-2.47,3.8,3.8,0,0,0-1.66-1.41c-2.45-.92-5-1.7-7.66-2.62l-1.86,1.42,1.08.6c-1.71,3-1.71,3-4.55,2.16a.54.54,0,0,0-.18,0l-.64-.6-.15.24.83.32,3.51,2.66-.17.3-2.66-.3-1.49-1.12-1.11-.72-.41-.43a37.81,37.81,0,0,1,.22-6.58c.48-2.35.21-4.13-1.76-5.6-2.21-1.67-3.81-4.22-6.84-4.72l-.09.09.14-.07c1.49,1.55.69,2.85-.6,4.22l-3.62-2.55c.08-1.36.17-2.37.21-3.38s-.13-2.23,1-2.93l.12.71h.09l-.13,0c0-.23-.05-.46-.08-.68-1.83-2-3.65-4-5.52-6a5,5,0,0,0-1.3-.74c.13,1.22.21,2,.3,2.82l-.6.2-5-4.16c.25-1.32.39-2.23.62-3.12,0-.18.44-.3.7-.45l.16-.13-.2.16c-.53-.78-1-1.59-1.61-2.34-1.1-1.41-2.2-2.83-3.41-4.15-.32-.34-1-.32-1.44-.42l-.3,2c-.54-.13-1.07-.27-1.6-.45-2-.76-2.14-2.74-1.93-4.78.07-.63.16-1.5-.19-1.89a36,36,0,0,0-9.43-6.94l-.42,2.66c.09,1.33.19,2.32.22,3.32,0,.46-.18.9-.18,1.37a40.47,40.47,0,0,1-1.46,12.38c-.4,1.27-.46,1.37-1.81,1A32,32,0,0,0,100.09,74a39,39,0,0,0-1.39-4.11l-.6.06,1.14-1.37h1.27l-.05-.3-1.23.32c-1-.87-1.18-2.64-3-2.66a42.56,42.56,0,0,1,1.11,5.82A6.68,6.68,0,0,1,95.76,77c0-1.23.19-2.43.21-3.63,0-2.77-.17-5.51-2.21-7.64-1.36-1.42-3-2.55-4.3-4-2.19-2.54-4.62-3.56-8-2.62a21.92,21.92,0,0,1-13.66-.92c-2-.75-4-1.69-6.07-2.36a7.78,7.78,0,0,0-4-.6c-4.85,1.2-9.68,2.52-14.44,4.07-2.77.9-4.4,4.62-3.71,7.69.78-.11,1.56-.27,2.36-.33a40.09,40.09,0,0,1,6.46-.34c8.05.74,14.87,4.31,21.15,9.28,5.08,4,10.06,8.31,16,11.15,1.56.75,3.15,1.45,4.68,2.28.47.26.75.85,1.11,1.29a4,4,0,0,1-1.37.6c-1.24.06-2.48,0-3.72-.06-6.13-.21-12.26-.69-18.38-.56-6.87.15-13.75,1-20.63.11a6.51,6.51,0,0,0-1.43.16c2.63,3.67,16.61,8.47,19.86,7.16a8.39,8.39,0,0,0,1.5,1.3c1.44.72,3,1.29,4.41,2,3.43,1.64,6.95,3.09,10.82,3,4.32-.14,8.59-.64,11.64-4.51,1.25,2.69,2.54.09,4.12.24l-2,1.8a4.59,4.59,0,0,0-.39.37l0,0,.39-.37,2-.16,0-.07a27.57,27.57,0,0,1-2.67,2c-1.11.62-2.28,1.07-1,3-1.7-1.08-2.79-1.46-3,.64,0,.17-.9.43-1.32.35s-.81-.53-1.2-.81c-.13-1.36-1-1.74-2.35-1.26l2.39,1.22c-.64,0-1.57.27-1.86-.05-1.41-1.55-3.19-1.27-4.94-1.32-1.29,0-2.58-.35-3.89-.32-2.46,0-4.92.25-7.38.39l0,.77a15.15,15.15,0,0,0,2.88.46c1.6,0,3.2-.33,4.8-.53.8-.1,1.4-.23,2,.78.3.55,1.59.63,2.46.77.12,0,.39-.83.65-1.44L87.33,108l-.15.35-3.09-.48-.11.69,3.51,1.11-2.88.7a11.39,11.39,0,0,0,1.79,1.44c3.45,1.64,6.9,3.29,10.41,4.78,2.36,1,5.09,1.36,7.18,2.7,3.71,2.39,7.1,5.25,9.19,9.35a17.1,17.1,0,0,0,2.47,2.87c-.12,1.89,1.64,3.28,2.85,5l0,0c1.57,2.41,3.11,4.83,4.72,7.22.31.47,1,.72,1.25,1.19.9,1.48,1.68,3,2.51,4.54l0,0a5.82,5.82,0,0,0,.17.83c1.35,3.53,2.58,7.1,4.1,10.55a62.69,62.69,0,0,0,3.55,6.2h0a8.7,8.7,0,0,0,5.21,5.17c4.52,1.49,9.18,2.62,13.78,3.89l.3-.44c-.6-1-1.29-2.05-1.79-3.15a5.82,5.82,0,0,0-5.18-3.83c-5.08-.42-8.52-3.8-10.78-7.73-3.22-5.6-5.51-11.73-8.15-17.64-.11-.24.34-.73.37-.78,1.75,1.69.82,4.5,3.32,5.68a1.16,1.16,0,0,1,.4,1.07c-.92,1.58-.09,1.82,1.24,1.8.11,0,.23.23.44.48l-1.53.51c.64,1,1.19,1.88,1.76,2.72l.63-.36c-1.33,2.21.46,3.59,1.41,5.19.07.12.88-.05,1.17-.3s.08-.7.12-1.26c.32.29.46.4.58.52s.21.28.18.3c-1.6,2,0,2.9,1.17,4.27.85,1,1.35,1.64,2.63,1l-.05-.05c.06,2.32.55,2.79,3,2.79-.15-.69-.3-1.35-.47-2.14,2,.36,1.1,1.64,1,2.58l3.78,1,.33-.51-2.28-2.39c-.24-2.9-2.59-5.17-4-8,1.43-.6,1.92.4,2.39,1.17,2,3.31,4,6.67,6.1,10a10.32,10.32,0,0,0,1.61,1.63l-.1.23.15-.21-6.77-12.43.45-.25c4.43,7.84,8.86,15.69,13.5,23.87-1.24-.75-2.56-1.19-3.29-2.09-1.38-1.72-2.62-1.51-4.26-.5-2.54,1.55-5.13,3-7.8,4.35s-4.71,3.39-7.34,4.65c-1.38.66-2.72,1.66-4.18,1.88a5.53,5.53,0,0,0-4,2.3c-2.87,3.89-5.81,7.71-8.62,11.63-.3.4,0,1.23,0,1.86l.75.22a4.23,4.23,0,0,1,.3-.69c1.51-2.49,3-5,4.56-7.46a11.83,11.83,0,0,1,1.28-1.47l.59.47a15.29,15.29,0,0,1-.76,1.58c-2.33,3.73-4.66,7.48-7,11.16-1.08,1.68-.84,2.35,1.06,2.92,1.18.35,1.74-.23,2.25-1.09l.63-.21-.09-.22.16,0a2.27,2.27,0,0,1-.06.25l-.6.26H123a32.6,32.6,0,0,1,3.56-4.76c1.37-1.28,3.13-2.21,3.62-4.65l-1.44,1.32c.38-2.69,1-3.19,3-2.52-1.24,3.73-2.47,7.5-3.69,11.28,3.15.72,3.15.72,3.59-1.79a4.45,4.45,0,0,1,.24-.7c1.49-4.06,3-8.13,2.77-12.56,0-.33.32-.67.5-1l.3.08c-.1,2.07-.19,4.15-.29,6.3,1.08-1.7,1.25-2.79,1.13-5.94a3,3,0,0,1,.55-1.65c1.76.21,2.71-.81,3.58-2.09.12-.17.53-.15.88-.23-.07.47-.12.78-.14.9,10.09-1.52,19.23-5.68,28.32-10l.22.56-4,2.39-2.44,1c-.64.23-1.29.42-1.91.69a73.55,73.55,0,0,1-15.38,5.14,29.51,29.51,0,0,0-5,2h-2.09l0,.48,2.06-.48a4.21,4.21,0,0,1,.84-.3,68.14,68.14,0,0,0,19.56-6.05,11.87,11.87,0,0,0,1.89-1.47l2.42-1c1.36-.57,2.69-1.19,4.06-1.7a2.35,2.35,0,0,0,1.62-2.91,70.41,70.41,0,0,0-1.59-8.76c-1.8-5.79-4-11.46-5.93-17.2a4.81,4.81,0,0,1,0-1.65c.45.39,1.1.68,1.31,1.17,1.22,2.84,2.32,5.74,3.51,8.59a15.75,15.75,0,0,0,1.17,1.92c-.77,1.7,1.06,5.79,2.69,6,.82,1,1.77,2.35,2.76,2.38,2.12.07,3.73.16,3.43,2.39l4.29,2.3,1.36-2.17.42.12V179c2.51.14,4.78.44,6.4,2.66.57.78,1.77,1.11,3.17,1.94-.26-1.4-.42-2.2-.57-3,1.09,1.52,1.71,3.29,2.83,4.62a32.13,32.13,0,0,0,4.34,3.75h0l3.2,2.92c.54-3.64.92-7.52,1.74-11.31s2.14-7.63,3.2-11.44c1-3.64,2-7.29,3-10.94l1.05.3-3.42,13.77.5.13q2-6.45,4-12.89l.46.15c-.57,5.59-3.16,10.57-4.94,15.91l-1.14-.9c-.59,2.53-1.14,4.88-1.66,7.23-1.42,6.42-1.8,12.8,1.24,18.91,2.13,4.26,4.27,8.54,6.68,12.65,1,1.75,2.73,3.11,4.12,4.64l.37.32.46.42.3.47.59.23,0,.1s0-.1,0-.09-.35-.13-.52-.21ZM126.35,89.76l-.07,0h.11l0,.17v-.2Zm130.52,47h-.06l.1,0,.17.1L257,137A1.29,1.29,0,0,0,256.87,136.79ZM260,138.5c0,.08,0,.16,0,.1s0,0,0-.09,0,.13,0,.15h-.16a1.57,1.57,0,0,1-.05-.3ZM151.94,178l.22-.11,0,.27-.2-.14Zm97.33,86.21.46-.67.17-.2-.12.25-.45.68c-.06.13-.12.25,0,.09C249.29,264.54,249.28,264.39,249.27,264.23Zm-93.79-89.55.05-.06-.11,0-.21-.13.28-.11C155.49,174.5,155.48,174.59,155.48,174.68ZM83.24,109.17l0,0-.72-.35-.06.27Zm41.41-21.62-.1,0,.14,0v.69l.3-.06c-.12-.22-.24-.46-.34-.66Zm48.92,148.2,1.86-1.76,1.74-2.37c-1.76-.19-2.2.42-1.74,2.39-1.69-.56-1.22,1.21-1.88,1.77v.72h0Zm-3.78-36.54,1.75-2.09-.53-.33-1.23,2.42a1.23,1.23,0,0,0,0,.33.65.65,0,0,0,.09.16ZM47.07,95.55l2.6.32v-.52c-.87-.37-1.77-1.52-2.57.23L44.37,95C45.12,96.2,46.07,96.05,47.07,95.55Zm185.25,28.91h.92l0-.22-.92.23c-1-1.91-2.93-1.54-4.59-1.86l4.61,1.85ZM126.18,155.78l-2.86,3.87.44.33,1.18-1c-.55,2.43-1,2.95-2.06,2.19-1.18,4-2.29,8-3.51,11.84a7.4,7.4,0,0,1-1.63,2.82c-1.32,1.37-2.91,2.46-4.27,3.79s-2.11,2.81-3.47,3.79a22.15,22.15,0,0,0-6.36,7.62,8.71,8.71,0,0,0-.8,7.69c1,2.68,2.13,5.42,3.36,8.07,1.69,3.64,1.92,3.65,5.31,1.35,0,0,.06-.11.16-.32l-1.42-2.07-.25.11c.11.69.23,1.37.34,2.05-.66-.36-1.23-.88-1.2-1.37.15-2.35-1.79-3.68-2.57-5.56-.43-1-1.1-1.95-1.57-3a4.68,4.68,0,0,1-.19-1.37l.51-.16c.34.47.71.93,1,1.43,1,1.64,2,3.29,3,5,.6,1.07,1.26,1.19,2.14.4l-4-9.34.55-.21c.75,1.61,1.54,3.19,2.24,4.81,1.64,3.81,1.62,3.81,3.1,4.14l-5.5-10.92,2.3-.21c-1.33-1.22-1.78-2.57-.55-3.61a27.59,27.59,0,0,1,4.22-2.5l.16.23-1,1.45c.71,0,1.45-.26,1.5-.6.47-2.89,3.14-3,5-4.13,1.36-.84,2.61-1.53,3.94,0a2.13,2.13,0,0,0,.42-.23l-.75-1.68c1.25.23,2.52,1.39,3.06-.66-1.59-.67-1.53-1.48-.22-2.5.3-.24.23-1,.28-1.23l-5,4.49,0,0a7.53,7.53,0,0,1,.45-.95c1.51-2.39,3.09-4.74,4.52-7.18.66-1.11.72-2.75,1.6-3.52,1.4-1.24.9-2-.09-3.29l-2,2.69c.41-1.59.69-2.66,1-3.69,2.34-.11,2.67,2.34,4.22,3.61a5,5,0,0,0-.37-2.45,29.25,29.25,0,0,1-1.67-3.94,16.75,16.75,0,0,1-.06-3.75l-.51,0-1.86,2.59c.21-2,2.2-3.37,1-5.38l-1.2.57a.54.54,0,0,1-.09-.12s0-.08,0-.13a.86.86,0,0,1,0,.23Zm32.95,79.84,1.71-1.82c-3,8.41-7.36,15.8-15,20.77,1.13-1.34,2.43-2.51,3.66-3.75a50.62,50.62,0,0,0,3.67-3.94,38.23,38.23,0,0,0,3.16-4.6c.86-1.46,1.49-3.06,2.21-4.6-2.23,2.88-3.92,6.11-6.25,8.81-3,3.43-6.43,6.43-9.71,9.58a2.27,2.27,0,0,1-1.21.43c-2.22.35-4.44.66-6.66,1,2.09,1.13,1.61,3,1.12,5.29,1-.77,2-1.12,2.14-1.72.93-3.13,3.73-3.89,6.14-4,3.69-.19,6-1.91,7.94-4.67a26.74,26.74,0,0,1,2.54-2.69l.59.54c-1.94,2.3-3.28,5.29-6,6.7s-5.75,1.91-8.77,2.86c3.87.61,4,.81,4.22,4.74,6.38.58,14.78-1.91,16.7-9.21-3.86,5.16-8.07,9.49-15.56,8.4,1-.53,1.83-1.36,2.49-1.24,2,.37,3.38-.6,5.06-1.26,3.13-1.24,5.11-3.59,7.16-6,.35-.41.85-1.15,1.15-1.09,1.89.38,1.8-1.15,2.19-2.14.72-1.8,1.37-3.64,2.06-5.46l.62.26-2,4.94.73.42,2.39-3.39c.11,2.34-2.17,4-1.58,6.73l2.1-2.3.39.36-1.6,2.34,1.4,1.28c.17-1.39.5-2.37,2.16-1a14.2,14.2,0,0,0-.23-3.19c-.51-2.5-1.59-5-1.45-7.47.11-2-1.23-2.58-1.64-4.45l-1.11,2.45c1.09-8.33,5.34-15.16,10-21.83a2.65,2.65,0,0,1-.45,1.5q-4,7.78-8,15.55c-.49.95-.7,1.92,1.14,2.25-.06-.93-.12-1.79-.17-2.64,1.24-2,2.12-4.16,3.26-6.21a45.29,45.29,0,0,1,4-6.18c1.44-1.82,2.11-4.28,4.31-5.75.34,1.5-2.07,2.34-.37,4.06a7.45,7.45,0,0,0,.6-1.5c.25-2.69,1.89-4.32,4-5.85,4.7-3.45,9.27-7.06,13.83-10.7a19.91,19.91,0,0,0,2.52-2.94l-.48-.51a12.11,12.11,0,0,0-1.55,1c-2.63,2.39-5.22,4.81-7.85,7.18a10.36,10.36,0,0,1-2.88,2.3,24.86,24.86,0,0,0-8.37,5.39,4.4,4.4,0,0,1-.92.53l-.33-.46c1.6-1.33,3.12-2.78,4.81-4,1.23-.85,1.52-1.63.34-3.22l-7.09,7.31c1.59-3.66,4.52-5.88,6.9-8.6l-1.6.93c.14-1.22,2.38-1.9.58-3.34l-1.45,1.36c.81-3.2.81-3.2-1-3,1.72-2.45,3.29-4.74,4.92-7,.7-1,1.05-1.83-.52-2.48l-6,8.81a1.18,1.18,0,0,1-.06-.56,1.13,1.13,0,0,1,.19-.52c1.56-2.54,3.11-5.08,4.7-7.59.52-.82.87-1.52-.56-2.12l-7.13,10.7a8,8,0,0,1,1.07-3.07c1.54-2.48,3.16-4.89,4.78-7.32.57-.85.82-1.54-.8-2.09l-7.47,12.67a4.88,4.88,0,0,1,.6-2.42c1.91-3.41,3.9-6.77,5.8-10.18.2-.37,0-1,0-1.46-.42.1-1.07.06-1.23.32a39.12,39.12,0,0,0-3,5.36c-.3.68-.32,1.29-1,1.82-.5.37-.55,1.32-.9,2-.52,1-.89,2.33-1.73,2.77-2,1.07-2.09.9-1.31,2.5a19.62,19.62,0,0,0-1.44,2.67c-.52,1.45-.81,3-1.35,4.44-.77,2.09-1.75,4.1-2.51,6.19-1.4,3.89-2.69,7.83-4,11.74-.51,1.45-1,2.89-1.56,4.33l-.35.71.3.1ZM207.2,203c-.66-1.85-1.24-3.33-1.72-4.84-1-3.16-1.54-4.44-3.82-6.68-5.1-5-10.59-9.49-17.7-11.52a24.82,24.82,0,0,1-11.19-6.36,8.06,8.06,0,0,0-1.22-.8c.57,3.71,1.09,7.19,1.6,10.54l-2,1.75c2.21.81,3.95,1.41,5.65,2.09,4.9,1.94,9.75,3.94,13.53,7.87C194.83,199.69,200.53,201.9,207.2,203Zm47.71,104.45c-1.87-1.69-3.36-3-4.87-4.38s-6.55-1.23-7.94.33a2.07,2.07,0,0,0-.16,1.29c.22,2.81-.18,3.29-2.54,3-1-1-2.12-2.55-3.17-2.49-2.39.14-4.71,1.08-7.26,1.74l3.07,5.87Zm-39,7.24c0,.18.08.36.11.54,2.58-.84,5.8.67,7.86-2.57l.67,1.51c1.47-1,4.13.46,4.15-2.59a13.49,13.49,0,0,0-1.2-1.07c-1.1-.79-2.27-2.2-3.36-2.16-2,.08-4,1-6,1.61.08,1.61.14,3.05.21,4.48ZM74.52,88.55l12,.84.17-.43c-.82-.47-1.65-.91-2.44-1.42-1.34-.87-3.31-.63-4.2-2.33,0-.06-.23,0-.37-.06l-.82,1.51c-.56-1.43-.88-2.24-1.27-3.25l-1.27,1.65-1-2.75C75,84.69,74.8,86.49,74.52,88.55ZM60.35,83.29c.22-1.79.26-1.83,2.49-4.48.26-.3.25-.85.37-1.29-.44,0-1-.08-1.31.13-2.69,1.71-4,7.35-2.26,10.59A31,31,0,0,0,62,85.41c1.25-1.88,2.27-3.93,3.59-5.76.72-1,.71-1.67,0-2.43ZM213,314.78l1.66.65c.15-.68.65-1.62.38-2-.6-.84-1.73-2.07-2.42-1.94a25.05,25.05,0,0,0-5.25,2.05c-.06,0,.1.45.08.68,0,.45-.13.9-.2,1.35C210.62,316.9,211.92,316.7,213,314.78Zm-160-237a31.57,31.57,0,0,1,2.47-3.51c1.19-1.34,1.3-1.26.68-2.78l-4.15,4.63-.47-.33,1.87-3.36L52.79,72,49.4,75.58a9.88,9.88,0,0,1,.79-2.41c.08-.26-.3-.68-.48-1A14.9,14.9,0,0,0,48,74.71c-.1.22.69,1,1.19,1.29C50.36,76.64,51.57,77.13,52.93,77.77ZM206.08,317.4c.49-2.09-1.12-1.9-2-2.21-1.35-.49-5.63,1.75-6.69,3.36l1.47,1.35,1-1.55C202.19,319.17,204,317.27,206.08,317.4Zm-78.51-54.32c2.2-.26,3.92-.52,5.66-.63,1.19-.08,1.89-.82,1.59-1.73a2.62,2.62,0,0,0-2-1.44C130.7,259.51,129,260.63,127.57,263.08Zm8.18,1.32.3.94c1.81-.24,3.63-.44,5.43-.73,1-.17,2.11-.45,1.69-1.86a1.74,1.74,0,0,0-2.53-1.16C138.94,262.38,137.37,263.45,135.75,264.4Zm90.81,10a32,32,0,0,0,4.56-.69c.56-.17.87-1.16,1.3-1.77-.6-.41-1.15-1.11-1.75-1.15-1.67-.08-3.37,1.46-4.11,3.61Zm9.51,4.26c1.71-.4,3-.62,4.19-1,.72-.23,2-.29,1.36-1.62-.46-.93-1-1.65-2.48-1s-2.19,1.83-3.07,3.64ZM57.62,79.38l-.44-.24c.77-1.22,1.55-2.43,2.33-3.65l-.45-.37-3.55,4,2.73,1.37,4.66-5.45-.34-.32ZM44.85,92.24c-.6-2.81-2.69-2.51-4.47-2.69a5.55,5.55,0,0,0-1.86.42l.12.58,3.58.6-.08.36L41.05,92l.1.26Zm143.88,233,.51.55c1.93-2.29,5.27-3.08,6.64-6l-.6-.66ZM74.56,104.05c-1.79-1.92-3.55-2-7.24-.52C69.77,104.92,72.13,103.46,74.56,104.05Zm-17.4-4.59v.65H65v-.65Zm72.24,68.77c-.94,1.66.41,4.29,2.7,5.84l1-2-1.24.28c-.78-1.29-1.53-2.57-2.45-4.12ZM70.11,102c-2.12-1.87-4.48-1.17-7.32-.69C65.41,103.08,67.84,101.72,70.11,102ZM180.49,225.66l.83.37c1-2.15,1.91-4.31,2.87-6.46l-.76-.34Zm14.78-20c2-1.06,2.06-1.71.57-3.69-1.87.82-1.93,1.2-.57,3.69Zm-65.51-28.2c1.72-2,1.72-2-.76-4l.9,2.85-1.76-1C127.86,176.33,127.86,176.33,129.76,177.41Zm55.06,23.92-.59,0a13.32,13.32,0,0,0-1.45,1.86,10.13,10.13,0,0,0-.65,2l.93.28c.17-.7.34-1.4.51-2.08.41-.08,1.26,0,1.5-.37s-.14-1.1-.25-1.68ZM74.38,58.23c-1.69-2.11-3.27-2.37-5.21-1ZM186.6,210c-1.92.47-2,1.56-1.32,3C187.54,212.69,187.71,212.35,186.6,210Zm-77.23.94,4,2.16c-1.15-3-2-3.43-4-2.17Zm-57-113,0,.49h6.16l0-.77ZM256.42,186.1c2.4.5,2.86-1,3.59-2.47C257.86,183.13,257.35,184.63,256.42,186.1Zm-.17-1.87-.45-.55-3.45,2.95c2.66.41,3.22-1.07,3.9-2.4ZM57.9,74.45a4,4,0,0,0-3.4,2.71c-.09.19.08.6.25.79a.69.69,0,0,0,.32.08.65.65,0,0,0,.31-.08C56.17,76.91,56.9,75.85,57.9,74.45ZM190.83,209.54c1.15-.75,1.85-1.49,1-2.64a1.22,1.22,0,0,0-1.19-.12C189.51,207.66,190.19,208.55,190.83,209.54Zm-21.9-5.43-.56-.14q-.85,3.59-1.71,7.2l.46.11,1.8-7.17Zm36.86-85.76-.11.56,7.25,1.64.15-.68ZM121.46,213.4c-.85.14-1.55.09-1.61.28-.4,1.13-.66,2.32-1,3.49l.6.17Zm56.35,18,2.82-4.29c-2.06.69-3.47,3-2.82,4.29Zm12.26-33.64-1.53-1.25c-.38.47-1,.92-1.06,1.45,0,.29.75,1,1.16,1s.83-.68,1.42-1.21Zm-1.73,13.65c1.9-.8,2-1.31.5-3.14-1.82.82-1,2-.51,3.14Zm69.93-28.79c2.33.78,2.93-.17,3.29-1.49l-.39-.57Zm-9.3,4.46.62.83,2.84-2.33-.56-.73ZM119.73,184l-.22-.52c-1.77-.25-2.77,1-4,1.88l.26.54Zm-1.43,25.5.4.17a17.82,17.82,0,0,0,1.5-1.85c.19-.32.09-.83.13-1.26-.39.25-.92.42-1.14.77a14.75,14.75,0,0,0-.89,2.17Zm72.84-10.64c-1.7.77-2.24,1.35-1.39,2.29.25.27.79.27,1.2.4C191,200.79,191.06,200,191.14,198.86Zm62.72-10.51-.52-1-2.61,1.5.41.77Zm-67.29,8.56a5.55,5.55,0,0,0,.92-1.73c0-.24-.63-.59-1-.89a4.27,4.27,0,0,0-.95,1.35C185.49,195.92,186.08,196.33,186.57,196.91Zm1.72,7.15c1.74-1.24.67-1.92-.23-2.71C186.69,202.35,187.29,203.14,188.29,204.06ZM47,96.86l.08.53,5-.34,0-.44ZM186.26,201.45c1.29-.75,1.42-1.49.13-2.39C185,200.14,185,200.14,186.26,201.45ZM171.36,200l.86.4,1.23-2.69-.83-.38ZM46.46,93.83l0-.8-3.89.25,0,.55Zm83.39,120c-1.72,0-1.9.5-1.34,3.45Zm-17.27-9.39-.86.54,1.75,2.58.59-.38ZM185,205.73l-1.14-.17c0,.7-.1,1.41-.08,2.11a2.78,2.78,0,0,0,.86.11C184.76,207.11,184.85,206.42,185,205.73ZM49,86.59l-2,2.3,2.47.25C49.34,88.3,49.24,87.73,49,86.59ZM186.51,203.48l-1,.23a11.07,11.07,0,0,0,.41,1.88c0,.09.77-.07,1.18-.12C186.91,204.81,186.71,204.14,186.51,203.48Zm70.78-23.78.65.75c.56-.46,1.14-.9,1.66-1.42a6.63,6.63,0,0,0-.57-.74Zm.92,1.92-.6-.64-1.88,1.78.6.65Zm-4.1-1.16.56.6,1.92-1.83-.58-.6Zm-60.53,24-1,.2c.2.71.38,1.43.63,2.12,0,.07.52,0,.8-.06C193.86,206,193.72,205.23,193.58,204.47Zm58.48-21.09.49.67,2.09-1.52-.48-.67ZM131.54,168l.12,2.61C133,169.77,133.46,169,131.54,168ZM57.92,87.7l-.57-.16L56.23,89c.72.34,1.41.44,1.64.16S57.92,88.2,57.92,87.7ZM189.13,206c1.59-.36,2.23-.92.51-2.24C189.43,204.69,189.27,205.35,189.13,206Zm57.94-16.34.33.77,2.42-1.31-.32-.63Zm-63.25,4.71.92.2c.12-.55.25-1.11.37-1.66a5.47,5.47,0,0,0-1.06-.11,9.29,9.29,0,0,0-.23,1.57Zm-54.93-21.13c-.19-1-.3-1.72-.51-2.79C127.09,171.77,127,172.52,128.89,173.25Zm130.42.59-.74-.64L257.2,175l.68.57Zm-81.45,52.73h.95a15.27,15.27,0,0,0-.14-1.66,4.52,4.52,0,0,0-.9,0C177.8,225.47,177.83,226,177.86,226.57Zm-4.58-34.36.72.42,1-1.92-.63-.35Zm4.53,35.68-1.2-.84a4.09,4.09,0,0,0-.7,1.12c0,.17.54.71.68.66A5.19,5.19,0,0,0,177.81,227.89Zm-6.37-32.43.67.39,1.14-2-.62-.36Zm3.81-.9-.81-.42-1,2.11.68.32ZM61,71.78c-.05.86-.09,1.47-.14,2.35C62.51,72.59,62.51,72.59,61,71.78Zm110.79,185.3-1.75.5,1.75,1.95ZM42.55,88.57c1,0,1.74,0,1.79-.12a4.68,4.68,0,0,0,.06-1.55L44,86.79Zm148,114.78c.66.3,1,.6,1.42.58a1,1,0,0,0,.45-.29,1.11,1.11,0,0,0,.25-.48c0-.32-.41-.64-.64-.95Zm76.8,61.14,1.71,1.85C269.06,265.35,269.41,264.08,267.35,264.49Zm-12.9-88.86.68.45,1.14-1.75-.6-.4ZM172,202c-.4-.24-.7-.57-.93-.52s-.45.42-.67.66c.28.24.52.6.84.66C171.37,202.79,171.64,202.31,172,202Zm3.19-9,.63.4,1-1.55-.59-.38c-.34.51-.68,1-1,1.53Zm13.16,13.3-.74-.26-.64,1.43c.3.07.83.26.87.19a7.68,7.68,0,0,0,.5-1.36ZM52,88.92l.32.53a4.32,4.32,0,0,0,1.26-.54c.11-.09-.19-.67-.39-1.32Zm-12-2.25h-.53l-.77,1.71c.68-.12,1.33-.13,1.36-.27A5,5,0,0,0,40.06,86.67ZM171.31,238.1l-.83-.14-.27,1.86.67.12ZM54.83,68.85l-.83.23.33,1.37.69-.12Zm57,119.22-1-1-1.39,1.25.94,1ZM60.49,89l.16.39a4.43,4.43,0,0,0,1.4-.35c.12-.07-.13-.76-.3-1.51ZM186.23,208.43l-.72-.5-1.08,1.51.55.41Zm66.46-27.88-.47-.41L251,181.68l.38.32ZM115.38,188l-.39-.6-1.76,1.18.34.47Zm66.51,3.27-.33.54,1.19.84a3.82,3.82,0,0,0,.34-.74,9.9,9.9,0,0,0-1.2-.64Zm-7.68,39.89.7.17.45-1.65-.76-.19Zm-62-41.29-.25-.58-1.67,1,.37.6ZM257.9,176.76l-.49-.51-1.16,1.16.39.41ZM64.24,75.33l.69.11c0-.44.07-.9.07-1.33a3,3,0,0,0-.6,0C64.32,74.48,64.29,74.89,64.24,75.33Zm70,94.59-.5-.23-.92,1.78.47.23ZM69.55,79.21l.56.3.63-1.16a6.28,6.28,0,0,0-.59-.27A12.21,12.21,0,0,0,69.55,79.21ZM250.4,184.06l-.6-.62-1.31,1.14.61.64Zm-122.51-6.18c-.43-.24-.79-.57-1-.49a1,1,0,0,0-.36.34,1.12,1.12,0,0,0-.17.46.9.9,0,0,0,.7.49C127.35,178.62,127.54,178.25,127.89,177.88ZM121.22,182a4.9,4.9,0,0,0-.6,1c0,.09.5.47.64.41a1.33,1.33,0,0,0,.38-.29,1.27,1.27,0,0,0,.23-.41C121.91,182.53,121.53,182.27,121.22,182Zm-74.29-113,.51.17.6-1.23-.8-.25ZM127.2,173.53l-.71.06v1.24a4.27,4.27,0,0,0,.81-.11,6.75,6.75,0,0,0-.1-1.19ZM64.32,103.37l-.2.55,1.57.48.16-.5ZM171.54,237l.78-.07c-.11-.6-.23-1.2-.34-1.8l-.58.09C171.45,235.85,171.5,236.45,171.54,237ZM42.71,68.67l.52.38.8-1.11-.52-.38Zm150.66,132.9.53.3.62-1.15-.6-.3C193.73,200.8,193.55,201.19,193.37,201.57ZM231,312.68l-.19-.6-1.21.46c.06.16.12.33.17.5ZM198.71,202.47c-.41-.23-.63-.44-.87-.47s-.48.3-.46.38c.09.25.28.6.48.64S198.3,202.75,198.71,202.47ZM57.8,71.74l.48.05.18-1.4-.66-.07Zm60.28,114.81-.25-.43-1.35.77.24.43Zm54.77,47,.55,0c0-.46-.07-.91-.1-1.38l-.45,0ZM50.6,69.46l.56.15.41-1.24-.66-.19Zm9.75,32-.16.48,1.13.37.15-.4ZM307.77,215l.45-.21-.69-1.45-.4.19c.21.5.43,1,.64,1.48Zm-53.22-37.1-.39-.52-1.1,1,.3.38Zm-78.2-3.35L176,175c.36.23.73.47,1.1.69a3,3,0,0,0,.27-.35Zm71.44,12.89-.39-.25-.6,1,.26.17ZM170,241.52l-.47-.25c-.11.35-.22.7-.34,1l.35.14C169.7,242.14,169.85,241.83,170,241.52ZM50.2,78.46l.3.15a6.44,6.44,0,0,0,.36-.63,2.06,2.06,0,0,0-.37-.23ZM257,172.2l-.37-.28-.5.64a2.26,2.26,0,0,0,.37.26A6.15,6.15,0,0,0,257,172.2ZM69.62,88.14c-.2-.11-.36-.28-.47-.25s-.24.24-.35.37a1.44,1.44,0,0,0,.49.3C69.36,88.56,69.48,88.32,69.62,88.14ZM67.18,77h.34V75.92h-.34Zm12.09,30.32.12-.39-.63,0ZM59.57,72.8l-.27-.07-.22.74.28.08ZM40.93,74.21l.3.08.26-.72-.44-.14ZM175.14,189.26l.21.24.63-.6-.21-.22ZM66.13,88.48c-.41-.24-.58-.41-.66-.38s-.21.25-.3.38c.12.09.24.25.37.25A2.27,2.27,0,0,0,66.13,88.48ZM39.41,69.34l.42.08.25-1.06-.44-.11Zm33.65,11-.32.07.15.85.36-.08ZM52.17,70.88l.32.21.36-.58-.38-.2Zm209.17,103-.17-.28c-.08.05-.23.1-.23.16a1.43,1.43,0,0,0,.14.28Zm-95.2,40.76-.23,0c0,.17.06.34.08.51l.15,0Zm.39-2h-.1c0,.16,0,.32,0,.48l.11,0Zm-38.39-33.37.2.1.2-.48-.15-.07Zm-8.86,6.19.14.28.68-.35-.12-.25ZM93.65,102.12a1.84,1.84,0,0,0,.34-.45c0-.07-.12-.3-.14-.28s-.36.1-.4.21S93.55,101.88,93.65,102.12ZM180.5,191l.28-.35-.81-.42-.15.25C180,190.65,180.27,190.82,180.5,191Zm-13.89-66.93v-.2l-.65,0v.16ZM44.52,75.55c-.12,0-.24-.13-.33-.1s-.12.2-.1.29a.27.27,0,0,0,.12.09.22.22,0,0,0,.14,0A.87.87,0,0,0,44.52,75.55ZM54,79.47c-.05-.09-.08-.24-.14-.25s-.19.07-.28.11l.24.37.18-.23Zm96,39.4.13-.07-.25,0Zm78.59,5.44-.15,0s0,.1,0,.1a.4.4,0,0,0,.15,0ZM115.78,77.83s-.11,0-.13,0a.5.5,0,0,0,0,.17l.21,0Zm61.51,112.71s-.1,0-.12,0a.4.4,0,0,0,0,.15l.23,0Zm.53-1.25.11,0-.11,0Zm73.47,113.23-.13,0s0,.1,0,.1l.13,0ZM42.3,95.33,42,95.26s0,.11.05.11a.71.71,0,0,0,.2,0ZM39.07,92s.09.14.11.13a1.47,1.47,0,0,0,.28-.14l-.28-.13s-.08.09-.12.14Zm83.77,91.64-.06.08h.1ZM72.49,88.16l-.06.08h.1Zm173,102.66.08-.12h-.12ZM47.64,77,47.52,77v.13ZM285.83,169.5l-.11-.07v.11Z"/><path class="cls-2" d="M145.39,119.7l.38.39,1.13.73,1.49,1.12,3,2.13-.26.52-4.69-1.79-.15-.3.2.25,4.18,2.91h-2.11l.89,1.3-1.49.32,1.2,1.16-.26.54-2.52-1.29a1.43,1.43,0,0,1-.22.15l0-.15.27,0,1.84,2.3-.15.33c-.58-.28-1.15-.56-1.74-.83-.17,0-.33,0-.09,0l.11-.07,1.28,2.23-2.69-.55,2.63,1.65-1.48.44.8,1a7.22,7.22,0,0,0-1.3,1.65c-.73,1.91-1.85.61-2.69.29-1.19-.46-.77-1.42-.21-2.12a2.35,2.35,0,0,0,0-3.43l1.22-.46,0,0-.08,0c0-.73,0-1.45,0-2.17v-4.66l3.52,2,.13-.18a11.35,11.35,0,0,0-1.82-1.36c-1.82-.9-.72-2.58-1.13-3.85A7.14,7.14,0,0,1,145.39,119.7Z"/><path class="cls-2" d="M109.64,114.51l2.47,2.13-.24.3h2.32l-1.77,1.28,6.12,6.13c-.3,2.38,1.73,3.53,3.87,4.77l-1.31.33c.44.8,2.1.73,1.54,2.21l0,0,1.75,1.56c.93,2.21,1.8,4.28,2.85,6.82-.61-.49-1-.69-1.26-1-2.62-4.28-5.07-8.67-7.84-12.86-1.33-2-3.26-3.58-4.9-5.38-1.41-1.52-2.7-3.18-4.23-4.56a35.51,35.51,0,0,0-14.88-8.07c.8-1.17,1-1.17,3.78,0l1.26-1.79c.33,1.31.3,2.56.87,3s1.73-.08,3.15-.23l-1.35,1.57,2.61,1.22.22-.26L103.44,110a2.56,2.56,0,0,1,2.56,2.35c.24,1,1.77,1.78,2.78,2.58.11.09.6-.3.9-.46Z"/><path class="cls-2" d="M182.81,125.48l-1.14-3.34,11.92.82c-1.59,1.69-3.24.86-4.72.89a31.29,31.29,0,0,0-4.59.27l9.31,1.17-.07.57H185.2l0,.14,7.06.87c0,.18,0,.37,0,.55-1.89,0-3.78.11-5.65,0a16.14,16.14,0,0,1-3.59-.9c-.14,0-.09-.66-.13-1l.29-.07Z"/><path class="cls-2" d="M276.94,179.7c1.14,1,.33,2-.25,2.65-1.8,2.11-3.72,4.14-5.68,6.11a17.49,17.49,0,0,1-3.38,2.5l3.61-3.54-.59-.76-4.86,3.5-.39-.4.91-1.07c1.46-1.75,2.89-3.53,4.4-5.23a7.53,7.53,0,0,1,1.5-.92,16.54,16.54,0,0,0,2-1.59,20,20,0,0,0,1.57-2.06l1.2.87Z"/><path class="cls-2" d="M233.09,133.08l3.94,1.79-.22.68-5.12-1.3-.08.27,6.25,2.23-.11.58a10.79,10.79,0,0,1-1.79-.21c-2-.58-3.91-1.18-5.82-1.89-.72-.26-2.21-.46-.78-1.79a2.56,2.56,0,0,1-1-2.55c0-.1.12-.2.33-.52l9.08,2.92-.16.69-4.59-.87-1.87-.81c0,.15-.08.3-.11.45Z"/><path class="cls-2" d="M252.58,230.32c-.58-1.93-1.19-3.85-1.74-5.79-1-3.59-1.89-7.2-2.91-10.76-1.09-3.79-3.91-6.23-6.9-8.51a16.16,16.16,0,0,1-3.42-3.39c.32,0,.72,0,.94.12,1.35,1,2.66,2,4,3.08a19,19,0,0,1,7.18,11.38c.78,4,2.09,7.9,3.14,11.86.17.63.23,1.29.34,1.94Z"/><path class="cls-2" d="M132,117.49c-1.72,3.21-3.42,6.43-5.16,9.63a22.8,22.8,0,0,1-1.5,2.14l-.51-.18c.41-1.28.74-2.59,1.25-3.83,1.37-3.36,2.84-6.68,4.24-10a10.06,10.06,0,0,0,.33-1.52c2,.8,2.24,1.54,1.3,3.82v-.1Z"/><path class="cls-2" d="M296.43,264.38l-1.36,1.29c-.11-.53-.18-.9-.27-1.29l-1,.48-.32-.26,1.42-2.73a10.93,10.93,0,0,1,2.17.29,5.61,5.61,0,0,1,1.67,1,39.76,39.76,0,0,1,2.92,2.74c.22.23.18.71.27,1.07a4.68,4.68,0,0,1-.9.14,15.62,15.62,0,0,1-2.37-.26c-.24-.05-.39-.51-.63-.85l-.78,1.53-.57-1.3,0-.07v.11c-.09-.64-.18-1.28-.28-1.91h-.1l.09,0Z"/><path class="cls-2" d="M134.08,110l1.2,1.46-1.47.12-.05-.12.1.08c.21.35.43.69.57.9-.35.57-.67,1.08-1.22,1.94l-2.39-1.93.94-1.14-.06.07.11,0,.12-1.22V110l0,.12c.19-1.47.39-3,.65-4.94l3.9,3.22h-2l1.49,1.73-1.86-.15,0,0,.07,0Z"/><path class="cls-2" d="M164.52,142l.83,1-.13.53-3.44-.82c.3-2.22.57-4.08.88-6.26l5.47,1.64-.16.73-4.13-.65-.12.24,3.11,1.42-.05.41h-2.72l-.6-.35-.09.25.71.06,2.53,1.59-2.14.26-.72-.25,0,.27Z"/><path class="cls-2" d="M235.89,197.2,250,176.39l.39.26a163.92,163.92,0,0,1-13.92,20.9Z"/><path class="cls-2" d="M162.49,154.61c.72,2.74,1.27,5.53,2.2,8.18,1.29,3.67,3.05,7.18,4.27,10.87a54.79,54.79,0,0,1,1.39,7.48l-.65.12c-.18-1-.37-2-.51-3A33.69,33.69,0,0,0,165,166c-2-3.36-1.79-7.2-3-10.71-.06-.19.1-.46.16-.69Z"/><path class="cls-2" d="M280.92,195.46c1.95-.86,2.53-3.4,4.91-3.69.46-.06.78-.89,1.26-1.24s1.22-.67,1.41-.5a3.85,3.85,0,0,1,1.11,1.83c.07.25-.59.75-1,1s-1.11.63-1.61,1A7.07,7.07,0,0,1,280.92,195.46Z"/><path class="cls-2" d="M145,137.86c-1.58,2.5-3,4.69-4.36,6.88a4.37,4.37,0,0,1-.68.68c-.15-.3-.49-.66-.41-.87.56-1.6-.12-3.57,1.48-4.85a1.67,1.67,0,0,0,.52-.74c.25-.73.42-1.49.62-2.22Z"/><path class="cls-2" d="M184.47,131.35l-1.72-1.44.13-.39,9,2.07-1.68.73.85.65c-2.32,1.05-6.78.23-8.45-1.66h1.86l1.69.18.86.49.1-.16c-.33-.09-.67-.19-1-.27C185.58,131.48,185,131.4,184.47,131.35Z"/><path class="cls-2" d="M190,138.37a8.53,8.53,0,0,1-6.36-.94c-.6-.35-.79-1.44-1.16-2.2l.48-.39,8.29,1.69-1.87.85Zm-3-1.23,0-.17-.48.06,0,.14Z"/><path class="cls-2" d="M307.34,253.35l-1.67,3.09-4.26-.72.3-1.67,0,.06a4,4,0,0,1,4.25-2.82c-.16.54-.3,1.06-.46,1.58l-.24,1.69c-.09.24-.17.48-.26.71l.22,0v-.81c.1-.55.19-1.09.28-1.64l1.48-.82c.12.51.23.94.34,1.36Z"/><path class="cls-2" d="M162.25,127.13a6.55,6.55,0,0,1,1-.2,6.44,6.44,0,0,1,1.07.09c-.72-.55-1.26-1-1.8-1.35l.23-.51,8.08,1.8-.07.5h-3.53l0,.27,2.79.6c-2.83,1.29-5.3.33-7.78-.68Zm3.53.25s0-.1,0-.11h-.14l.05.16Z"/><path class="cls-2" d="M273.77,159.73,270.08,157c-.42,2.17,1.58,2.48,2.11,3.64-1.69.41-4.64-2.12-4.69-4.16l2.65.84-2.35-3,.59-.55,5.75,5.49C274,159.41,273.89,159.57,273.77,159.73Z"/><path class="cls-2" d="M161.66,143.3l2.84.85c0,.15,0,.29,0,.46l-1.94.45,1.42.87c-.74,1.85-1.45,3.68-2.22,5.48a4.39,4.39,0,0,1-.8,1,5.24,5.24,0,0,1-.2-1.28C161,148.6,161.33,146.13,161.66,143.3Z"/><path class="cls-2" d="M123.75,95.82l1.84,2.1-1,1.49-1.72-.7-.36.4,2.33,1.2-.51.63-.87.1-.26-.17v.21l.3-.09-2.1.34,0,0c-1.36-.68-.29-1.73-.24-2.51a9.52,9.52,0,0,1,1.11-3.08c.11-.22.74-.19,1.13-.27l-.07,0,.44.44Z"/><path class="cls-2" d="M114.58,85.28l.26,1.3-1.43.07-.27.3,1.62.67-.25.76-2.63.66c.52-2.79,1-5.16,1.52-8.1a19.48,19.48,0,0,1,2.54,2.69c.12.19-.9,1.1-1.39,1.69-.14,0-.28,0-.08,0Z"/><path class="cls-2" d="M280.75,283.8l-1.88,1.6c-.24-1.31.67-2.72,2.48-4l3.22,2.14-1.7,2.18.06-.07-1.45,1.1V285.3L282,284s0,.05,0,.08,0-.08,0-.12l-.56,1.44-1.24.25c.16-.72.28-1.28.41-1.85Z"/><path class="cls-2" d="M208.57,179.18c-1,6.47-1.66,12.44.1,18.8C206.2,195,206.12,182.66,208.57,179.18Z"/><path class="cls-2" d="M268.26,176.94a29.36,29.36,0,0,1-8.74,13.19Z"/><path class="cls-2" d="M282.21,172.27l.38.37,1.12,1.5.37.37c.21.35.41.7.56.94l-1.58,1.64-2.39-1.84.07.06-1-1.75,1.19-1.93Z"/><path class="cls-2" d="M203.44,157.45l1.09-.53c-1.19-1.33-.47-2.67,0-4.23l3.05.59-.81,1.15h1.43c-.11.25-.14.44-.2.45a2.59,2.59,0,0,0-2.2,2.21C205.41,158.77,204.51,158.26,203.44,157.45Z"/><path class="cls-2" d="M249.73,226.56l-5.88-15.32c3.44,4.5,4.43,10,6.44,15.09Z"/><path class="cls-2" d="M276.45,281.63l3.22-1.05.43.55-2,3.08c-1.2-.6-2.32-1.09-3.35-1.7-.33-.2-.45-.75-.67-1.14l-.05.05,2.05-.75.3,1v.26C276.42,281.8,276.44,281.72,276.45,281.63Z"/><path class="cls-2" d="M254,151.63l.87,1.63-.18.37-5.47-2.47c.52-.84-.2-2.42,1.68-1.95l-.07-.05,1.2.41,0-.06,3.12,2.16H254l-.3-.08,0,.09Z"/><path class="cls-2" d="M280.68,175.25l1.52,2.59c-.8.75-1.58,1.31-2.72.29-1.79-1.58-1.94-2.23-.71-4.35l2,1.54Z"/><path class="cls-2" d="M206.24,126.09l7,2.17c.53.16,1.07.3,1.61.43l-.08.62a10.28,10.28,0,0,1-2.42,0c-2.14-.52-4.26-1.16-6.36-1.85-.34-.11-.53-.67-.79-1l1.12-.27Z"/><path class="cls-2" d="M261.62,258.28c-.52,4.15-.34,8.37-2.26,12.17C260.39,266.42,260.15,262.15,261.62,258.28Z"/><path class="cls-2" d="M182.73,142l6.07,1.64c0,.19-.06.39-.08.58l-4.72-.6-.08.21,3.71,1.37c0,.16,0,.3,0,.47-1.2-.15-2.41-.27-3.61-.47C182,144.9,182.87,143.36,182.73,142Z"/><path class="cls-2" d="M81.23,70.32c3.37-1.89,7.84-1.75,9.21.3C87.54,69.32,84.51,71.87,81.23,70.32Z"/><path class="cls-2" d="M227.36,127.82l10.07,3.65C235.57,132.45,228.3,129.83,227.36,127.82Z"/><path class="cls-2" d="M206.3,126.12l-.9-1,.25-.51,9.36,2.2-.07.69c-.9-.07-1.83-.07-2.73-.23-2-.35-4-.78-6-1.18Z"/><path class="cls-2" d="M80.43,63.09c4.69-2.06,8.75-1.52,10.07,1.33C87.42,61.7,83.8,63.53,80.43,63.09Z"/><path class="cls-2" d="M86.48,60.42c-3.7-.1-7.26,2.1-11,.65C79.21,61.84,82.7,58.72,86.48,60.42Z"/><path class="cls-2" d="M192,129.17c-3.48,1.1-8.12.26-9.57-1.67Z"/><path class="cls-2" d="M126.31,95.65l.52,2-3.08-1.8,0,.07-.44-.44.07,0c-1.07-.86-1.3-1.94-.56-3.75l3.83,4s-.11.09-.13.08a1.4,1.4,0,0,1-.26-.16h-1.15a.16.16,0,0,0,.06-.08l-.11,0Z"/><path class="cls-2" d="M250.19,141.87l8.26,4.44c-1.83.56-7.68-2.49-8.56-4C250,142.17,250.09,142,250.19,141.87Z"/><path class="cls-2" d="M214,135c-2.73,1-8-.44-8.76-2.27Z"/><path class="cls-2" d="M257.06,241.05c.45.42,1.17.76,1.29,1.26.9,3.72,1.64,7.48,1,11.32,0,.09-.17.14-.49.39C258.49,249.65,259.32,245.21,257.06,241.05Z"/><path class="cls-2" d="M250.08,140.2a21.8,21.8,0,0,1,7.92,4.28l-.3.54-8-4.05Z"/><path class="cls-2" d="M87.19,75.45c-.94-1.16-1.92-1.83-1.88-2.44a2.56,2.56,0,0,1,1.57-1.87,1.47,1.47,0,0,1,.75,0,1.44,1.44,0,0,1,.66.34,1.59,1.59,0,0,1,.42.63,1.55,1.55,0,0,1,.06.74C88.67,73.57,88,74.22,87.19,75.45Z"/><path class="cls-2" d="M229.76,198.59c1.25-3.57,3.87-6.33,5.68-9.57l.63.37-5.78,9.48Z"/><path class="cls-2" d="M83.41,75.77l7.53,1C89.43,78.58,84.77,78.18,83.41,75.77Z"/><path class="cls-2" d="M214.29,131.27c-3.07-.47-6.23-.65-8.93-2.43l.17-.6,8.92,2.4C214.4,130.84,214.34,131.05,214.29,131.27Z"/><path class="cls-2" d="M263.63,188.7l6.2-8.73C269.38,184,266.27,186.17,263.63,188.7Z"/><path class="cls-2" d="M205.31,130.63l8.78,2.4C212.53,134.22,207.05,132.82,205.31,130.63Z"/><path class="cls-2" d="M228.46,135.41l8.55,3.06C234.81,139.1,229.29,137.23,228.46,135.41Z"/><path class="cls-2" d="M301.71,254.05c-1.13,2-2.49-.21-3.77.41-.3-3.29,2.8-1.6,3.95-2.87-.07.85-.15,1.69-.21,2.52Zm-1.32-.54-.09-.14s-.11.1-.1.12a.59.59,0,0,0,.14.18Z"/><path class="cls-2" d="M248.19,176.43l-6.1,8.93-.62-.42,6.05-8.93Z"/><path class="cls-2" d="M169.08,131.08c-2.48.57-4.65-.37-6.81-1.28,0-.25.09-.5.14-.75l6.83,1.4Z"/><path class="cls-2" d="M277,179.76l-1-3.09.83-.53c.87.92,1.76,1.8,2.56,2.77.13.16,0,.76-.24,1a1.59,1.59,0,0,1-1.09.33,4,4,0,0,1-1.16-.5Z"/><path class="cls-2" d="M189.91,139.78c-2.17,1-5.74.37-7-1.44Z"/><path class="cls-2" d="M272.84,154.79l2,2.21-.4.42-6.48-5,.42-.69c.73.44,1.49.86,2.18,1.34s1.58,1.19,2.37,1.78Z"/><path class="cls-2" d="M267.41,164.1,266.19,163l.49-.64,3.85,2.84c-.85.37-1.52.92-2.13.87a5.79,5.79,0,0,1-2-1l.93-.94-.05.06Z"/><path class="cls-2" d="M164.77,133.2l-2.54-1.37.29-.72,6.58,1.48c0,.18,0,.38,0,.56h-4.34Z"/><path class="cls-2" d="M250.93,149.21l-1.31-1.56.36-.52,6.3,2.85-.2.69L252,149.51l.05.06-1.2-.41Z"/><path class="cls-2" d="M190,134.62a7.12,7.12,0,0,1-7.93-2Z"/><path class="cls-2" d="M250.41,144.78c2.55.17,4.48,1.68,6.51,3l-.3.66-6.48-3Z"/><path class="cls-2" d="M282.87,285.69l2.39-1.33.3.41c-.36.49-.72,1-1.13,1.57l2-.45.21.43-2.26,2c-.64-.9-2.1-1.17-1.43-2.69Z"/><path class="cls-2" d="M167.29,175.71q-2-4.29-4-8.58l.63-.3,3.93,8.63Z"/><path class="cls-2" d="M257.38,267.28l2-8.72.64.14c-.62,2.92-1.25,5.84-1.86,8.76Z"/><path class="cls-2" d="M213.09,136.85c-2.5,1-6.21,0-7.46-2Z"/><path class="cls-2" d="M229.85,141.87l4.76,1.95c-1.33.88-4.86,0-6.34-1.72l1.63-.2Z"/><path class="cls-2" d="M229.9,141.91l-1.41-1.58c2.73-.09,4.56,1.27,6.62,1.77l-.06.56a8.88,8.88,0,0,1-1.71,0c-1.18-.21-2.34-.51-3.5-.76Z"/><path class="cls-2" d="M211.78,139.68l-6-1.7c.08-.3.17-.62.26-.93l6,1.72Z"/><path class="cls-2" d="M211,144.75a4.19,4.19,0,0,1-5.4-1.84Z"/><path class="cls-2" d="M234,146.51l-5.74-1.89.33-1,5.63,2C234.11,145.92,234,146.21,234,146.51Z"/><path class="cls-2" d="M162.38,134.51l6.31,1.92A5.18,5.18,0,0,1,162.38,134.51Z"/><path class="cls-2" d="M235.34,140.86l-6.55-2.1.27-.86,6.55,2.21Z"/><path class="cls-2" d="M164.71,133.15l3.91,1.39a5.31,5.31,0,0,1-5.89-1.35h2Z"/><path class="cls-2" d="M52.78,59a9.15,9.15,0,0,1-2.23.93c-.55.07-1.17-.36-1.76-.58.34-.46.58-1.19,1-1.34C51,57.64,52.12,57.66,52.78,59Z"/><path class="cls-2" d="M205.79,139l6.32,1.92C210.19,141.79,206.82,140.85,205.79,139Z"/><path class="cls-2" d="M205.11,141.18l6.35,1.2A5.18,5.18,0,0,1,205.11,141.18Z"/><path class="cls-2" d="M158.53,186.2l7.27-3,.26.61-7.26,3Z"/><path class="cls-2" d="M188.47,141.3a4.34,4.34,0,0,1-5.59-1.23Z"/><path class="cls-2" d="M204.73,148.77l4.73,1.37c-.07.3-.15.58-.23.87l-4.77-1.23Z"/><path class="cls-2" d="M228.52,147.51l4.59,1.38-.22.83-4.67-1.11Z"/><path class="cls-2" d="M205.6,145.08l4.91,1.69C208.43,147.55,206.56,147,205.6,145.08Z"/><path class="cls-2" d="M253.59,155.26l-4.7-2,.27-.69c1.82-.05,3.2,1.11,4.74,1.85Z"/><path class="cls-2" d="M113.23,90l-2.39,3-.62-.3,1.16-3.49Z"/><path class="cls-2" d="M283.71,272.87l2.54-.4.35.57-2.46,2.68-.46-.44.86-.82c-.28-.6-.54-1.12-.79-1.64Z"/><path class="cls-2" d="M120,106.26c-.93,1.22-1.6,2.09-2.26,3l-.45-.08c.09-1,.17-2,.29-3.4Z"/><path class="cls-2" d="M205.25,147l4.94,1.58C208,149.54,206.16,149,205.25,147Z"/><path class="cls-2" d="M228.89,145.57l4.78,1.8c-2.31.58-4.08,0-5-1.25Z"/><path class="cls-2" d="M156.61,187.51l-5.93,2.09-.23-.66,6-2.1Z"/><path class="cls-2" d="M232.39,151.63l-4.27-1.25.28-1,4.25,1.25Z"/><path class="cls-2" d="M291.14,277.38c-1.09.54-.87-.11-.58-.68.7-1.39,1.45-2.74,2.18-4.11l.52.13q-.13,1.06-.3,2.13l.05-.08-.79,1.2,0-.06-.79,1.19.06-.07-.43.43Z"/><path class="cls-2" d="M187.29,147.15c-2.57.72-4.19.21-4.6-1.45Z"/><path class="cls-2" d="M271.3,162.8a3.72,3.72,0,0,1-4.09-3Z"/><path class="cls-2" d="M231.91,153.23l-4.12-.9.2-1,4.1,1C232,152.63,232,152.93,231.91,153.23Z"/><path class="cls-2" d="M211.85,205l-2.57-4.25.81-.47,2.35,4.4C212.24,204.82,212.06,204.93,211.85,205Z"/><path class="cls-2" d="M274.26,189l-4.54,3.23-.37-.47,4.39-3.44Z"/><path class="cls-2" d="M264.42,297.49l2.78,1.61-2.41,1.09-.2-1.31h-1.25l1.13-1.43Z"/><path class="cls-2" d="M265.28,300.66c2.09-1.44,2.24.19,2.77,1.33C266.2,303.47,266.21,301.39,265.28,300.66Z"/><path class="cls-2" d="M248.31,247.92v-5.45h.37v5.45Z"/><path class="cls-2" d="M227.28,154.58l4.45,1.34C229.55,156.79,228.26,156.41,227.28,154.58Z"/><path class="cls-2" d="M292.63,202.43l1.11,1.36-1.51,1.31C290.71,203.66,290.73,203.51,292.63,202.43Z"/><path class="cls-2" d="M121.38,101.32l1.24,1.58-1.52.12c0,.32.08.64.15,1.3l-2-1.11,2.23-1.83Z"/><path class="cls-2" d="M156.05,179.43l-4.43,2c-.08-.14-.16-.27-.23-.41l4.18-2.43Z"/><path class="cls-2" d="M236.63,187.68l3.57-4.32.36.25q-1.65,2.29-3.28,4.61Z"/><path class="cls-2" d="M271.41,193.85l3.68-3,.48.58-3.69,3Z"/><path class="cls-2" d="M291.13,262.19c-1.39,1.15-2.1-.32-3.14-.49l.07-.5h3.12c0,.34-.07.7-.1,1.05Z"/><path class="cls-2" d="M248.79,156.45l3.33,1.52-.3.72-3.49-1.3Z"/><path class="cls-2" d="M295,230l2.61-.82c-.26.7-.32,1.55-.73,1.79C296,231.46,295.08,231.32,295,230Z"/><path class="cls-2" d="M293,274.85c.93-.43,1.41-.19.88.8a25.65,25.65,0,0,1-2.05,2.79l-.66-1.06,0,.06.43-.43-.05.07.79-1.19,0,.06.79-1.2Z"/><path class="cls-2" d="M275.5,193.6l1.87.87-3.24,2C274.67,195.35,275.06,194.52,275.5,193.6Z"/><path class="cls-2" d="M228,153.08l3.48,1.12-.16.54c-1.32.15-2.62.21-3.55-1Z"/><path class="cls-2" d="M239.76,188.44c-.83,1.19-1.65,2.4-2.48,3.61l-.62-.43,2.48-3.59Z"/><path class="cls-2" d="M251.31,161l-3.56-1.43c1.49-.84,2.2-.6,3.71.92Q251.39,160.73,251.31,161Z"/><path class="cls-2" d="M249.28,154.71l3.21,1.4c-1.52.52-2.75.37-3.59-.68Z"/><path class="cls-2" d="M266.94,171l-2.19-2.69.48-.36C265.87,168.78,268,168.55,266.94,171Z"/><path class="cls-2" d="M204.72,151l3.29.79-.18.81-3.29-.7Z"/><path class="cls-2" d="M218.52,212.39l2.73,3.71-.48.39-2.85-3.61Z"/><path class="cls-2" d="M209.45,189.6v-4.48h.7l-.21,4.48Z"/><path class="cls-2" d="M301.49,239c.05,1.11.08,1.89.12,2.67l-.32.1-.83-1.52-.86.3a8,8,0,0,1-.21-1A21.75,21.75,0,0,1,301.49,239Z"/><path class="cls-2" d="M185.61,151.05a21.54,21.54,0,0,1-2.41,0c-.25,0-.46-.43-.69-.66.27-.19.57-.57.79-.53a23,23,0,0,1,2.43.67Z"/><path class="cls-2" d="M245,175.28l-1.89,2.43c-.12-1-.21-1.7-.29-2.43Z"/><path class="cls-2" d="M288.93,205.83l1.27-1.64,1.26,1.2-.24.51-2.33-.14Z"/><path class="cls-2" d="M247.84,161l3.11,1.24-.26.73-3.15-1.07Z"/><path class="cls-2" d="M230.06,158.4l-2.84-1,.26-.78,2.86.88Z"/><path class="cls-2" d="M265.72,166l3.14,2.16c-.94,0-1.54.18-1.88,0a12.15,12.15,0,0,1-1.73-1.64Z"/><path class="cls-2" d="M44.2,61.22l-1.33,3.56A2.42,2.42,0,0,1,44.2,61.22Z"/><path class="cls-2" d="M182.8,147.93l3,.72-.14.73-3.1-.5Z"/><path class="cls-2" d="M291.73,273.64l-2.13,3-.6-.38,2-3.17Z"/><path class="cls-2" d="M242.47,209.74c-.72-.53-1.45-1.06-2.16-1.61-.33-.25-.62-.56-.93-.84l.38-.49,3.1,2.43Z"/><path class="cls-2" d="M234.69,187.11l-2.25,3.23-.56-.4,2.26-3.22Z"/><path class="cls-2" d="M287.38,275.89l1.68-3.16.76.42L288,276.32Z"/><path class="cls-2" d="M96.54,97.53c-.06.62-.14,1.23-.27,2.39l-1.45-1.63,1.41-1.2Z"/><path class="cls-2" d="M233.81,196.71c-.54,1.16-1.09,2.31-1.7,3.59C231.58,198.9,231.86,198.23,233.81,196.71Z"/><path class="cls-2" d="M211.54,179.42l-.93,2.69-.67-.21.88-2.71Z"/><path class="cls-2" d="M229.9,160.19l-3-.52.14-.81,3,.53C230,159.65,229.94,159.92,229.9,160.19Z"/><path class="cls-2" d="M276,197.85a10.67,10.67,0,0,1,1.76-1.19c.22-.1.68.35,1.43.76l-2.86,1Z"/><path class="cls-2" d="M292.64,262.54l-1.86,1.86c.14-.92.25-1.57.35-2.21l-.05.06,1.45-1.13.07,1.47Z"/><path class="cls-2" d="M247.4,162.84l2.61,1.07-.27.7-2.67-1Z"/><path class="cls-2" d="M89.23,78.55l2.63-.33c0,.24.1.48.14.72l-2.59.57Z"/><path class="cls-2" d="M246.51,166.34l2.24.88-.19.66-2.33-.63Z"/><path class="cls-2" d="M227.46,161.85l1.19.75c0,.18-.08.37-.13.56l-2.11-.34v-.6l1.1-.34Z"/><path class="cls-2" d="M204.7,160.08l-2.15-1.19.3-.6,2.22,1Z"/><path class="cls-2" d="M236.64,192.8,235,195.09l-.59-.47,1.75-2.22Z"/><path class="cls-2" d="M247.52,169.81l-1.76-1.36.47-.59,1.76,1.25Z"/><path class="cls-2" d="M247,171.47l-2-1,.36-.72,1.92,1A6.13,6.13,0,0,0,247,171.47Z"/><path class="cls-2" d="M228.73,198.61l.81,2.34-.55.2-.9-2.3Z"/><path class="cls-2" d="M292.6,262.59l.69-1.66.92.8-1.32,2.39-.38-.08c0-.5.09-1,.13-1.5Z"/><path class="cls-2" d="M227.51,161.9l-.87-1,.25-.42,2.16.68v.48l-1.59.22Z"/><path class="cls-2" d="M197.59,184.21l1.95,1.66c-.15.18-.29.36-.46.55l-2-1.63Z"/><path class="cls-2" d="M46.87,61.83l-1,2.09-.6-.26.94-2.12Z"/><path class="cls-2" d="M247.17,164.41l2.07,1c-.09.21-.17.42-.25.62l-2.15-.78Z"/><path class="cls-2" d="M226.11,165.1l2.32.53-.15.71-2.33-.51Z"/><path class="cls-2" d="M160.66,158.88l-.31-3.35.55,0v3.36Z"/><path class="cls-2" d="M261.53,302.47l1.07,1.73-.55.39L260.79,303Z"/><path class="cls-2" d="M110.62,95.91,109.34,97c-.14-.23-.46-.58-.4-.68a9.82,9.82,0,0,1,1-1.13Z"/><path class="cls-2" d="M288,273.19l-1.19,2.15-.6-.28,1.05-2.26Z"/><path class="cls-2" d="M211.27,176.37c.21-.82.43-1.65.63-2.48l.69.19c-.23.8-.46,1.6-.68,2.41Z"/><path class="cls-2" d="M143.19,160.62l-1.26,2.11-.53-.31,1.15-2.23Z"/><path class="cls-2" d="M184.41,154.54c-.55-.09-1.09-.17-1.62-.3a2.35,2.35,0,0,1,0-.65l1.7.22C184.49,154.05,184.45,154.3,184.41,154.54Z"/><path class="cls-2" d="M182.53,155.36l1.88.37-.08.64-2-.16Z"/><path class="cls-2" d="M40.25,64.49l1-2.89.48.16-.91,2.92Z"/><path class="cls-2" d="M106.94,112.79l2.06-1.26-.42,1.94Z"/><path class="cls-2" d="M215.81,209.1,214.59,207l.52-.32,1.25,2.07Z"/><path class="cls-2" d="M265.43,171.79l-1.65-1.29.43-.56,1.67,1.14Z"/><path class="cls-2" d="M272.17,300.12l-1.25-1.19.49-.53,1.27,1.15Z"/><path class="cls-2" d="M269.69,299.29l1.06,1.62-.56.4-1.17-1.5Z"/><path class="cls-2" d="M243.67,235l2,1.16c-.08.17-.17.34-.26.51l-2-1Z"/><path class="cls-2" d="M236.33,201.87l-2-1,.33-.66,2,1Z"/><path class="cls-2" d="M184.82,152.72l-1.76-.13c0-.2,0-.4,0-.59h1.76Z"/><path class="cls-2" d="M225.92,166.82l2,.46c0,.2-.07.38-.11.57l-2-.3C225.81,167.3,225.87,167.06,225.92,166.82Z"/><path class="cls-2" d="M253.68,171.59l-1.08,2-.52-.25,1-2.09Z"/><path class="cls-2" d="M244.7,171.47l1.58.9-.32.57-1.57-.9Z"/><path class="cls-2" d="M244.08,173.17l1.59.84-.22.53-1.75-.68Z"/><path class="cls-2" d="M213.58,204.46l-.86-2,.53-.23.87,2Z"/><path class="cls-2" d="M259.7,304.93l-1-1.25.36-.34a3.57,3.57,0,0,1,.8.47,2.67,2.67,0,0,1,.32.78Z"/><path class="cls-2" d="M209.76,191l.22,2.31-.58.08L209,191.1Z"/><path class="cls-2" d="M274.28,298.68l-.93-1.09.46-.47,1.13,1.06Z"/><path class="cls-2" d="M48.17,63.7l.6-1.62.53.18-.49,1.66Z"/><path class="cls-2" d="M182.1,159l1.5.4-.13.6-1.52-.24C182,159.53,182,159.27,182.1,159Z"/><path class="cls-2" d="M232.28,202.66l-.49-1.29.48-.22.68,1.28Z"/><path class="cls-2" d="M237.31,206.29l-1.58-1,.33-.49,1.59,1Z"/><path class="cls-2" d="M226.59,163.61l1.77.28-.09.6-1.82-.21C226.5,164.07,226.54,163.84,226.59,163.61Z"/><path class="cls-2" d="M182.27,164.08c.27.35.55.56.56.78s-.38.47-.56.45a.73.73,0,0,1-.34-.2.7.7,0,0,1-.2-.33C181.7,164.59,182,164.39,182.27,164.08Z"/><path class="cls-2" d="M131.22,144.18l.45,1.8C130.43,145.92,130.43,145.92,131.22,144.18Z"/><path class="cls-2" d="M231.15,192.29l-.94,1.65-.5-.26.81-1.72Z"/><path class="cls-2" d="M120.24,105.61l-1.37-.6.23-.63,1.41.49Z"/><path class="cls-2" d="M276.8,297.4l-1.82-.53.51-.83c.42.47.83.94,1.25,1.4Z"/><path class="cls-2" d="M297.27,239l-.16,1.55-.5,0v-1.59Z"/><path class="cls-2" d="M264.06,301.64l.83,1.32-.51.37-1-1.29Z"/><path class="cls-2" d="M134.79,154.36c1.17,0,1.82.32.9,1.94-.4-.84-.65-1.4-.9-2Z"/><path class="cls-2" d="M182,161.35l1.33.13a3.08,3.08,0,0,1,0,.52H182Z"/><path class="cls-2" d="M181.49,166l1.17.2c0,.17,0,.35,0,.53l-1.19-.06Z"/><path class="cls-2" d="M294.65,239.53c.42.08.83.15,1.24.26a1.86,1.86,0,0,1-.09.47c-.44,0-.89,0-1.33-.09Z"/><path class="cls-2" d="M139.24,150.16l-1.56-.45c0-.18.07-.36.11-.54l1.62.33C139.35,149.72,139.3,149.94,139.24,150.16Z"/><path class="cls-2" d="M200.83,189l-.64-2.47.75-.05c-.05.83-.1,1.65-.14,2.49Z"/><path class="cls-2" d="M171.64,169.45h1.74c0,.16,0,.3,0,.47l-1.73.15Z"/><path class="cls-2" d="M280.76,294.92l-1.47-.9.6-.6.82,1.56Z"/><path class="cls-2" d="M203.06,160.56l1.34.44c-.06.18-.11.37-.16.56l-1.36-.3Z"/><path class="cls-2" d="M288.9,205.78c-.07.95-.23,1.66-1.39.34l1.43-.3Z"/><path class="cls-2" d="M283.75,272.83l-1,0,.43-.9.54.93Z"/><path class="cls-2" d="M139.58,160.3l.13-1.15h.44v1.16Z"/><path class="cls-2" d="M214.24,169.24l-.63,1.33-.46-.18.41-1.4Z"/><path class="cls-2" d="M227.09,169.56l-1.45-.27c0-.19.06-.38.08-.57l1.46.26C227.15,169.17,227.12,169.38,227.09,169.56Z"/><path class="cls-2" d="M183.55,158.38l-1.16-.33.15-.55,1.16.29Z"/><path class="cls-2" d="M73.74,74.57l-.54,1.1-.48-.22.5-1.12Z"/><path class="cls-2" d="M183.07,163.76l-1.2-.26a2.93,2.93,0,0,1,.15-.6,11,11,0,0,1,1.17.15Z"/><path class="cls-2" d="M69.28,73l1.08-1,.57.53-1,1.11Z"/><path class="cls-2" d="M214.61,165.52l.64-1.44.54.24-.66,1.44Z"/><path class="cls-2" d="M137.94,193.91l-1.21-.55.21-.48,1.21.55Z"/><path class="cls-2" d="M157.64,180.82l-1.35.41-.15-.38,1.34-.6Z"/><path class="cls-2" d="M191.61,181.26l1-.85.42.45-.79,1.1Z"/><path class="cls-2" d="M128,136.17l-.26,1.23-.57-.12c.1-.41.19-.81.29-1.22Z"/><path class="cls-2" d="M296,253.84l.44-1.26.42.12c-.1.43-.19.87-.3,1.31Z"/><path class="cls-2" d="M66.74,71.34l.63-1.09.43.21-.56,1.18Z"/><path class="cls-2" d="M95,106l1.36-.44.13.34-1.32.68Z"/><path class="cls-2" d="M236.38,272.92l-1.43.31,1.18-1.74c.11.8.15,1.14.2,1.48Z"/><path class="cls-2" d="M298.54,239.17c0,.45.09.9.13,1.35l-.45.09-.33-1.33Z"/><path class="cls-2" d="M211.53,196.64l.21,1.63-.45.07-.3-1.61Z"/><path class="cls-2" d="M274.09,281.37l-1.13.22.25-.81.84.65Z"/><path class="cls-2" d="M59.23,66.22l-.73.8-.35-.3.7-.82Z"/><path class="cls-2" d="M54.54,64.63l-.61.92-.45-.25.52-1Z"/><path class="cls-2" d="M142.05,164.09l1.15-.81c.1.25.19.51.3.76H142Z"/><path class="cls-2" d="M109.28,97.8c-.29.22-.51.47-.63.43s-.36-.31-.54-.48c.17-.13.34-.35.52-.36S109,97.6,109.28,97.8Z"/><path class="cls-2" d="M282.11,291.81c.18.35.38.56.35.74s-.3.26-.45.4c-.13-.19-.35-.36-.36-.55S281.88,292.09,282.11,291.81Z"/><path class="cls-2" d="M277.57,200.19l.83-1.07.45.29-.75,1.16Z"/><path class="cls-2" d="M139.49,147.78l-.78.67a3.14,3.14,0,0,1,0-.81c0-.1.3-.13.48-.2Z"/><path class="cls-2" d="M224.61,172.21l1.24.34-.09.45-1.23-.13A3.72,3.72,0,0,0,224.61,172.21Z"/><path class="cls-2" d="M65.34,69c-.3.3-.45.53-.63.56s-.32-.22-.48-.34c.14-.17.24-.42.42-.5S65,68.86,65.34,69Z"/><path class="cls-2" d="M120.11,119l.75-.75.6.56-.66.88Z"/><path class="cls-2" d="M249.64,238.38l.34,1.14-.4.14-.45-1.1Z"/><path class="cls-2" d="M226.3,171.36l-1.14-.07v-.44h1.17Z"/><path class="cls-2" d="M294.55,230.65c-.28.25-.42.44-.6.51s-.35-.21-.34-.3a1.83,1.83,0,0,1,.26-.57Z"/><path class="cls-2" d="M224.15,174.33l1.08.11v.39l-1.1.08C224.13,174.71,224.14,174.53,224.15,174.33Z"/><path class="cls-2" d="M182.83,175.55c-.38.16-.56.3-.75.3s-.35-.28-.32-.34.26-.43.41-.44S182.5,175.29,182.83,175.55Z"/><path class="cls-2" d="M298.33,221.7l.67.84-.29.26L298,222A2.45,2.45,0,0,1,298.33,221.7Z"/><path class="cls-2" d="M284.71,291c-.25.2-.46.47-.58.43a.63.63,0,0,1-.26-.2.64.64,0,0,1-.16-.29c0-.14.24-.32.37-.48Z"/><path class="cls-2" d="M129.79,152.81c-.2-.27-.4-.43-.38-.52a2.14,2.14,0,0,1,.37-.52c.1.12.28.24.28.36a2.68,2.68,0,0,1-.27.68Z"/><path class="cls-2" d="M198.39,183a2,2,0,0,1-.61.33c-.1,0-.23-.2-.34-.32a1.91,1.91,0,0,1,.46-.39C198,182.61,198.15,182.83,198.39,183Z"/><path class="cls-2" d="M295.21,252.25l-.13,1.09-.42-.06.15-1.08Z"/><path class="cls-2" d="M270.55,198.68l-.62-1,.41-.23.52,1.07Z"/><path class="cls-2" d="M286.8,208l-.8.68-.46-.41c.21-.3.42-.57.64-.86Z"/><path class="cls-2" d="M105.14,105.09v1.13l-.45,0c0-.38-.07-.75-.11-1.13Z"/><path class="cls-2" d="M199.25,174.36l-.34.42-.42-.39c.12-.12.23-.3.36-.33S199.09,174.23,199.25,174.36Z"/><path class="cls-2" d="M50.87,64.16a2.24,2.24,0,0,1-.12-.73c0-.09.26-.16.39-.23a1.64,1.64,0,0,1,.23.58C51.37,63.88,51.12,64,50.87,64.16Z"/><path class="cls-2" d="M203.41,164.4a2.48,2.48,0,0,1-.65.27c-.07,0-.17-.23-.26-.36A2.07,2.07,0,0,1,203,164C203.09,164,203.22,164.19,203.41,164.4Z"/><path class="cls-2" d="M137,157.44c-.4.19-.57.34-.7.3a1.8,1.8,0,0,1-.49-.32c.09-.12.19-.34.28-.34A4.18,4.18,0,0,1,137,157.44Z"/><path class="cls-2" d="M219.21,205.9c-.14.17-.22.37-.33.39a.6.6,0,0,1-.21-.08.52.52,0,0,1-.13-.17.43.43,0,0,1,.06-.22.46.46,0,0,1,.15-.16C218.86,205.63,219,205.79,219.21,205.9Z"/><path class="cls-2" d="M280,202.14l.7.7-.45.28-.19-1Z"/><path class="cls-2" d="M131.94,135.51c0-.36-.05-.71-.08-1.06l.36-.06v1.08Z"/><path class="cls-2" d="M117.15,120.76l-1,.37-.14-.42,1-.28Z"/><path class="cls-2" d="M126.94,149.43l-.08-1.2.52.11-.46,1.06Z"/><path class="cls-2" d="M288.35,221.32a2.92,2.92,0,0,1,.32.75c0,.11-.28.34-.33.3s-.41-.25-.45-.42S288.1,221.65,288.35,221.32Z"/><path class="cls-2" d="M203.36,165.84c-.38.27-.58.51-.74.5s-.3-.3-.46-.46c.13-.1.25-.3.38-.3a3.4,3.4,0,0,1,.82.26Z"/><path class="cls-2" d="M224,175.82a2.28,2.28,0,0,1,.6-.36c.07,0,.32.28.29.33a1,1,0,0,1-.43.42C224.35,176.25,224.17,176,224,175.82Z"/><path class="cls-2" d="M190.61,175.34l-.3.47-.51-.36c.11-.13.21-.32.34-.35S190.42,175.23,190.61,175.34Z"/><path class="cls-2" d="M119.76,124.58a2.13,2.13,0,0,1,.3.67c0,.12-.3.22-.46.32a2.63,2.63,0,0,1-.25-.6C119.33,124.88,119.55,124.76,119.76,124.58Z"/><path class="cls-2" d="M61.54,67.26c.13.2.32.41.3.45a2.18,2.18,0,0,1-.48.43c-.07-.15-.2-.31-.18-.46S61.36,67.44,61.54,67.26Z"/><path class="cls-2" d="M284.37,261.48l-.35.43-.46-.37c.12-.12.23-.32.37-.34S284.19,261.36,284.37,261.48Z"/><path class="cls-2" d="M100.67,90.44c-.38.17-.6.36-.75.3s-.3-.3-.43-.47c.18-.12.35-.34.52-.33S100.34,90.16,100.67,90.44Z"/><path class="cls-2" d="M75.57,99.28c-.26.1-.43.23-.53.19s-.16-.26-.18-.41.21-.17.28-.14a2.11,2.11,0,0,1,.43.36Z"/><path class="cls-2" d="M201.11,179.07c-.1-.17-.26-.31-.24-.43s.21-.22.33-.32l.37.46Z"/><path class="cls-2" d="M224.77,188.57c-.12-.21-.29-.37-.27-.48s.23-.22.35-.32c.1.12.3.25.3.38S224.94,188.39,224.77,188.57Z"/><path class="cls-2" d="M288.16,230.93l-.5-.82.28-.2.62.73Z"/><path class="cls-2" d="M141.88,167.39c.16.45.28.62.25.77s-.18.27-.31.35-.26-.13-.26-.2A4.24,4.24,0,0,1,141.88,167.39Z"/><path class="cls-2" d="M129,140.67l1.36.1v.33l-1.33-.17A2.6,2.6,0,0,1,129,140.67Z"/><path class="cls-2" d="M145.17,162.9a2.42,2.42,0,0,1-.55.21,1.25,1.25,0,0,1-.27-.57s.34-.25.4-.2a2.11,2.11,0,0,1,.42.56Z"/><path class="cls-2" d="M202.29,168.24c.21.23.45.42.42.47a1,1,0,0,1-.42.45c-.06,0-.37-.22-.35-.32A1.76,1.76,0,0,1,202.29,168.24Z"/><path class="cls-2" d="M276.08,185.48c.15.17.36.3.35.43a.39.39,0,0,1-.11.22.36.36,0,0,1-.24.09.33.33,0,0,1-.23-.09.39.39,0,0,1-.11-.22C275.74,185.79,275.93,185.65,276.08,185.48Z"/><path class="cls-2" d="M275.87,279.32l-.44-.3c.09-.12.16-.32.27-.36a.48.48,0,0,1,.21.07.46.46,0,0,1,.16.15C276.1,279,276,279.14,275.87,279.32Z"/><path class="cls-2" d="M200.4,184.57c.09.21.23.38.2.49a.34.34,0,0,1-.15.18.42.42,0,0,1-.22,0,.33.33,0,0,1-.19-.13.32.32,0,0,1,0-.23C200,184.8,200.22,184.72,200.4,184.57Z"/><path class="cls-2" d="M110.62,94.46c-.19-.16-.38-.3-.56-.47a.89.89,0,0,1,.16-.25,7.55,7.55,0,0,1,.69.37Z"/><path class="cls-2" d="M109.68,114.47l-.93-.41.26-.33c.21.26.41.52.63.77Z"/><path class="cls-2" d="M204.14,183.28c-.36.16-.52.3-.66.27a.6.6,0,0,1-.33-.3s.13-.25.2-.25a4.11,4.11,0,0,1,.79.28Z"/><path class="cls-2" d="M203.56,162.84a1.72,1.72,0,0,1-.44.19s-.12-.16-.19-.24a3.42,3.42,0,0,1,.4-.26,3.55,3.55,0,0,1,.23.31Z"/><path class="cls-2" d="M297.29,274c-.2.15-.41.36-.45.33a2.46,2.46,0,0,1-.43-.48c.15-.06.3-.19.46-.18S297.11,273.83,297.29,274Z"/><path class="cls-2" d="M287.72,287.82l.55-.78.28.39-.89.35Z"/><path class="cls-2" d="M284.59,209.2l-.45-.33a1.81,1.81,0,0,1,.42-.41s.3.18.32.3S284.71,209,284.59,209.2Z"/><path class="cls-2" d="M146.4,170.76c-.11-.2-.29-.41-.25-.46a1.76,1.76,0,0,1,.45-.32c.06.14.19.3.17.43S146.58,170.61,146.4,170.76Z"/><path class="cls-2" d="M127.59,141.06l-.33.39-.45-.41c.12-.09.23-.27.34-.27S127.41,140.93,127.59,141.06Z"/><path class="cls-2" d="M266.75,290.17c-.18.2-.3.41-.39.4s-.25-.17-.38-.28c.08-.08.15-.23.23-.24a1.63,1.63,0,0,1,.54.12Z"/><path class="cls-2" d="M181.13,168.3c-.14.18-.22.37-.34.42a.47.47,0,0,1-.34-.25c0-.11.13-.3.2-.44Z"/><path class="cls-2" d="M194.91,178.12c.13.15.3.27.3.38s-.18.24-.28.36l-.42-.4Z"/><path class="cls-2" d="M134.36,150.18c-.25.11-.41.25-.55.24a.53.53,0,0,1-.21-.11.5.5,0,0,1-.13-.19c0-.12.15-.26.24-.39Z"/><path class="cls-2" d="M148.31,190.4l-.78.15-.09-.28.79-.32Z"/><path class="cls-2" d="M144.7,191l.73-.3.12.44-.77.13Z"/><path class="cls-2" d="M135.3,143.13c.22.49.36.67.32.74a.57.57,0,0,1-.4.2c-.05,0-.2-.17-.18-.25a3.38,3.38,0,0,1,.26-.69Z"/><path class="cls-2" d="M116.08,128.24a2.38,2.38,0,0,1-.37-.58c0-.07.3-.32.33-.29a1.05,1.05,0,0,1,.42.44S116.26,128,116.08,128.24Z"/><path class="cls-2" d="M225.84,127.83a3.59,3.59,0,0,1-.24-.92c0-.06.24-.12.36-.11s.16.18.15.27A4.89,4.89,0,0,1,225.84,127.83Z"/><path class="cls-2" d="M295.18,191.3l-.33.43a2,2,0,0,1-.37-.4c0-.05.18-.29.3-.3S295,191.19,295.18,191.3Z"/><path class="cls-2" d="M86.85,100.71l-.48.3-.32-.52c.15-.06.32-.19.45-.17S86.71,100.55,86.85,100.71Z"/><path class="cls-2" d="M220.24,122.78c-.23.09-.4.23-.5.19s-.19-.24-.28-.37c.14-.07.29-.2.41-.19S220.07,122.61,220.24,122.78Z"/><path class="cls-2" d="M293.25,251.88a2.13,2.13,0,0,1,.35.14,2.29,2.29,0,0,1-.17.46s-.28-.07-.28-.1A2.77,2.77,0,0,1,293.25,251.88Z"/><path class="cls-2" d="M147.86,172.72c-.19.14-.32.3-.44.3s-.26-.17-.39-.26c.11-.13.21-.32.34-.35S147.64,172.57,147.86,172.72Z"/><path class="cls-2" d="M296.64,212.17c-.26.12-.43.26-.56.24a.72.72,0,0,1-.21-.12.49.49,0,0,1-.13-.2.5.5,0,0,1,.3-.34C296.16,211.72,296.28,211.91,296.64,212.17Z"/><path class="cls-2" d="M139.27,155.7c.15.2.33.34.32.46s-.19.24-.29.37c-.11-.12-.28-.23-.3-.36S139.15,155.92,139.27,155.7Z"/><path class="cls-2" d="M183.65,172.29c.13.18.3.32.3.44a.46.46,0,0,1-.13.18.4.4,0,0,1-.21.09.52.52,0,0,1-.19-.11.35.35,0,0,1-.1-.19C183.32,172.57,183.5,172.46,183.65,172.29Z"/><path class="cls-2" d="M195.23,172.81c-.18.14-.32.32-.44.3s-.25-.2-.37-.3c.12-.11.24-.31.37-.32S195.05,172.67,195.23,172.81Z"/><path class="cls-2" d="M92.85,106.38l.38.42-.47.36c-.08-.14-.23-.28-.23-.42S92.71,106.53,92.85,106.38Z"/><path class="cls-2" d="M266,144.69c-.17-.15-.37-.24-.4-.37a.54.54,0,0,1,.08-.21.5.5,0,0,1,.17-.15c.12,0,.38.13.39.22S266.14,144.47,266,144.69Z"/><path class="cls-2" d="M138.8,166.33c-.11-.25-.24-.42-.21-.55s.24-.17.37-.25c.06.1.19.22.17.3a2.41,2.41,0,0,1-.33.5Z"/><path class="cls-2" d="M288.1,243.2l-.43-.3c.09-.13.17-.32.3-.37s.32.11.35.22S288.2,243,288.1,243.2Z"/><path class="cls-2" d="M112.65,101.54c-.2.15-.34.32-.47.32s-.3-.22-.3-.32a.51.51,0,0,1,.12-.2.41.41,0,0,1,.21-.1C112.33,101.21,112.47,101.39,112.65,101.54Z"/><path class="cls-2" d="M291.4,231.27l.38.42c-.12.1-.24.3-.34.3a.53.53,0,0,1-.21-.11.45.45,0,0,1-.14-.19C291.07,231.57,291.27,231.43,291.4,231.27Z"/><path class="cls-2" d="M98.07,105.48a2.74,2.74,0,0,1-.42.21.56.56,0,0,1-.18-.26,3,3,0,0,1,.39-.32Z"/><path class="cls-2" d="M268.14,147.09c-.32.15-.49.28-.64.26s-.22-.21-.27-.35a.52.52,0,0,1,.06-.16.63.63,0,0,1,.11-.12,4.65,4.65,0,0,1,.74.37Z"/><path class="cls-2" d="M144.27,147.38a1.16,1.16,0,0,1-.41.09c-.05,0-.09-.19-.13-.3l.41-.17Z"/><path class="cls-2" d="M287.61,217.69l-.41.37c-.12-.12-.3-.24-.32-.38a.5.5,0,0,1,.3-.32C287.28,217.34,287.44,217.54,287.61,217.69Z"/><path class="cls-2" d="M81.84,81l-.26.2-.27-.35a1.43,1.43,0,0,1,.39-.15S81.79,80.93,81.84,81Z"/><path class="cls-2" d="M290.09,219.24a1.57,1.57,0,0,1-.49.07c-.05,0-.09-.19-.13-.3a3.79,3.79,0,0,1,.48-.14,1.66,1.66,0,0,1,.14.37Z"/><path class="cls-2" d="M128.15,145.12l-.23.2-.23-.37c.1,0,.22-.13.3-.11S128.1,145,128.15,145.12Z"/><path class="cls-2" d="M227.32,148.31a1.75,1.75,0,0,1-.46.21c-.06,0-.15-.17-.22-.26a1.55,1.55,0,0,1,.41-.25S227.2,148.17,227.32,148.31Z"/><path class="cls-2" d="M292.8,219.75c-.08.16-.13.35-.18.35a1.66,1.66,0,0,1-.43-.14c0-.1.07-.3.12-.3a2,2,0,0,1,.49.09Z"/><path class="cls-2" d="M292.77,173c-.08-.26-.18-.42-.14-.55s.22-.14.36-.16.16.2.13.27a2.51,2.51,0,0,1-.35.44Z"/><path class="cls-2" d="M231.7,220.37c.05-.1.08-.24.14-.26a.94.94,0,0,1,.31.09c-.05.1-.08.25-.15.28S231.79,220.41,231.7,220.37Z"/><path class="cls-2" d="M284.54,220.82l-.3-.12c0-.09.07-.23.14-.25s.19.05.3.08C284.64,220.63,284.59,220.72,284.54,220.82Z"/><path class="cls-2" d="M180.05,172.41l-.19-.25.36-.18c0,.1.12.21.09.3S180.14,172.37,180.05,172.41Z"/><path class="cls-2" d="M242.45,143.82l-.4.37a1.53,1.53,0,0,1-.26-.4c0-.06.16-.25.21-.24a1.86,1.86,0,0,1,.45.27Z"/><path class="cls-2" d="M224.42,213.78a1.74,1.74,0,0,1-.06-.45c0-.06.19-.09.3-.13a1.69,1.69,0,0,1,.12.44A2.16,2.16,0,0,1,224.42,213.78Z"/><path class="cls-2" d="M230.17,177.13a1.59,1.59,0,0,1-.06-.43s.17-.08.26-.11a2.62,2.62,0,0,1,.15.39,1.54,1.54,0,0,1-.35.15Z"/><path class="cls-2" d="M170.9,159.89l-.12.3c-.1-.05-.25-.07-.27-.14s.06-.2.09-.3Z"/><path class="cls-2" d="M176.33,172.12c-.11-.22-.17-.34-.23-.48a1.57,1.57,0,0,1,.42-.18s.2.2.17.26A2,2,0,0,1,176.33,172.12Z"/><path class="cls-2" d="M134.92,142.77a5.6,5.6,0,0,1-.68.26c-.08,0-.26-.09-.26-.13a1.66,1.66,0,0,1,.12-.42Z"/><path class="cls-2" d="M301.84,211.66c0-.11-.14-.24-.1-.3l0-.08.08-.05H302l.07.05a.35.35,0,0,1,0,.08.14.14,0,0,1,0,.09.11.11,0,0,1,0,.08C302.1,211.6,301.94,211.61,301.84,211.66Z"/><path class="cls-2" d="M272.49,177.39l.2.22-.35.21c0-.09-.13-.2-.1-.26S272.39,177.45,272.49,177.39Z"/><path class="cls-2" d="M287.59,177.55l-.3.12c0-.1-.12-.22-.1-.29s.18-.09.28-.12Z"/><path class="cls-2" d="M174.47,171.05l-.15.36-.39-.18c0-.09.08-.26.13-.27a1.43,1.43,0,0,1,.41.09Z"/><path class="cls-2" d="M286.54,222.23l-.2.17c0-.05-.09-.12-.08-.13a1.9,1.9,0,0,1,.21-.19A1,1,0,0,0,286.54,222.23Z"/><path class="cls-2" d="M220.46,177.53c.15.11.32.2.32.23a3.18,3.18,0,0,1-.23.4c-.09-.06-.27-.13-.26-.18a2.07,2.07,0,0,1,.17-.45Z"/><path class="cls-2" d="M101.87,108.13a2.21,2.21,0,0,1-.3-.45c0-.06.14-.24.18-.23a1.84,1.84,0,0,1,.4.19Z"/><path class="cls-2" d="M291,208.89l.37.15a2.35,2.35,0,0,1-.19.39s-.26-.07-.27-.12a1.58,1.58,0,0,1,.09-.42Z"/><path class="cls-2" d="M161.35,178.92a1.87,1.87,0,0,1-.23-.6c0-.13.16-.24.25-.36.12.1.3.17.34.3S161.59,178.49,161.35,178.92Z"/><path class="cls-2" d="M188.67,178.36l-.18.28-.33-.32c.09-.07.19-.19.26-.18S188.59,178.28,188.67,178.36Z"/><path class="cls-2" d="M233.77,178l.33.21a1.24,1.24,0,0,1-.25.35s-.28-.11-.27-.14a2.6,2.6,0,0,1,.19-.42Z"/><path class="cls-2" d="M129.26,150.2c-.07-.15-.14-.28-.2-.42.1,0,.25-.15.3-.12a1.52,1.52,0,0,1,.26.35Z"/><path class="cls-2" d="M202.49,170.72c-.18.15-.35.36-.4.33a2.16,2.16,0,0,1-.41-.39c.13-.08.26-.23.39-.23S202.32,170.57,202.49,170.72Z"/><path class="cls-2" d="M117.27,111.75a2,2,0,0,1,.37.35s-.16.25-.2.23a1.5,1.5,0,0,1-.4-.25Z"/><path class="cls-2" d="M296.26,178.15a1.5,1.5,0,0,1,.36.35s-.09.25-.15.25a1.59,1.59,0,0,1-.39-.1A2.58,2.58,0,0,1,296.26,178.15Z"/><path class="cls-2" d="M141.93,170.39l.38.15-.18.42c-.1-.05-.29-.09-.3-.15a1.23,1.23,0,0,1,.1-.42Z"/><path class="cls-2" d="M58,59.68s.11-.06.16,0,.07.08.11.12l-.26.1Z"/><path class="cls-2" d="M124.88,141a2.25,2.25,0,0,1,.41-.36.45.45,0,0,1,.16,0l.14.08a2.33,2.33,0,0,1-.14.47Z"/><path class="cls-2" d="M123.11,113.36c-.11-.26-.23-.42-.2-.53s.24-.15.37-.23c0,.1.15.22.13.3A2,2,0,0,1,123.11,113.36Z"/><path class="cls-2" d="M190.62,179.48c0-.1.08-.26.15-.3s.2.08.3.12-.07.26-.14.28S190.73,179.53,190.62,179.48Z"/><path class="cls-2" d="M133.16,139.9l-.24.18-.18-.36c.09,0,.21-.13.27-.1S133.12,139.8,133.16,139.9Z"/><path class="cls-2" d="M296.67,233.48l-.23.21-.23-.37c.11,0,.23-.14.3-.12S296.61,233.38,296.67,233.48Z"/><path class="cls-2" d="M196.85,139.36l-.24-.17a1.3,1.3,0,0,1,.23-.18s.14.07.13.08a1.59,1.59,0,0,1-.12.27Z"/><path class="cls-2" d="M128.41,139.41c0-.11-.14-.26-.1-.3a.89.89,0,0,1,.34-.16c0,.1.09.23,0,.31S128.51,139.36,128.41,139.41Z"/><path class="cls-2" d="M290.82,234.27a2.14,2.14,0,0,1-.39.16s-.15-.23-.12-.28a1.72,1.72,0,0,1,.35-.25Z"/><path class="cls-2" d="M280.72,157c-.54.23-.74.37-.8.32a.65.65,0,0,1-.19-.42.44.44,0,0,1,.3-.14,4,4,0,0,1,.69.24Z"/><path class="cls-2" d="M114,115a1.88,1.88,0,0,1-.21.33,1.25,1.25,0,0,1-.4-.24s.11-.26.16-.26A2.2,2.2,0,0,1,114,115Z"/><path class="cls-2" d="M289.49,285.76c.17.08.37.14.36.17a.71.71,0,0,1-.16.4s-.3-.06-.3-.11a2.52,2.52,0,0,1,.1-.46Z"/><path class="cls-2" d="M151.1,138.81l.2-.34a1.31,1.31,0,0,1,.35.27s-.08.2-.12.3Z"/><path class="cls-2" d="M197.54,180.88l-.21.34A1.78,1.78,0,0,1,197,181s.11-.28.15-.27a1.57,1.57,0,0,1,.42.18Z"/><path class="cls-2" d="M299.59,205.37l-.22.19a2.13,2.13,0,0,1-.3-.3.71.71,0,0,1,.31-.08C299.46,205.17,299.52,205.29,299.59,205.37Z"/><path class="cls-2" d="M227.23,205.68l-.3.12a3.65,3.65,0,0,1-.14-.35c.1,0,.22-.08.29,0S227.18,205.59,227.23,205.68Z"/><path class="cls-2" d="M308.2,234.77c0,.1-.07.24-.14.27s-.18-.08-.27-.12.07-.23.13-.25S308.1,234.73,308.2,234.77Z"/><path class="cls-2" d="M288.23,238.34l-.12.08a1,1,0,0,1-.15-.2l.11-.09Z"/><path class="cls-2" d="M104.81,75.15l0-.87h.3v.87Z"/><path class="cls-2" d="M303.73,203.29l-.24.16c-.05-.12-.1-.25-.14-.38l.28-.09C303.66,203.09,303.7,203.19,303.73,203.29Z"/><path class="cls-2" d="M220.92,157.24c-.11,0-.23.1-.32.07s-.08-.18-.12-.27.23-.12.3-.09S220.88,157.13,220.92,157.24Z"/><path class="cls-2" d="M274.52,284c.09.24.22.4.18.49s-.23.17-.36.21-.17-.19-.15-.26a1.75,1.75,0,0,1,.33-.44Z"/><path class="cls-2" d="M133.52,160.66a1.65,1.65,0,0,1,.2-.32,2.67,2.67,0,0,1,.41.22c-.06.1-.13.27-.18.27a2,2,0,0,1-.43-.17Z"/><path class="cls-2" d="M53.12,94.05c0-.09.07-.24.13-.26s.19.06.3.09-.07.25-.14.28S53.21,94.09,53.12,94.05Z"/><path class="cls-2" d="M119.37,134.41l-.22.36a3.47,3.47,0,0,1-.37-.3s.14-.25.19-.25a2.09,2.09,0,0,1,.4.19Z"/><path class="cls-2" d="M115,118l-.31.13c0-.11-.14-.24-.11-.3a.33.33,0,0,1,.14-.1.3.3,0,0,1,.16,0C115,117.68,115,117.85,115,118Z"/><path class="cls-2" d="M284.65,281.89a2,2,0,0,1-.19.22s-.15,0-.15-.06,0-.2.05-.3Z"/><path class="cls-2" d="M213.9,184.61l-.2.3a1,1,0,0,1-.36-.23s.11-.28.14-.28a4.11,4.11,0,0,1,.42.21Z"/><path class="cls-2" d="M61.43,94.3l-.18.33a1.28,1.28,0,0,1-.35-.26s.1-.24.13-.24a2,2,0,0,1,.4.17Z"/><path class="cls-2" d="M178.4,165.19c0,.09-.07.23-.13.24s-.2-.05-.3-.08c.05-.09.08-.23.14-.25S178.31,165.16,178.4,165.19Z"/><path class="cls-2" d="M308.16,244.77l-.3.14-.15-.4c.11,0,.25-.1.3-.06A1.2,1.2,0,0,1,308.16,244.77Z"/><path class="cls-2" d="M249.36,245.74l.28-.74a1.69,1.69,0,0,1,.19.41S249.66,245.53,249.36,245.74Z"/><path class="cls-2" d="M138.5,169.17c-.27.11-.43.23-.57.2s-.16-.24-.19-.38a.33.33,0,0,1,.13-.11.48.48,0,0,1,.17,0,2,2,0,0,1,.46.34Z"/><path class="cls-2" d="M199.56,119.62c0,.1-.08.2-.11.3s-.23-.07-.24-.14,0-.2.07-.3Z"/><path class="cls-2" d="M287,201.79c-.13-.23-.28-.37-.25-.47s.2-.19.34-.23.21.15.19.21a2,2,0,0,1-.28.49Z"/><path class="cls-2" d="M275,169.15c-.18-.56-.29-.71-.26-.84s.2-.19.3-.28c.08.13.22.27.22.4a2.7,2.7,0,0,1-.26.72Z"/><path class="cls-2" d="M248.43,131.78a2.05,2.05,0,0,1-.43.18s-.16-.24-.13-.28a1.93,1.93,0,0,1,.36-.28Z"/><path class="cls-2" d="M158.93,154.13l-.3,0a1.53,1.53,0,0,1,0-.3s.14,0,.15,0a1.39,1.39,0,0,1,.12.28Z"/><path class="cls-2" d="M291.22,245.88l-.39.23c-.06-.1-.19-.25-.16-.3a1.78,1.78,0,0,1,.35-.32C291.07,245.6,291.13,245.7,291.22,245.88Z"/><path class="cls-2" d="M304.12,247.7a2.56,2.56,0,0,1-.69.23.42.42,0,0,1-.3-.28c0-.06.1-.27.14-.27a4.13,4.13,0,0,1,.85.32Z"/><path class="cls-2" d="M160.54,131.74l.12-.3c.09.05.24.07.25.13a.89.89,0,0,1-.09.3Z"/><path class="cls-2" d="M284.12,187.42c-.26.09-.42.19-.55.16s-.2-.21-.3-.32c.14-.07.3-.21.42-.2S283.92,187.25,284.12,187.42Z"/><path class="cls-2" d="M184.57,165.13c.17.17.34.28.34.39s-.14.24-.22.36c-.12-.1-.3-.17-.34-.3S184.46,165.34,184.57,165.13Z"/><path class="cls-2" d="M77,96.51c-.05.11-.07.27-.14.3a.25.25,0,0,1-.17,0,.26.26,0,0,1-.13-.1c0-.08.07-.2.11-.3Z"/><path class="cls-2" d="M281.16,271.5a2.76,2.76,0,0,1,.2.47s-.16.21-.2.19a2.19,2.19,0,0,1-.37-.25Z"/><path class="cls-2" d="M298.79,271.62c-.23.13-.37.28-.49.26s-.19-.21-.29-.32c.08-.07.18-.2.26-.19A2.26,2.26,0,0,1,298.79,271.62Z"/><path class="cls-2" d="M119.19,131.4l.27.5a2.39,2.39,0,0,1-.43.2s-.18-.2-.15-.27S119,131.58,119.19,131.4Z"/><path class="cls-2" d="M305.52,249.68a1.86,1.86,0,0,1-.09-.47s.19-.08.3-.12a3.12,3.12,0,0,1,.15.43S305.68,249.61,305.52,249.68Z"/><path class="cls-2" d="M72.07,98.19l-.27.16L71.67,98c.1,0,.23-.1.28-.06S72,98.08,72.07,98.19Z"/><path class="cls-2" d="M280.11,269.63a1.85,1.85,0,0,1-.42.11s-.13-.27-.11-.29a2.87,2.87,0,0,1,.4-.18C280,269.37,280.05,269.47,280.11,269.63Z"/><path class="cls-2" d="M202.27,167l.53.31a1.43,1.43,0,0,1-.34.5c-.06,0-.41-.11-.41-.17A2,2,0,0,1,202.27,167Z"/><path class="cls-2" d="M289.45,199.71c-.25.06-.41.15-.54.11s-.14-.24-.13-.37.21-.17.26-.14a2.59,2.59,0,0,1,.41.4Z"/><path class="cls-2" d="M214.7,199.54l-.25.2-.19-.39.32-.13Z"/><path class="cls-2" d="M287.08,252.08l-.52.23a2.23,2.23,0,0,1-.16-.43l.12-.09.15,0C286.8,251.8,286.89,251.92,287.08,252.08Z"/><path class="cls-2" d="M132.09,98.33a3.42,3.42,0,0,1-.43.21s-.19-.25-.16-.28a1.52,1.52,0,0,1,.37-.3Z"/><path class="cls-2" d="M302.08,261.77l-.21.25-.26-.37c.09,0,.2-.16.27-.14S302,261.66,302.08,261.77Z"/><path class="cls-2" d="M188.47,165.71l-.44.14c0-.11-.12-.29-.09-.32a1,1,0,0,1,.38-.18Z"/><path class="cls-2" d="M118,122l.24-.2.25.36c-.1,0-.22.11-.3.09S118,122.05,118,122Z"/><path class="cls-2" d="M56.18,65.83l-.37.39c-.11-.1-.3-.2-.3-.3a.46.46,0,0,1,.08-.21.39.39,0,0,1,.17-.14C55.85,65.55,56,65.72,56.18,65.83Z"/><path class="cls-2" d="M241.45,167a2.66,2.66,0,0,1-.45.29.38.38,0,0,1-.16-.23c0-.09.08-.19.12-.3Z"/><path class="cls-2" d="M186.64,166.55c.1,0,.23.07.27.15a.3.3,0,0,1,0,.13.24.24,0,0,1-.09.11.23.23,0,0,1-.14,0,.21.21,0,0,1-.11-.08C186.51,166.76,186.59,166.65,186.64,166.55Z"/><path class="cls-2" d="M132.17,155.44l-.35.44a1.3,1.3,0,0,1-.28-.34c0-.07.1-.28.15-.28a2,2,0,0,1,.48.18Z"/><path class="cls-2" d="M292,254.73l.25-.2.26.36c-.11,0-.23.12-.33.1S292,254.83,292,254.73Z"/><path class="cls-2" d="M135.09,126c-.05.1-.07.24-.15.3s-.26-.06-.27-.11a.93.93,0,0,1,.11-.3Z"/><path class="cls-2" d="M113.19,123.09c0,.09-.07.23-.13.25a1,1,0,0,1-.3-.1c0-.09.08-.22.15-.25S113.09,123.05,113.19,123.09Z"/><path class="cls-2" d="M261.92,166.39l-.23.19-.26-.32c.09,0,.2-.14.28-.13S261.84,166.29,261.92,166.39Z"/><path class="cls-2" d="M221.8,195.54l-.26-.32.38-.28c.06.09.19.21.17.26a1.34,1.34,0,0,1-.29.34Z"/><path class="cls-2" d="M265.3,194.77l.29-.21c.06.14.13.27.2.41-.11,0-.24.11-.32.08S265.36,194.87,265.3,194.77Z"/><path class="cls-2" d="M221,124.83a2.19,2.19,0,0,1-.43.15s-.16-.24-.13-.26a1.85,1.85,0,0,1,.37-.25Z"/><path class="cls-2" d="M298.44,193.48l-.3.18-.16-.41c.11,0,.24-.1.32-.06S298.39,193.38,298.44,193.48Z"/><path class="cls-2" d="M76,101.11l-.1.3-.3-.13a.88.88,0,0,1,.16-.28S75.9,101.07,76,101.11Z"/><path class="cls-2" d="M285.94,257.44a2.34,2.34,0,0,1-.49.27.39.39,0,0,1-.26-.17c.05-.13.13-.34.24-.36S285.69,257.31,285.94,257.44Z"/><path class="cls-2" d="M175.85,123.75a1.82,1.82,0,0,1-.15-.23l.12-.09.17.24Z"/><path class="cls-2" d="M224.91,123.29l-.3.13c0-.1-.1-.21-.08-.3s.2-.14.24-.11A1.43,1.43,0,0,1,224.91,123.29Z"/><path class="cls-2" d="M76.81,67.05l-.2.19s-.09-.12-.08-.14l.19-.17Z"/><path class="cls-2" d="M302,258.55l-.22.27c-.07-.09-.2-.18-.2-.27s.12-.18.19-.27Z"/><path class="cls-2" d="M214.64,191.8l-.21.2a1.38,1.38,0,0,1-.14-.27s.1-.12.12-.11a2,2,0,0,1,.23.18Z"/><path class="cls-2" d="M134.74,167v-.74h.06c0,.24,0,.48,0,.72Z"/><path class="cls-2" d="M81.6,100v.69h-.2V100Z"/><path class="cls-2" d="M78.37,99.9l-.2.25-.25-.35c.09,0,.19-.15.27-.14S78.31,99.81,78.37,99.9Z"/><path class="cls-2" d="M278.55,166a1.94,1.94,0,0,1-.42.17s-.15-.25-.12-.29a1.74,1.74,0,0,1,.36-.24Z"/><path class="cls-2" d="M172.26,167.62s-.11.06-.16,0-.06-.08-.09-.13l.24-.07Z"/><path class="cls-2" d="M222.45,165.65c-.06.09-.11.24-.18.26a1,1,0,0,1-.32-.1c.06-.09.11-.23.19-.26S222.34,165.61,222.45,165.65Z"/><path class="cls-2" d="M291.86,252.06l0,.14-.13-.06Z"/><path class="cls-2" d="M281.66,265.88l.24-.23.22.36c-.1,0-.21.12-.3.11S281.72,266,281.66,265.88Z"/><path class="cls-2" d="M294.86,268.81c0,.11-.06.22-.1.33a1.64,1.64,0,0,1-.33-.26s.12-.18.18-.27Z"/><path class="cls-2" d="M140.49,120.87l-.16.24a1.37,1.37,0,0,1-.18-.24s.07-.14.08-.13a2.1,2.1,0,0,1,.26.13Z"/><path class="cls-2" d="M202.41,188.85a2.42,2.42,0,0,1-.25.3l-.37-.3c.07-.08.16-.23.21-.21a1.44,1.44,0,0,1,.41.21Z"/><path class="cls-2" d="M257.31,270.89l-.17.24a1,1,0,0,1-.18-.22s.06-.14.07-.14a1.69,1.69,0,0,1,.28.12Z"/><path class="cls-2" d="M231.19,188l-.26.18c-.05-.14-.09-.28-.13-.41s.24-.11.28-.07S231.15,187.94,231.19,188Z"/><path class="cls-2" d="M218.49,167.16c.1.05.26.08.28.15a1.74,1.74,0,0,1-.09.34c-.1-.06-.25-.09-.28-.17S218.46,167.28,218.49,167.16Z"/><path class="cls-2" d="M62.37,96.09l-.22.24a2.33,2.33,0,0,1-.17-.26.3.3,0,0,1,.1-.14A2.69,2.69,0,0,1,62.37,96.09Z"/><path class="cls-2" d="M202.79,187l-.14.3c-.1-.05-.25-.09-.28-.17s.08-.19.13-.3Z"/><path class="cls-2" d="M65.3,95.86,65,96c0-.11-.12-.23-.1-.32s.17-.1.27-.15Z"/><path class="cls-2" d="M154.24,186.26c-.08-.09-.18-.17-.17-.24s.11-.14.18-.2.13.07.12.09a2.09,2.09,0,0,1-.13.35Z"/><path class="cls-2" d="M139.66,153.38l-.15-.27.37-.13c0,.09.1.22.07.26A1.58,1.58,0,0,1,139.66,153.38Z"/><path class="cls-2" d="M296.79,245.16l-.16.05V245a.34.34,0,0,1,.15.06S296.79,245.12,296.79,245.16Z"/><path class="cls-2" d="M116.22,119.45l-.18.23-.19-.24s.08-.13.1-.12a1.66,1.66,0,0,1,.27.13Z"/><path class="cls-2" d="M290,279.14c-.1.05-.26.15-.3.11a1,1,0,0,1-.19-.34c.11,0,.23-.08.32,0S289.89,279.05,290,279.14Z"/><path class="cls-2" d="M184.93,169.1l-.23.2-.23-.35c.1,0,.22-.15.3-.12S184.87,169,184.93,169.1Z"/><path class="cls-2" d="M107.22,119.44l-.13-.29a.79.79,0,0,1,.3-.08s.08.15.12.23Z"/><path class="cls-2" d="M157.94,118.87c-.09.06-.23.18-.25.16a1.44,1.44,0,0,1-.23-.32.73.73,0,0,1,.31-.07C157.86,118.66,157.89,118.78,157.94,118.87Z"/><path class="cls-2" d="M174.22,133.65c.09,0,.25.07.27.14a.84.84,0,0,1-.12.3c-.09-.05-.23-.08-.26-.15S174.18,133.75,174.22,133.65Z"/><path class="cls-2" d="M236.19,164.53c0,.09-.07.24-.13.26s-.2,0-.3-.09.07-.24.14-.26S236.09,164.49,236.19,164.53Z"/><path class="cls-2" d="M286.49,183.79c.23,0,.42-.06.42-.13s-.19-.13-.42-.13-.41.06-.41.13S286.26,183.79,286.49,183.79Z"/><path class="cls-2" d="M118.51,136.52l.57-.48.13.28-.74.17Z"/><path class="cls-2" d="M289.83,238.71l-.24-.18a1,1,0,0,1,.22-.18s.13.06.12.07a2.47,2.47,0,0,1-.1.29Z"/><path class="cls-2" d="M221.86,136.27l.12-.3c.09.06.22.09.25.17s-.06.18-.1.27Z"/><path class="cls-2" d="M107.74,116.89c-.07.08-.12.2-.19.21a.87.87,0,0,1-.32-.06c.07-.1.11-.24.21-.29S107.63,116.83,107.74,116.89Z"/><path class="cls-2" d="M103,116.73l.29.15c0,.1-.08.25-.17.3a.4.4,0,0,1-.15,0,.32.32,0,0,1-.12-.11C102.88,117,103,116.83,103,116.73Z"/><path class="cls-2" d="M116.89,116.31h-.28s0-.1,0-.15h.29a.39.39,0,0,1,0,.15Z"/><path class="cls-2" d="M128,115.73l-.11-.3c.09,0,.2-.11.28-.09s.12.19.09.24S128.07,115.68,128,115.73Z"/><path class="cls-2" d="M74.62,93.32c-.05.1-.07.26-.14.28s-.2-.07-.3-.1l.13-.3Z"/><path class="cls-2" d="M275,205.39l-.2-.16.21-.16s.12.07.11.08a1.34,1.34,0,0,1-.12.24Z"/><path class="cls-2" d="M123.49,137.11l-.21.23L123,137c.09,0,.19-.13.27-.12S123.42,137,123.49,137.11Z"/><path class="cls-2" d="M56.75,93.22l-.22.24-.22-.37c.09,0,.2-.15.28-.13S56.7,93.13,56.75,93.22Z"/><path class="cls-2" d="M63.85,92.74l.09-.14.22.19-.09.14Z"/><path class="cls-2" d="M96,114.74c.09.05.23.09.27.17s-.06.18-.1.27-.26-.06-.28-.12A.93.93,0,0,1,96,114.74Z"/><path class="cls-2" d="M52.69,92.34c.08.06.21.1.23.17a.85.85,0,0,1,0,.32.92.92,0,0,1-.33-.19S52.64,92.45,52.69,92.34Z"/><path class="cls-2" d="M282.49,206.26l-.15-.21s.11-.09.12-.08a1.56,1.56,0,0,1,.16.2Z"/><path class="cls-2" d="M171.26,163.46c0,.08-.09.21-.16.22a.85.85,0,0,1-.32,0,1.13,1.13,0,0,1,.19-.32S171.15,163.4,171.26,163.46Z"/><path class="cls-2" d="M119.25,113.44c0,.09-.07.26-.12.27a1.41,1.41,0,0,1-.32-.1c0-.1.08-.24.16-.29S119.16,113.39,119.25,113.44Z"/><path class="cls-2" d="M49,92.51c0-.11-.15-.26-.12-.3a1.2,1.2,0,0,1,.34-.21c0,.12.12.25.08.34S49.12,92.45,49,92.51Z"/><path class="cls-2" d="M304.23,233.32l-.19.27a1.63,1.63,0,0,1-.23-.35s.14-.13.22-.19S304.16,233.23,304.23,233.32Z"/><path class="cls-2" d="M137.46,157.23l.24-.18.2.34c-.09,0-.21.13-.27.11S137.52,157.33,137.46,157.23Z"/><path class="cls-2" d="M257.61,163.47l-.14.07a1.43,1.43,0,0,1-.09-.27l.12-.06C257.54,163.29,257.57,163.4,257.61,163.47Z"/><path class="cls-2" d="M142.46,157.18c.09.06.25.09.26.16a.74.74,0,0,1-.09.32c-.1,0-.26-.08-.28-.16S142.42,157.3,142.46,157.18Z"/><path class="cls-2" d="M258.24,149.88l.19.21s-.07.11-.09.1l-.27-.09Z"/><path class="cls-2" d="M168,158c-.1,0-.21.09-.3.06s-.07-.16-.11-.25l.3-.11Z"/><path class="cls-2" d="M135,163.22l-.3,0,0-.28s.13,0,.15,0a1.57,1.57,0,0,1,.12.26Z"/><path class="cls-2" d="M189.53,170.57l.17.26-.34.22c0-.09-.12-.21-.09-.29S189.43,170.64,189.53,170.57Z"/><path class="cls-2" d="M120.93,92.24a2.14,2.14,0,0,1-.07-.43s.24-.12.26-.09a1.93,1.93,0,0,1,.19.38Z"/><path class="cls-2" d="M99.08,91.4s.07.09.06.13-.07,0-.11.08L99,91.4Z"/><path class="cls-2" d="M289.77,228.66a2.17,2.17,0,0,1-.42.11s-.13-.27-.1-.3a1.76,1.76,0,0,1,.39-.19Z"/><path class="cls-2" d="M108.45,107.88l-.11.3c-.1,0-.25-.06-.28-.14s.07-.18.12-.28Z"/><path class="cls-2" d="M140.18,108l-.32.07a1.13,1.13,0,0,1,0-.26l.06,0H140c.06.08.13.16.18.24Z"/><path class="cls-2" d="M292.31,225.57l.19-.23a1.32,1.32,0,0,1,.16.25.38.38,0,0,1-.09.14,1.64,1.64,0,0,1-.26-.16Z"/><path class="cls-2" d="M155.35,161.84l.23.21-.37.25c0-.1-.12-.21-.1-.3S155.27,161.9,155.35,161.84Z"/><path class="cls-2" d="M199.83,177.65l-.1.11-.18-.17a.51.51,0,0,1,.08-.13Z"/><path class="cls-2" d="M282,161.84l-.39.24c0-.11-.16-.25-.13-.3a1.4,1.4,0,0,1,.33-.27Z"/><path class="cls-2" d="M181.36,177.15l-.12-.32c.11,0,.24-.13.3-.1s.1.19.14.3Z"/><path class="cls-2" d="M203,175.51c.07.08.13.17.19.25s-.07.14-.09.13a1.59,1.59,0,0,1-.27-.12Z"/><path class="cls-2" d="M264.15,143.93a3.19,3.19,0,0,1-.44.13.58.58,0,0,1-.11-.3,1.05,1.05,0,0,1,.41-.17,1.43,1.43,0,0,1,.14.34Z"/><path class="cls-2" d="M303.53,220.09l-.25.21-.19-.38.3-.14C303.44,219.88,303.48,220,303.53,220.09Z"/><path class="cls-2" d="M149.83,172.64l-.22.21-.21-.38c.1,0,.21-.12.3-.1S149.79,172.54,149.83,172.64Z"/><path class="cls-2" d="M159.1,148l-.22.17-.22-.35c.1,0,.22-.11.3-.09S159.06,147.92,159.1,148Z"/><path class="cls-2" d="M291.16,218.53l-.1.32c-.11-.08-.25-.14-.3-.25s.11-.18.17-.28Z"/><path class="cls-2" d="M283.48,217l.1,0a.58.58,0,0,1,0,.14s-.1,0-.1,0a.31.31,0,0,1,0-.13Z"/><path class="cls-2" d="M243.93,158.2a.8.8,0,0,1,.21.15s0,.14,0,.15h-.25C243.88,158.39,243.9,158.29,243.93,158.2Z"/><path class="cls-2" d="M189.57,157.42l.07.14-.23.06a.27.27,0,0,1,0-.16C189.47,157.41,189.52,157.42,189.57,157.42Z"/><path class="cls-2" d="M285.47,214.38l-.13.12a2.75,2.75,0,0,1-.14-.3l.14-.09Z"/><path class="cls-2" d="M110.31,109.31l-.12.1a1.53,1.53,0,0,1-.11-.27s.08-.06.12-.1Z"/><path class="cls-2" d="M71.73,61.41a.35.35,0,0,1-.13.05s-.07-.05-.11-.08Z"/><path class="cls-2" d="M225.67,219.51l-.3.05h.26Z"/><path class="cls-2" d="M174.53,163.43l.12.13a1.88,1.88,0,0,1-.3.12s-.08-.07-.11-.12Z"/><path class="cls-2" d="M194.32,163.64l-.14,0,.16-.13.1.09Z"/><path class="cls-2" d="M174.27,156.4a1,1,0,0,1-.16.2s-.05,0-.07,0l-.07,0a1,1,0,0,1,0-.24Z"/><path class="cls-2" d="M241,221.7c.08.08.19.15.18.22a.52.52,0,0,1-.17.21s-.13-.08-.12-.1.07-.22.11-.33Z"/><path class="cls-2" d="M113.58,111.25a1.57,1.57,0,0,1-.17.21s-.14,0-.14,0a1,1,0,0,1,0-.24Z"/><path class="cls-2" d="M235.56,211.24l-.15.27s-.13-.08-.13-.1.08-.18.13-.27Z"/><path class="cls-2" d="M285.8,225.09a.77.77,0,0,1-.3.11c-.06,0-.11-.13-.17-.2a.77.77,0,0,1,.3-.11C285.69,224.9,285.74,225,285.8,225.09Z"/><path class="cls-2" d="M279.85,210.52a1.14,1.14,0,0,1-.26.09s-.06-.08-.09-.12l.28-.1Z"/><path class="cls-2" d="M271.15,166.06c.06.06.19.14.18.19s-.11.15-.18.23-.11-.1-.11-.13a1.45,1.45,0,0,1,.11-.29Z"/><path class="cls-2" d="M241,228.34l.16-.05,0,.22a.47.47,0,0,1-.17,0S241,228.39,241,228.34Z"/><path class="cls-2" d="M283.06,209s-.08.12-.11.11a.82.82,0,0,1-.26-.1l.26-.11S283,209,283.06,209Z"/><path class="cls-2" d="M97.47,112.11c-.06-.08-.16-.16-.17-.25s.12-.12.2-.18.11.09.1.12a2.88,2.88,0,0,1-.13.31Z"/><path class="cls-2" d="M195.7,154.53l-.15.25s-.12-.08-.12-.1.08-.16.13-.24Z"/><path class="cls-2" d="M141.49,112.15a1.94,1.94,0,0,1,.13.3s-.09.07-.14.11-.08-.2-.11-.3S141.46,112.19,141.49,112.15Z"/><path class="cls-2" d="M282.29,207.49s0,.1-.05.1a.33.33,0,0,1-.14,0s0-.1,0-.1l.15,0Z"/><path class="cls-2" d="M92.62,113.22a.57.57,0,0,1-.18,0s0-.06,0-.09Z"/><path class="cls-2" d="M175.34,167.28s-.13.1-.14.09a2.14,2.14,0,0,1-.13-.19.28.28,0,0,1,.18,0S175.31,167.23,175.34,167.28Z"/><path class="cls-2" d="M101.68,114.42l-.14.28s-.12-.09-.11-.12a1.34,1.34,0,0,1,.13-.27Z"/><path class="cls-2" d="M307.12,205.77l-.13.11c0-.09-.09-.17-.12-.26s.07-.06.12-.09Z"/><path class="cls-2" d="M260.14,153.8l-.26.07a1.61,1.61,0,0,1,0-.31s.08-.05.13-.08Z"/><path class="cls-2" d="M162.93,168.53l-.2.26c0-.09-.16-.18-.15-.27s.11-.17.17-.26Z"/><path class="cls-2" d="M287.29,235.19l0,.15-.2,0a.4.4,0,0,1,0-.15S287.25,235.2,287.29,235.19Z"/><path class="cls-2" d="M280.19,204.26l.06.15-.2.05a.45.45,0,0,1,0-.16S280.15,204.28,280.19,204.26Z"/><path class="cls-2" d="M179.27,169.14l-.13.09A1.41,1.41,0,0,1,179,169s.07-.08.11-.11Z"/><path class="cls-2" d="M196,168.81l-.12-.08.14,0Z"/><path class="cls-2" d="M87.6,102.54l-.15-.05.18-.17.11.12Z"/><path class="cls-2" d="M205.22,168.66c.05.07.1.12.09.16s-.07.07-.11.1S205.21,168.78,205.22,168.66Z"/><path class="cls-2" d="M83.12,102.74l-.26.1a2.64,2.64,0,0,1,0-.28s.09-.07.14-.1Z"/><path class="cls-2" d="M75.93,73.91l-.07.12,0-.14Z"/><path class="cls-2" d="M200.91,169.38l-.21.12a1.53,1.53,0,0,1,0-.3s.07-.07.11-.11Z"/><path class="cls-2" d="M189.71,151.63v-.12l.12.06Z"/><path class="cls-2" d="M113.61,101.31l-.26.11s-.09-.08-.09-.12.08-.13.1-.12a1.19,1.19,0,0,1,.25.13Z"/><path class="cls-2" d="M159.6,169.5s-.08.13-.1.12l-.25-.13a1.15,1.15,0,0,1,.25-.12A.53.53,0,0,1,159.6,169.5Z"/><path class="cls-2" d="M280,202.09l-.35-.23.1-.12c.06.13.13.27.19.41Z"/><path class="cls-2" d="M276.34,201.42l.13.13-.3.12s-.09-.08-.13-.12Z"/><path class="cls-2" d="M272.35,201.5l.14.06-.14.06Z"/><path class="cls-2" d="M194.75,119.7s.08.09.08.13-.06.08-.09.11Z"/><path class="cls-2" d="M109.23,74.48s-.1.07-.15.07-.08-.06-.12-.09l.23-.12Z"/><path class="cls-2" d="M110.49,120.62c-.06.08-.11.19-.18.2s-.18-.06-.27-.1.09-.21.15-.21a.64.64,0,0,1,.3.11Z"/><path class="cls-2" d="M273.36,199.92h.1l0,.11Z"/><path class="cls-2" d="M299.32,250.44l-.15-.07.16-.05Z"/><path class="cls-2" d="M131.71,121.06s.11,0,.12,0a.41.41,0,0,1,0,.16l-.2,0Z"/><path class="cls-2" d="M153.79,122c.06,0,.12-.17.12-.39s-.06-.38-.12-.38-.12.17-.12.38S153.72,122,153.79,122Z"/><path class="cls-2" d="M279.85,196.75l-.05.15-.19-.16c.05,0,.08-.09.12-.09S279.81,196.72,279.85,196.75Z"/><path class="cls-2" d="M124.73,122.55c-.07-.06-.18-.11-.19-.17s.07-.19.1-.28.2.1.2.16A.76.76,0,0,1,124.73,122.55Z"/><path class="cls-2" d="M202.25,122.06a.21.21,0,0,1,0,.14.4.4,0,0,1-.15,0l0-.23Z"/><path class="cls-2" d="M146.05,151.53l-.14,0a.85.85,0,0,1,0-.17.5.5,0,0,1,.13,0Z"/><path class="cls-2" d="M123.73,123.13l-.22.12a1,1,0,0,1-.05-.3s.08-.06.13-.1Z"/><path class="cls-2" d="M97.92,76.65l0,.16-.21,0a.47.47,0,0,1,0-.17S97.88,76.66,97.92,76.65Z"/><path class="cls-2" d="M297.38,255.22c0-.05.09-.14.11-.13a1,1,0,0,1,.28.13,1.39,1.39,0,0,1-.28.12S297.42,255.26,297.38,255.22Z"/><path class="cls-2" d="M173.39,149.3l.22-.12a1.07,1.07,0,0,1,.06.27s-.08.06-.13.09S173.44,149.38,173.39,149.3Z"/><path class="cls-2" d="M160.4,125.06s.1,0,.12,0a.49.49,0,0,1,0,.14l-.22,0Z"/><path class="cls-2" d="M151.09,172.89c.09-.07.16-.18.23-.18s.16.11.24.17-.1.13-.13.12A1.35,1.35,0,0,1,151.09,172.89Z"/><path class="cls-2" d="M152.15,147.48l-.2.18a.9.9,0,0,1-.15-.19s.06-.11.08-.11a1.59,1.59,0,0,1,.27.12Z"/><path class="cls-2" d="M128.12,128.42l0,.14-.24,0c0-.05,0-.12,0-.15S128.07,128.42,128.12,128.42Z"/><path class="cls-2" d="M69.64,98.77l0,.15-.17-.17.12-.11Z"/><path class="cls-2" d="M303,264.14s0,.11,0,.13a.33.33,0,0,1-.14,0v-.22Z"/><path class="cls-2" d="M197.13,129.12l-.12.11a1.31,1.31,0,0,1-.09-.28s.07-.07.11-.1Z"/><path class="cls-2" d="M286.07,267.39c.05,0,.13,0,.13,0a.11.11,0,0,1,0,.08.15.15,0,0,1,0,.07s-.1,0-.15,0Z"/><path class="cls-2" d="M300,268.56l-.26.07a1.41,1.41,0,0,1,0-.29s.09-.06.14-.08Z"/><path class="cls-2" d="M242.61,129.08l-.22.12a1.54,1.54,0,0,1,0-.3s.08-.07.12-.11A2,2,0,0,0,242.61,129.08Z"/><path class="cls-2" d="M188.44,174.16s.12,0,.12,0a.22.22,0,0,1,0,.08.09.09,0,0,1,0,.06l-.13,0Z"/><path class="cls-2" d="M214.88,145H215a.28.28,0,0,1,0,.15h-.2Z"/><path class="cls-2" d="M243.75,129.64c.07-.07.12-.18.18-.18s.14.09.2.15-.06.12-.08.12A1.32,1.32,0,0,1,243.75,129.64Z"/><path class="cls-2" d="M97.05,82.9l.13.13a1.3,1.3,0,0,1-.3.13s-.09-.07-.13-.11Z"/><path class="cls-2" d="M92.64,84.85a1.63,1.63,0,0,1-.31.11s-.07-.08-.11-.14a1.76,1.76,0,0,1,.3-.1S92.6,84.8,92.64,84.85Z"/><path class="cls-2" d="M69.2,97.34l-.28-.15s.09-.14.11-.13l.28.13Z"/><path class="cls-2" d="M83,96.77l.06.16-.23,0a.47.47,0,0,1,0-.17S82.93,96.78,83,96.77Z"/><path class="cls-2" d="M124.37,131.51l-.3.1s-.07-.08-.11-.12a1.21,1.21,0,0,1,.3-.11S124.33,131.46,124.37,131.51Z"/><path class="cls-2" d="M177.47,160.87l0,.14-.16,0s0-.09,0-.13Z"/><path class="cls-2" d="M146.86,186.89l-.17.24-.14-.1.18-.26Z"/><path class="cls-2" d="M130.24,143.3c.07.07.18.15.17.22s-.11.15-.17.23-.11-.1-.11-.13a3,3,0,0,1,.11-.32Z"/><path class="cls-2" d="M173,143.06l-.12,0,0-.1Z"/><path class="cls-2" d="M260.88,143s-.11,0-.11,0a.29.29,0,0,1,0-.13s.1,0,.11,0a.69.69,0,0,1,.05.13Z"/><path class="cls-2" d="M162.88,177.7l-.15.06s0-.11,0-.15.09,0,.13-.06Z"/><path class="cls-2" d="M214.22,177.75l-.15.05,0-.23a.22.22,0,0,1,.16,0S214.22,177.69,214.22,177.75Z"/><path class="cls-2" d="M138.87,133.29c-.07.06-.14.14-.22.15s-.12-.11-.18-.16.09-.1.12-.1l.28.11Z"/><path class="cls-2" d="M71.51,94.93l-.26.11a.19.19,0,0,1-.09-.12s.07-.12.09-.11A1.51,1.51,0,0,1,71.51,94.93Z"/><path class="cls-2" d="M293.18,281.63l-.07-.13.16-.1a.38.38,0,0,1,0,.15S293.22,281.6,293.18,281.63Z"/><path class="cls-2" d="M167.54,180.33s-.11.07-.12.06l-.1-.15a.39.39,0,0,1,.15,0S167.52,180.29,167.54,180.33Z"/><path class="cls-2" d="M243.29,134.3l-.08.11,0-.13Z"/><path class="cls-2" d="M146.72,183.2l.05.14h-.13Z"/><path class="cls-2" d="M128.37,131.84l.11,0,0,.1Z"/><path class="cls-2" d="M73,100.55s-.08.09-.11.09-.07-.07-.11-.11.08-.1.12-.09S73,100.51,73,100.55Z"/><path class="cls-2" d="M98.2,101.23l0-.12a.18.18,0,0,0,.07,0Z"/><path class="cls-2" d="M180.23,149.29l0,.11h-.11Z"/><path class="cls-2" d="M97.79,103.14l.1,0v.1Z"/><path class="cls-2" d="M287.7,232.11l-.1.1s-.09-.08-.09-.11.07-.07.1-.1Z"/><path class="cls-2" d="M277.88,207.44l0,.1h-.11Z"/><path class="cls-2" d="M286.87,228.45l-.05-.13.12,0Z"/><path class="cls-2" d="M288.29,226.12l.11,0,0,.1Z"/><path class="cls-2" d="M92.65,110.52l0,.1h-.1Z"/><path class="cls-2" d="M63.27,64.7v.11s-.07,0-.11,0v-.22Z"/><path class="cls-2" d="M225.88,220l.18.13s-.1,0-.11,0a.33.33,0,0,1,0-.15Z"/><path class="cls-2" d="M225.93,220a5.42,5.42,0,0,1-.26-.48l0,0,.27.48Z"/><path class="cls-2" d="M170.52,209c.21,7.44-5.38,13.42-6.51,20.88l-.9-.3C165.64,222.57,168.16,215.57,170.52,209Z"/><path class="cls-2" d="M173.79,208.86q-3.73,9.36-7.46,18.7l-.54-.21,7.37-18.79Z"/><path class="cls-2" d="M154.05,248.79l8.07-14.16C162.09,237,157.08,245.82,154.05,248.79Z"/><path class="cls-2" d="M150.36,261.34l-3.8.64c0-.24-.06-.47-.1-.7l3.91-.43C150.36,261,150.36,261.17,150.36,261.34Z"/><path class="cls-2" d="M161,244.77l-.28.14-.17-.34c.1,0,.24-.15.3-.11S161,244.65,161,244.77Z"/><path class="cls-2" d="M167.83,228.42s-.08.12-.11.11l-.25-.11a1.36,1.36,0,0,1,.25-.11S167.8,228.38,167.83,228.42Z"/><path class="cls-2" d="M161.9,251.28H162l-.06.13Z"/><path class="cls-2" d="M159,253.83s-.12-.09-.12-.13.09-.08.13-.12.11.09.11.13S159,253.79,159,253.83Z"/><path class="cls-2" d="M201.54,196.48l.22,2.37-.7.05v-2.35Z"/><path class="cls-2" d="M192.84,193.6l.06-1.41.49,0v1.43Z"/><path class="cls-2" d="M179.81,184.38c-.18.14-.3.33-.42.32s-.23-.21-.35-.32c.12-.12.22-.3.35-.32S179.63,184.24,179.81,184.38Z"/><path class="cls-2" d="M191.13,192.88c-.17-.16-.37-.27-.36-.36s.18-.25.28-.37c.11.1.29.18.33.3S191.23,192.7,191.13,192.88Z"/><path class="cls-2" d="M177.07,183.43l-.18.34a2.33,2.33,0,0,1-.35-.27s.12-.26.15-.25a2.22,2.22,0,0,1,.38.18Z"/><path class="cls-2" d="M183.08,186.35l-.23-.41c.1-.05.26-.16.3-.13a1.45,1.45,0,0,1,.25.36Z"/><path class="cls-2" d="M205.73,200.13l-.15.38-.42-.18c.05-.1.08-.28.14-.3a1.28,1.28,0,0,1,.43.1Z"/><path class="cls-2" d="M185.15,188.6l-.24.19-.23-.35c.1,0,.21-.11.3-.09S185.09,188.51,185.15,188.6Z"/><path class="cls-2" d="M188.38,188.84c-.23.1-.39.23-.47.19a.69.69,0,0,1-.2-.37s.19-.18.25-.16A1.92,1.92,0,0,1,188.38,188.84Z"/><path class="cls-2" d="M190.84,190l.21.22-.35.21c0-.09-.12-.2-.09-.27S190.76,190.06,190.84,190Z"/><path class="cls-2" d="M198.79,197.69a4.68,4.68,0,0,1-.73.21c-.09,0-.28-.09-.28-.13a1.88,1.88,0,0,1,.14-.42Z"/><path class="cls-2" d="M187.86,191l-.3-.44a1.83,1.83,0,0,1,.38-.23s.2.16.19.22a1.86,1.86,0,0,1-.27.45Z"/><path class="cls-2" d="M197.7,195.23l.25-.18.23.34c-.11,0-.22.12-.3.1S197.75,195.32,197.7,195.23Z"/><path class="cls-2" d="M195.78,194.07c.1.05.26.09.28.16s-.07.2-.11.3c-.1-.05-.26-.08-.28-.15S195.74,194.19,195.78,194.07Z"/><path class="cls-2" d="M193.34,194.89c-.09.05-.25.16-.26.14a1.38,1.38,0,0,1-.22-.35c.1,0,.23-.1.31-.06S193.28,194.79,193.34,194.89Z"/><path class="cls-2" d="M195.75,196.15a1.43,1.43,0,0,1-.41.09c-.06,0-.1-.19-.15-.3l.42-.17Z"/><path class="cls-2" d="M203.81,198.7c-.11,0-.23.13-.3.1s-.11-.18-.16-.28c.11,0,.23-.13.32-.1S203.76,198.6,203.81,198.7Z"/><path class="cls-2" d="M183.85,187.13l.19.21a1.71,1.71,0,0,1-.23.13s-.09-.05-.14-.08Z"/><path class="cls-2" d="M175.4,185.18c.07.08.21.21.19.24a1.64,1.64,0,0,1-.3.29c0-.09-.15-.2-.13-.29S175.28,185.28,175.4,185.18Z"/><path class="cls-2" d="M173.61,181l-.11.1s-.06-.1-.05-.14.06-.08.1-.12Z"/><path class="cls-2" d="M123.62,173.58l-.24.18a4,4,0,0,1-.22-.34c.09,0,.21-.12.28-.09S123.55,173.49,123.62,173.58Z"/><path class="cls-2" d="M121.16,180.48a.33.33,0,0,1,0,.14s-.07,0-.11,0l.19-.11Z"/><path class="cls-2" d="M243.62,309.51c-1,.24-1.92.49-2.89.66,0,0-.44-1-.28-1.2,1-1.13,2.1-.91,3.12-.11C243.59,309.07,243.61,309.29,243.62,309.51Z"/><path class="cls-2" d="M249.55,308l-.53-1.63.63-.21.59,1.63Z"/><path class="cls-2" d="M252.26,306l.46,1.27-.51.24-.63-1.2Z"/><path class="cls-2" d="M246.28,308c-.8.43-1,.64-1.14.59a.65.65,0,0,1-.35-.5c0-.13.28-.34.45-.36A4.32,4.32,0,0,1,246.28,308Z"/><path class="cls-2" d="M238.53,309.52v1.23l-.43.05-.22-1.23Z"/><path class="cls-2" d="M247,308.27l-.1-.83a4.46,4.46,0,0,1,.66.4s-.13.3-.19.45Z"/><path class="cls-2" d="M236.7,310.41a4.26,4.26,0,0,1-.82.59s-.3-.28-.28-.35a.88.88,0,0,1,.41-.46C236.14,310.13,236.34,310.28,236.7,310.41Z"/><path class="cls-2" d="M233.36,310.34c.27.37.49.54.48.69s-.23.34-.36.51c-.12-.12-.34-.23-.35-.36S233.23,310.8,233.36,310.34Z"/><path class="cls-2" d="M220.31,313.94l.23-.9a3.28,3.28,0,0,1,.48.63c0,.1-.16.3-.26.46Z"/><path class="cls-2" d="M226.14,313.38a3.06,3.06,0,0,1-.22-.8c0-.13.18-.25.27-.38.15.16.41.3.43.46S226.41,313,226.14,313.38Z"/><path class="cls-2" d="M209.6,314.55a4,4,0,0,1,.31,1c0,.11-.2.21-.31.3a1.56,1.56,0,0,1-.32-.52C209.25,315.25,209.39,315.07,209.6,314.55Z"/><path class="cls-2" d="M205.25,316.58c-.57.24-.77.4-.9.36s-.27-.28-.4-.43c.13-.1.26-.27.4-.3S204.67,316.33,205.25,316.58Z"/><path class="cls-2" d="M202.08,317.43s0,.13-.05.13a.44.44,0,0,1-.15-.05l0-.14Z"/></svg>