<svg width="33" height="33" viewBox="0 0 33 33" fill="none" xmlns="http://www.w3.org/2000/svg">
<path d="M16.4999 7.21875C12.8746 7.21875 10.71 9.48492 10.71 13.2804C10.71 15.4404 13.5799 20.4306 16.4989 24.4148C19.4003 20.4172 22.2899 15.4889 22.2899 13.2804C22.2899 9.48492 20.1253 7.21875 16.4999 7.21875ZM16.4937 15.8776C15.0892 15.8776 13.9507 14.7391 13.9507 13.3346C13.9507 11.93 15.0892 10.7915 16.4937 10.7915C17.8983 10.7915 19.0368 11.93 19.0368 13.3346C19.0368 14.7391 17.8983 15.8776 16.4937 15.8776Z" fill="#E9735A"/>
<path d="M16.5 0C7.38736 0 0 7.38736 0 16.5C0 25.6126 7.38736 33 16.5 33C25.6126 33 33 25.6126 33 16.5C33 7.38736 25.6126 0 16.5 0ZM17.4663 26.5753L16.5 27.8438L15.5394 26.5753C14.8325 25.6513 8.64755 17.3941 8.64755 13.2804C8.64755 8.34539 11.7279 5.15625 16.5 5.15625C21.2721 5.15625 24.3525 8.34539 24.3525 13.2804C24.3525 17.3879 18.167 25.6451 17.4663 26.5753Z" fill="#E9735A"/>
</svg>
